SplineFontDB: 3.0
FontName: roundcube_plus_icons
FullName: roundcube_plus_icons
FamilyName: roundcube_plus_icons
Weight: Book
Copyright: Copyright (c) 2016, Roundcube Plus,,,
Version: 001.000
ItalicAngle: 0
UnderlinePosition: 0
UnderlineWidth: 0
Ascent: 1536
Descent: 256
sfntRevision: 0x00010000
LayerCount: 2
Layer: 0 1 "Back"  1
Layer: 1 1 "Fore"  0
XUID: [1021 60 1363599177 7056583]
FSType: 0
OS2Version: 4
OS2_WeightWidthSlopeOnly: 0
OS2_UseTypoMetrics: 1
CreationTime: 1453799903
ModificationTime: 1512397244
PfmFamily: 17
TTFWeight: 400
TTFWidth: 5
LineGap: 161
VLineGap: 0
Panose: 2 0 5 3 0 0 0 0 0 0
OS2TypoAscent: 1536
OS2TypoAOffset: 0
OS2TypoDescent: -256
OS2TypoDOffset: 0
OS2TypoLinegap: 161
OS2WinAscent: 1648
OS2WinAOffset: 0
OS2WinDescent: 256
OS2WinDOffset: 0
HheadAscent: 1648
HheadAOffset: 0
HheadDescent: -256
HheadDOffset: 0
OS2SubXSize: 1164
OS2SubYSize: 1254
OS2SubXOff: 0
OS2SubYOff: 250
OS2SupXSize: 1164
OS2SupYSize: 1254
OS2SupXOff: 0
OS2SupYOff: 860
OS2StrikeYSize: 89
OS2StrikeYPos: 463
OS2Vendor: 'PfEd'
OS2CodePages: 80000001.00000000
OS2UnicodeRanges: 00000000.10000000.00000000.00000000
MarkAttachClasses: 1
DEI: 91125
ShortTable: cvt  2
  59
  1135
EndShort
ShortTable: maxp 16
  1
  0
  252
  375
  18
  0
  0
  2
  0
  1
  1
  0
  64
  46
  0
  0
EndShort
LangName: 1033 "" "" "Regular" 
GaspTable: 1 65535 2 0
Encoding: UnicodeBmp
UnicodeInterp: none
NameList: Adobe Glyph List
DisplaySize: -48
AntiAlias: 1
FitToEm: 1
WinInfo: 60300 25 14
BeginPrivate: 0
EndPrivate
BeginChars: 65539 356

StartChar: .notdef
Encoding: 65536 -1 0
Width: 651
Flags: W
LayerCount: 2
Fore
SplineSet
59 0 m 1,0,-1
 59 1194 l 1,1,-1
 533 1194 l 1,2,-1
 533 0 l 1,3,-1
 59 0 l 1,0,-1
118 59 m 1,4,-1
 474 59 l 1,5,-1
 474 1135 l 1,6,-1
 118 1135 l 1,7,-1
 118 59 l 1,4,-1
EndSplineSet
Validated: 1
EndChar

StartChar: uniEA60
Encoding: 60000 60000 3
Width: 1792
Flags: W
LayerCount: 2
Fore
SplineSet
1792 736 m 2,0,-1
 1792 544 l 2,1,2
 1792 530 1792 530 1783 521 c 128,-1,3
 1774 512 1774 512 1760 512 c 2,4,-1
 512 512 l 1,5,-1
 512 288 l 2,6,7
 512 267 512 267 493 259 c 128,-1,8
 474 251 474 251 458 264 c 1,9,-1
 74 614 l 2,10,11
 64 624 64 624 64 637 c 0,12,13
 64 651 64 651 74 661 c 2,14,-1
 458 1015 l 2,15,16
 474 1029 474 1029 493 1021 c 0,17,18
 512 1012 512 1012 512 992 c 2,19,-1
 512 768 l 1,20,-1
 1760 768 l 2,21,22
 1774 768 1774 768 1783 759 c 128,-1,23
 1792 750 1792 750 1792 736 c 2,0,-1
EndSplineSet
Validated: 1
EndChar

StartChar: uniEA61
Encoding: 60001 60001 4
Width: 1792
Flags: W
LayerCount: 2
Fore
SplineSet
1728 643 m 0,0,1
 1728 629 1728 629 1718 619 c 2,2,-1
 1334 265 l 2,3,4
 1318 251 1318 251 1299 259 c 0,5,6
 1280 268 1280 268 1280 288 c 2,7,-1
 1280 512 l 1,8,-1
 32 512 l 2,9,10
 18 512 18 512 9 521 c 128,-1,11
 0 530 0 530 0 544 c 2,12,-1
 0 736 l 2,13,14
 0 750 0 750 9 759 c 128,-1,15
 18 768 18 768 32 768 c 2,16,-1
 1280 768 l 1,17,-1
 1280 992 l 2,18,19
 1280 1013 1280 1013 1299 1021 c 128,-1,20
 1318 1029 1318 1029 1334 1016 c 1,21,-1
 1718 666 l 2,22,23
 1728 656 1728 656 1728 643 c 0,0,1
EndSplineSet
Validated: 1
EndChar

StartChar: uniEA62
Encoding: 60002 60002 5
Width: 768
Flags: W
LayerCount: 2
Fore
SplineSet
765 1043 m 0,0,1
 756 1024 756 1024 736 1024 c 2,2,-1
 512 1024 l 1,3,-1
 512 -224 l 2,4,5
 512 -238 512 -238 503 -247 c 128,-1,6
 494 -256 494 -256 480 -256 c 2,7,-1
 288 -256 l 2,8,9
 274 -256 274 -256 265 -247 c 128,-1,10
 256 -238 256 -238 256 -224 c 2,11,-1
 256 1024 l 1,12,-1
 32 1024 l 2,13,14
 11 1024 11 1024 3 1043 c 128,-1,15
 -5 1062 -5 1062 8 1078 c 1,16,-1
 358 1462 l 2,17,18
 368 1472 368 1472 381 1472 c 0,19,20
 395 1472 395 1472 405 1462 c 2,21,-1
 760 1078 l 1,22,23
 773 1062 773 1062 765 1043 c 0,0,1
EndSplineSet
Validated: 1
EndChar

StartChar: uniEA63
Encoding: 60003 60003 6
Width: 768
Flags: W
LayerCount: 2
Fore
SplineSet
765 237 m 128,-1,1
 773 218 773 218 760 202 c 1,2,-1
 410 -182 l 2,3,4
 400 -192 400 -192 387 -192 c 0,5,6
 373 -192 373 -192 363 -182 c 2,7,-1
 8 202 l 1,8,9
 -5 218 -5 218 3 237 c 0,10,11
 12 256 12 256 32 256 c 2,12,-1
 256 256 l 1,13,-1
 256 1504 l 2,14,15
 256 1518 256 1518 265 1527 c 128,-1,16
 274 1536 274 1536 288 1536 c 2,17,-1
 480 1536 l 2,18,19
 494 1536 494 1536 503 1527 c 128,-1,20
 512 1518 512 1518 512 1504 c 2,21,-1
 512 256 l 1,22,-1
 736 256 l 2,23,0
 757 256 757 256 765 237 c 128,-1,1
EndSplineSet
Validated: 1
EndChar

StartChar: uniEA64
Encoding: 60004 60004 7
Width: 1536
Flags: W
LayerCount: 2
Fore
SplineSet
1280 576 m 2,0,-1
 1280 704 l 2,1,2
 1280 730 1280 730 1261 749 c 128,-1,3
 1242 768 1242 768 1216 768 c 2,4,-1
 714 768 l 1,5,-1
 903 957 l 2,6,7
 922 976 922 976 922 1002 c 128,-1,8
 922 1028 922 1028 903 1047 c 2,9,-1
 812 1138 l 2,10,11
 794 1156 794 1156 767 1156 c 128,-1,12
 740 1156 740 1156 722 1138 c 2,13,-1
 360 776 l 1,14,-1
 269 685 l 2,15,16
 251 667 251 667 251 640 c 128,-1,17
 251 613 251 613 269 595 c 2,18,-1
 360 504 l 1,19,-1
 722 142 l 2,20,21
 740 124 740 124 767 124 c 128,-1,22
 794 124 794 124 812 142 c 2,23,-1
 903 233 l 2,24,25
 921 251 921 251 921 278 c 128,-1,26
 921 305 921 305 903 323 c 2,27,-1
 714 512 l 1,28,-1
 1216 512 l 2,29,30
 1242 512 1242 512 1261 531 c 128,-1,31
 1280 550 1280 550 1280 576 c 2,0,-1
1536 640 m 128,-1,33
 1536 431 1536 431 1433 254.5 c 128,-1,34
 1330 78 1330 78 1153.5 -25 c 128,-1,35
 977 -128 977 -128 768 -128 c 128,-1,36
 559 -128 559 -128 382.5 -25 c 128,-1,37
 206 78 206 78 103 254.5 c 128,-1,38
 0 431 0 431 0 640 c 128,-1,39
 0 849 0 849 103 1025.5 c 128,-1,40
 206 1202 206 1202 382.5 1305 c 128,-1,41
 559 1408 559 1408 768 1408 c 128,-1,42
 977 1408 977 1408 1153.5 1305 c 128,-1,43
 1330 1202 1330 1202 1433 1025.5 c 128,-1,32
 1536 849 1536 849 1536 640 c 128,-1,33
EndSplineSet
Validated: 1
EndChar

StartChar: uniEA65
Encoding: 60005 60005 8
Width: 1536
Flags: W
LayerCount: 2
Fore
SplineSet
1285 640 m 128,-1,1
 1285 667 1285 667 1267 685 c 2,2,-1
 1176 776 l 1,3,-1
 814 1138 l 2,4,5
 796 1156 796 1156 769 1156 c 128,-1,6
 742 1156 742 1156 724 1138 c 2,7,-1
 633 1047 l 2,8,9
 615 1029 615 1029 615 1002 c 128,-1,10
 615 975 615 975 633 957 c 2,11,-1
 822 768 l 1,12,-1
 320 768 l 2,13,14
 294 768 294 768 275 749 c 128,-1,15
 256 730 256 730 256 704 c 2,16,-1
 256 576 l 2,17,18
 256 550 256 550 275 531 c 128,-1,19
 294 512 294 512 320 512 c 2,20,-1
 822 512 l 1,21,-1
 633 323 l 2,22,23
 614 304 614 304 614 278 c 128,-1,24
 614 252 614 252 633 233 c 2,25,-1
 724 142 l 2,26,27
 742 124 742 124 769 124 c 128,-1,28
 796 124 796 124 814 142 c 2,29,-1
 1176 504 l 1,30,-1
 1267 595 l 2,31,0
 1285 613 1285 613 1285 640 c 128,-1,1
1536 640 m 128,-1,33
 1536 431 1536 431 1433 254.5 c 128,-1,34
 1330 78 1330 78 1153.5 -25 c 128,-1,35
 977 -128 977 -128 768 -128 c 128,-1,36
 559 -128 559 -128 382.5 -25 c 128,-1,37
 206 78 206 78 103 254.5 c 128,-1,38
 0 431 0 431 0 640 c 128,-1,39
 0 849 0 849 103 1025.5 c 128,-1,40
 206 1202 206 1202 382.5 1305 c 128,-1,41
 559 1408 559 1408 768 1408 c 128,-1,42
 977 1408 977 1408 1153.5 1305 c 128,-1,43
 1330 1202 1330 1202 1433 1025.5 c 128,-1,32
 1536 849 1536 849 1536 640 c 128,-1,33
EndSplineSet
Validated: 1
EndChar

StartChar: uniEA66
Encoding: 60006 60006 9
Width: 1536
Flags: W
LayerCount: 2
Fore
SplineSet
1284 641 m 128,-1,1
 1284 668 1284 668 1266 686 c 2,2,-1
 904 1048 l 1,3,-1
 813 1139 l 2,4,5
 795 1157 795 1157 768 1157 c 128,-1,6
 741 1157 741 1157 723 1139 c 2,7,-1
 632 1048 l 1,8,-1
 270 686 l 2,9,10
 252 668 252 668 252 641 c 128,-1,11
 252 614 252 614 270 596 c 2,12,-1
 361 505 l 2,13,14
 379 487 379 487 406 487 c 128,-1,15
 433 487 433 487 451 505 c 2,16,-1
 640 694 l 1,17,-1
 640 192 l 2,18,19
 640 166 640 166 659 147 c 128,-1,20
 678 128 678 128 704 128 c 2,21,-1
 832 128 l 2,22,23
 858 128 858 128 877 147 c 128,-1,24
 896 166 896 166 896 192 c 2,25,-1
 896 694 l 1,26,-1
 1085 505 l 2,27,28
 1104 486 1104 486 1130 486 c 128,-1,29
 1156 486 1156 486 1175 505 c 2,30,-1
 1266 596 l 2,31,0
 1284 614 1284 614 1284 641 c 128,-1,1
1536 640 m 128,-1,33
 1536 431 1536 431 1433 254.5 c 128,-1,34
 1330 78 1330 78 1153.5 -25 c 128,-1,35
 977 -128 977 -128 768 -128 c 128,-1,36
 559 -128 559 -128 382.5 -25 c 128,-1,37
 206 78 206 78 103 254.5 c 128,-1,38
 0 431 0 431 0 640 c 128,-1,39
 0 849 0 849 103 1025.5 c 128,-1,40
 206 1202 206 1202 382.5 1305 c 128,-1,41
 559 1408 559 1408 768 1408 c 128,-1,42
 977 1408 977 1408 1153.5 1305 c 128,-1,43
 1330 1202 1330 1202 1433 1025.5 c 128,-1,32
 1536 849 1536 849 1536 640 c 128,-1,33
EndSplineSet
Validated: 1
EndChar

StartChar: uniEA67
Encoding: 60007 60007 10
Width: 1536
Flags: W
LayerCount: 2
Fore
SplineSet
1284 639 m 128,-1,1
 1284 666 1284 666 1266 684 c 2,2,-1
 1175 775 l 2,3,4
 1157 793 1157 793 1130 793 c 128,-1,5
 1103 793 1103 793 1085 775 c 2,6,-1
 896 586 l 1,7,-1
 896 1088 l 2,8,9
 896 1114 896 1114 877 1133 c 128,-1,10
 858 1152 858 1152 832 1152 c 2,11,-1
 704 1152 l 2,12,13
 678 1152 678 1152 659 1133 c 128,-1,14
 640 1114 640 1114 640 1088 c 2,15,-1
 640 586 l 1,16,-1
 451 775 l 2,17,18
 432 794 432 794 406 794 c 128,-1,19
 380 794 380 794 361 775 c 2,20,-1
 270 684 l 2,21,22
 252 666 252 666 252 639 c 128,-1,23
 252 612 252 612 270 594 c 2,24,-1
 632 232 l 1,25,-1
 723 141 l 2,26,27
 741 123 741 123 768 123 c 128,-1,28
 795 123 795 123 813 141 c 2,29,-1
 904 232 l 1,30,-1
 1266 594 l 2,31,0
 1284 612 1284 612 1284 639 c 128,-1,1
1536 640 m 128,-1,33
 1536 431 1536 431 1433 254.5 c 128,-1,34
 1330 78 1330 78 1153.5 -25 c 128,-1,35
 977 -128 977 -128 768 -128 c 128,-1,36
 559 -128 559 -128 382.5 -25 c 128,-1,37
 206 78 206 78 103 254.5 c 128,-1,38
 0 431 0 431 0 640 c 128,-1,39
 0 849 0 849 103 1025.5 c 128,-1,40
 206 1202 206 1202 382.5 1305 c 128,-1,41
 559 1408 559 1408 768 1408 c 128,-1,42
 977 1408 977 1408 1153.5 1305 c 128,-1,43
 1330 1202 1330 1202 1433 1025.5 c 128,-1,32
 1536 849 1536 849 1536 640 c 128,-1,33
EndSplineSet
Validated: 1
EndChar

StartChar: uniEA68
Encoding: 60008 60008 11
Width: 640
Flags: W
LayerCount: 2
Fore
SplineSet
627 992 m 128,-1,1
 627 979 627 979 617 969 c 2,2,-1
 224 576 l 1,3,-1
 617 183 l 2,4,5
 627 173 627 173 627 160 c 128,-1,6
 627 147 627 147 617 137 c 2,7,-1
 567 87 l 2,8,9
 557 77 557 77 544 77 c 128,-1,10
 531 77 531 77 521 87 c 2,11,-1
 55 553 l 2,12,13
 45 563 45 563 45 576 c 128,-1,14
 45 589 45 589 55 599 c 2,15,-1
 521 1065 l 2,16,17
 531 1075 531 1075 544 1075 c 128,-1,18
 557 1075 557 1075 567 1065 c 2,19,-1
 617 1015 l 2,20,0
 627 1005 627 1005 627 992 c 128,-1,1
EndSplineSet
Validated: 1
EndChar

StartChar: uniEA69
Encoding: 60009 60009 12
Width: 640
Flags: W
LayerCount: 2
Fore
SplineSet
595 576 m 128,-1,1
 595 563 595 563 585 553 c 2,2,-1
 119 87 l 2,3,4
 109 77 109 77 96 77 c 128,-1,5
 83 77 83 77 73 87 c 2,6,-1
 23 137 l 2,7,8
 13 147 13 147 13 160 c 128,-1,9
 13 173 13 173 23 183 c 2,10,-1
 416 576 l 1,11,-1
 23 969 l 2,12,13
 13 979 13 979 13 992 c 128,-1,14
 13 1005 13 1005 23 1015 c 2,15,-1
 73 1065 l 2,16,17
 83 1075 83 1075 96 1075 c 128,-1,18
 109 1075 109 1075 119 1065 c 2,19,-1
 585 599 l 2,20,0
 595 589 595 589 595 576 c 128,-1,1
EndSplineSet
Validated: 1
EndChar

StartChar: uniEA6A
Encoding: 60010 60010 13
Width: 1152
Flags: W
LayerCount: 2
Fore
SplineSet
1075 352 m 128,-1,1
 1075 339 1075 339 1065 329 c 2,2,-1
 1015 279 l 2,3,4
 1005 269 1005 269 992 269 c 128,-1,5
 979 269 979 269 969 279 c 2,6,-1
 576 672 l 1,7,-1
 183 279 l 2,8,9
 173 269 173 269 160 269 c 128,-1,10
 147 269 147 269 137 279 c 2,11,-1
 87 329 l 2,12,13
 77 339 77 339 77 352 c 128,-1,14
 77 365 77 365 87 375 c 2,15,-1
 553 841 l 2,16,17
 563 851 563 851 576 851 c 128,-1,18
 589 851 589 851 599 841 c 2,19,-1
 1065 375 l 2,20,0
 1075 365 1075 365 1075 352 c 128,-1,1
EndSplineSet
Validated: 1
EndChar

StartChar: uniEA6B
Encoding: 60011 60011 14
Width: 1152
Flags: W
LayerCount: 2
Fore
SplineSet
1075 800 m 128,-1,1
 1075 787 1075 787 1065 777 c 2,2,-1
 599 311 l 2,3,4
 589 301 589 301 576 301 c 128,-1,5
 563 301 563 301 553 311 c 2,6,-1
 87 777 l 2,7,8
 77 787 77 787 77 800 c 128,-1,9
 77 813 77 813 87 823 c 2,10,-1
 137 873 l 2,11,12
 147 883 147 883 160 883 c 128,-1,13
 173 883 173 883 183 873 c 2,14,-1
 576 480 l 1,15,-1
 969 873 l 2,16,17
 979 883 979 883 992 883 c 128,-1,18
 1005 883 1005 883 1015 873 c 2,19,-1
 1065 823 l 2,20,0
 1075 813 1075 813 1075 800 c 128,-1,1
EndSplineSet
Validated: 1
EndChar

StartChar: uniEA6C
Encoding: 60012 60012 15
Width: 1536
Flags: W
LayerCount: 2
Fore
SplineSet
909 141 m 2,0,-1
 1011 243 l 2,1,2
 1030 262 1030 262 1030 288 c 128,-1,3
 1030 314 1030 314 1011 333 c 2,4,-1
 704 640 l 1,5,-1
 1011 947 l 2,6,7
 1030 966 1030 966 1030 992 c 128,-1,8
 1030 1018 1030 1018 1011 1037 c 2,9,-1
 909 1139 l 2,10,11
 890 1158 890 1158 864 1158 c 128,-1,12
 838 1158 838 1158 819 1139 c 2,13,-1
 365 685 l 2,14,15
 346 666 346 666 346 640 c 128,-1,16
 346 614 346 614 365 595 c 2,17,-1
 819 141 l 2,18,19
 838 122 838 122 864 122 c 128,-1,20
 890 122 890 122 909 141 c 2,0,-1
1536 640 m 128,-1,22
 1536 431 1536 431 1433 254.5 c 128,-1,23
 1330 78 1330 78 1153.5 -25 c 128,-1,24
 977 -128 977 -128 768 -128 c 128,-1,25
 559 -128 559 -128 382.5 -25 c 128,-1,26
 206 78 206 78 103 254.5 c 128,-1,27
 0 431 0 431 0 640 c 128,-1,28
 0 849 0 849 103 1025.5 c 128,-1,29
 206 1202 206 1202 382.5 1305 c 128,-1,30
 559 1408 559 1408 768 1408 c 128,-1,31
 977 1408 977 1408 1153.5 1305 c 128,-1,32
 1330 1202 1330 1202 1433 1025.5 c 128,-1,21
 1536 849 1536 849 1536 640 c 128,-1,22
EndSplineSet
Validated: 1
EndChar

StartChar: uniEA6D
Encoding: 60013 60013 16
Width: 1536
Flags: W
LayerCount: 2
Fore
SplineSet
717 141 m 2,0,-1
 1171 595 l 2,1,2
 1190 614 1190 614 1190 640 c 128,-1,3
 1190 666 1190 666 1171 685 c 2,4,-1
 717 1139 l 2,5,6
 698 1158 698 1158 672 1158 c 128,-1,7
 646 1158 646 1158 627 1139 c 2,8,-1
 525 1037 l 2,9,10
 506 1018 506 1018 506 992 c 128,-1,11
 506 966 506 966 525 947 c 2,12,-1
 832 640 l 1,13,-1
 525 333 l 2,14,15
 506 314 506 314 506 288 c 128,-1,16
 506 262 506 262 525 243 c 2,17,-1
 627 141 l 2,18,19
 646 122 646 122 672 122 c 128,-1,20
 698 122 698 122 717 141 c 2,0,-1
1536 640 m 128,-1,22
 1536 431 1536 431 1433 254.5 c 128,-1,23
 1330 78 1330 78 1153.5 -25 c 128,-1,24
 977 -128 977 -128 768 -128 c 128,-1,25
 559 -128 559 -128 382.5 -25 c 128,-1,26
 206 78 206 78 103 254.5 c 128,-1,27
 0 431 0 431 0 640 c 128,-1,28
 0 849 0 849 103 1025.5 c 128,-1,29
 206 1202 206 1202 382.5 1305 c 128,-1,30
 559 1408 559 1408 768 1408 c 128,-1,31
 977 1408 977 1408 1153.5 1305 c 128,-1,32
 1330 1202 1330 1202 1433 1025.5 c 128,-1,21
 1536 849 1536 849 1536 640 c 128,-1,22
EndSplineSet
Validated: 1
EndChar

StartChar: uniEA6E
Encoding: 60014 60014 17
Width: 1536
Flags: W
LayerCount: 2
Fore
SplineSet
1165 397 m 2,0,-1
 1267 499 l 2,1,2
 1286 518 1286 518 1286 544 c 128,-1,3
 1286 570 1286 570 1267 589 c 2,4,-1
 813 1043 l 2,5,6
 794 1062 794 1062 768 1062 c 128,-1,7
 742 1062 742 1062 723 1043 c 2,8,-1
 269 589 l 2,9,10
 250 570 250 570 250 544 c 128,-1,11
 250 518 250 518 269 499 c 2,12,-1
 371 397 l 2,13,14
 390 378 390 378 416 378 c 128,-1,15
 442 378 442 378 461 397 c 2,16,-1
 768 704 l 1,17,-1
 1075 397 l 2,18,19
 1094 378 1094 378 1120 378 c 128,-1,20
 1146 378 1146 378 1165 397 c 2,0,-1
1536 640 m 128,-1,22
 1536 431 1536 431 1433 254.5 c 128,-1,23
 1330 78 1330 78 1153.5 -25 c 128,-1,24
 977 -128 977 -128 768 -128 c 128,-1,25
 559 -128 559 -128 382.5 -25 c 128,-1,26
 206 78 206 78 103 254.5 c 128,-1,27
 0 431 0 431 0 640 c 128,-1,28
 0 849 0 849 103 1025.5 c 128,-1,29
 206 1202 206 1202 382.5 1305 c 128,-1,30
 559 1408 559 1408 768 1408 c 128,-1,31
 977 1408 977 1408 1153.5 1305 c 128,-1,32
 1330 1202 1330 1202 1433 1025.5 c 128,-1,21
 1536 849 1536 849 1536 640 c 128,-1,22
EndSplineSet
Validated: 1
EndChar

StartChar: uniEA6F
Encoding: 60015 60015 18
Width: 1536
Flags: W
LayerCount: 2
Fore
SplineSet
813 237 m 2,0,-1
 1267 691 l 2,1,2
 1286 710 1286 710 1286 736 c 128,-1,3
 1286 762 1286 762 1267 781 c 2,4,-1
 1165 883 l 2,5,6
 1146 902 1146 902 1120 902 c 128,-1,7
 1094 902 1094 902 1075 883 c 2,8,-1
 768 576 l 1,9,-1
 461 883 l 2,10,11
 442 902 442 902 416 902 c 128,-1,12
 390 902 390 902 371 883 c 2,13,-1
 269 781 l 2,14,15
 250 762 250 762 250 736 c 128,-1,16
 250 710 250 710 269 691 c 2,17,-1
 723 237 l 2,18,19
 742 218 742 218 768 218 c 128,-1,20
 794 218 794 218 813 237 c 2,0,-1
1536 640 m 128,-1,22
 1536 431 1536 431 1433 254.5 c 128,-1,23
 1330 78 1330 78 1153.5 -25 c 128,-1,24
 977 -128 977 -128 768 -128 c 128,-1,25
 559 -128 559 -128 382.5 -25 c 128,-1,26
 206 78 206 78 103 254.5 c 128,-1,27
 0 431 0 431 0 640 c 128,-1,28
 0 849 0 849 103 1025.5 c 128,-1,29
 206 1202 206 1202 382.5 1305 c 128,-1,30
 559 1408 559 1408 768 1408 c 128,-1,31
 977 1408 977 1408 1153.5 1305 c 128,-1,32
 1330 1202 1330 1202 1433 1025.5 c 128,-1,21
 1536 849 1536 849 1536 640 c 128,-1,22
EndSplineSet
Validated: 1
EndChar

StartChar: uniEA70
Encoding: 60016 60016 19
Width: 640
Flags: W
LayerCount: 2
Fore
SplineSet
640 1088 m 2,0,-1
 640 192 l 2,1,2
 640 166 640 166 621 147 c 128,-1,3
 602 128 602 128 576 128 c 128,-1,4
 550 128 550 128 531 147 c 2,5,-1
 83 595 l 2,6,7
 64 614 64 614 64 640 c 128,-1,8
 64 666 64 666 83 685 c 2,9,-1
 531 1133 l 2,10,11
 550 1152 550 1152 576 1152 c 128,-1,12
 602 1152 602 1152 621 1133 c 128,-1,13
 640 1114 640 1114 640 1088 c 2,0,-1
EndSplineSet
Validated: 1
EndChar

StartChar: uniEA71
Encoding: 60017 60017 20
Width: 640
Flags: W
LayerCount: 2
Fore
SplineSet
576 640 m 128,-1,1
 576 614 576 614 557 595 c 2,2,-1
 109 147 l 2,3,4
 90 128 90 128 64 128 c 128,-1,5
 38 128 38 128 19 147 c 128,-1,6
 0 166 0 166 0 192 c 2,7,-1
 0 1088 l 2,8,9
 0 1114 0 1114 19 1133 c 128,-1,10
 38 1152 38 1152 64 1152 c 128,-1,11
 90 1152 90 1152 109 1133 c 2,12,-1
 557 685 l 2,13,0
 576 666 576 666 576 640 c 128,-1,1
EndSplineSet
Validated: 1
EndChar

StartChar: uniEA72
Encoding: 60018 60018 21
Width: 1024
Flags: W
LayerCount: 2
Fore
SplineSet
1024 320 m 128,-1,1
 1024 294 1024 294 1005 275 c 128,-1,2
 986 256 986 256 960 256 c 2,3,-1
 64 256 l 2,4,5
 38 256 38 256 19 275 c 128,-1,6
 0 294 0 294 0 320 c 128,-1,7
 0 346 0 346 19 365 c 2,8,-1
 467 813 l 2,9,10
 486 832 486 832 512 832 c 128,-1,11
 538 832 538 832 557 813 c 2,12,-1
 1005 365 l 2,13,0
 1024 346 1024 346 1024 320 c 128,-1,1
EndSplineSet
Validated: 1
EndChar

StartChar: uniEA73
Encoding: 60019 60019 22
Width: 1024
Flags: W
LayerCount: 2
Fore
SplineSet
1024 832 m 128,-1,1
 1024 806 1024 806 1005 787 c 2,2,-1
 557 339 l 2,3,4
 538 320 538 320 512 320 c 128,-1,5
 486 320 486 320 467 339 c 2,6,-1
 19 787 l 2,7,8
 0 806 0 806 0 832 c 128,-1,9
 0 858 0 858 19 877 c 128,-1,10
 38 896 38 896 64 896 c 2,11,-1
 960 896 l 2,12,13
 986 896 986 896 1005 877 c 128,-1,0
 1024 858 1024 858 1024 832 c 128,-1,1
EndSplineSet
Validated: 1
EndChar

StartChar: uniEA74
Encoding: 60020 60020 23
Width: 1024
Flags: W
LayerCount: 2
Fore
SplineSet
979 1395 m 2,0,1
 998 1414 998 1414 1011 1408 c 128,-1,2
 1024 1402 1024 1402 1024 1376 c 2,3,-1
 1024 -96 l 2,4,5
 1024 -122 1024 -122 1011 -128 c 128,-1,6
 998 -134 998 -134 979 -115 c 2,7,-1
 269 595 l 2,8,9
 260 604 260 604 256 614 c 1,10,-1
 256 -64 l 2,11,12
 256 -90 256 -90 237 -109 c 128,-1,13
 218 -128 218 -128 192 -128 c 2,14,-1
 64 -128 l 2,15,16
 38 -128 38 -128 19 -109 c 128,-1,17
 0 -90 0 -90 0 -64 c 2,18,-1
 0 1344 l 2,19,20
 0 1370 0 1370 19 1389 c 128,-1,21
 38 1408 38 1408 64 1408 c 2,22,-1
 192 1408 l 2,23,24
 218 1408 218 1408 237 1389 c 128,-1,25
 256 1370 256 1370 256 1344 c 2,26,-1
 256 666 l 1,27,28
 260 677 260 677 269 685 c 2,29,-1
 979 1395 l 2,0,1
EndSplineSet
Validated: 1
EndChar

StartChar: uniEA75
Encoding: 60021 60021 24
Width: 1664
Flags: W
LayerCount: 2
Fore
SplineSet
1619 1395 m 2,0,1
 1638 1414 1638 1414 1651 1408 c 128,-1,2
 1664 1402 1664 1402 1664 1376 c 2,3,-1
 1664 -96 l 2,4,5
 1664 -122 1664 -122 1651 -128 c 128,-1,6
 1638 -134 1638 -134 1619 -115 c 2,7,-1
 909 595 l 2,8,9
 901 604 901 604 896 614 c 1,10,-1
 896 -96 l 2,11,12
 896 -122 896 -122 883 -128 c 128,-1,13
 870 -134 870 -134 851 -115 c 2,14,-1
 141 595 l 2,15,16
 122 614 122 614 122 640 c 128,-1,17
 122 666 122 666 141 685 c 2,18,-1
 851 1395 l 2,19,20
 870 1414 870 1414 883 1408 c 128,-1,21
 896 1402 896 1402 896 1376 c 2,22,-1
 896 666 l 1,23,24
 901 677 901 677 909 685 c 2,25,-1
 1619 1395 l 2,0,1
EndSplineSet
Validated: 1
EndChar

StartChar: uniEA76
Encoding: 60022 60022 25
Width: 1664
Flags: W
LayerCount: 2
Fore
SplineSet
45 -115 m 2,0,1
 26 -134 26 -134 13 -128 c 128,-1,2
 0 -122 0 -122 0 -96 c 2,3,-1
 0 1376 l 2,4,5
 0 1402 0 1402 13 1408 c 128,-1,6
 26 1414 26 1414 45 1395 c 2,7,-1
 755 685 l 2,8,9
 763 677 763 677 768 666 c 1,10,-1
 768 1376 l 2,11,12
 768 1402 768 1402 781 1408 c 128,-1,13
 794 1414 794 1414 813 1395 c 2,14,-1
 1523 685 l 2,15,16
 1542 666 1542 666 1542 640 c 128,-1,17
 1542 614 1542 614 1523 595 c 2,18,-1
 813 -115 l 2,19,20
 794 -134 794 -134 781 -128 c 128,-1,21
 768 -122 768 -122 768 -96 c 2,22,-1
 768 614 l 1,23,24
 763 604 763 604 755 595 c 2,25,-1
 45 -115 l 2,0,1
EndSplineSet
Validated: 1
EndChar

StartChar: uniEA77
Encoding: 60023 60023 26
Width: 1024
Flags: W
LayerCount: 2
Fore
SplineSet
45 -115 m 2,0,1
 26 -134 26 -134 13 -128 c 128,-1,2
 0 -122 0 -122 0 -96 c 2,3,-1
 0 1376 l 2,4,5
 0 1402 0 1402 13 1408 c 128,-1,6
 26 1414 26 1414 45 1395 c 2,7,-1
 755 685 l 2,8,9
 763 677 763 677 768 666 c 1,10,-1
 768 1344 l 2,11,12
 768 1370 768 1370 787 1389 c 128,-1,13
 806 1408 806 1408 832 1408 c 2,14,-1
 960 1408 l 2,15,16
 986 1408 986 1408 1005 1389 c 128,-1,17
 1024 1370 1024 1370 1024 1344 c 2,18,-1
 1024 -64 l 2,19,20
 1024 -90 1024 -90 1005 -109 c 128,-1,21
 986 -128 986 -128 960 -128 c 2,22,-1
 832 -128 l 2,23,24
 806 -128 806 -128 787 -109 c 128,-1,25
 768 -90 768 -90 768 -64 c 2,26,-1
 768 614 l 1,27,28
 763 604 763 604 755 595 c 2,29,-1
 45 -115 l 2,0,1
EndSplineSet
Validated: 1
EndChar

StartChar: uniEA78
Encoding: 60024 60024 27
Width: 1408
Flags: W
LayerCount: 2
Fore
SplineSet
1298 214 m 128,-1,1
 1298 174 1298 174 1270 146 c 2,2,-1
 1134 10 l 2,3,4
 1106 -18 1106 -18 1066 -18 c 128,-1,5
 1026 -18 1026 -18 998 10 c 2,6,-1
 704 304 l 1,7,-1
 410 10 l 2,8,9
 382 -18 382 -18 342 -18 c 128,-1,10
 302 -18 302 -18 274 10 c 2,11,-1
 138 146 l 2,12,13
 110 174 110 174 110 214 c 128,-1,14
 110 254 110 254 138 282 c 2,15,-1
 432 576 l 1,16,-1
 138 870 l 2,17,18
 110 898 110 898 110 938 c 128,-1,19
 110 978 110 978 138 1006 c 2,20,-1
 274 1142 l 2,21,22
 302 1170 302 1170 342 1170 c 128,-1,23
 382 1170 382 1170 410 1142 c 2,24,-1
 704 848 l 1,25,-1
 998 1142 l 2,26,27
 1026 1170 1026 1170 1066 1170 c 128,-1,28
 1106 1170 1106 1170 1134 1142 c 2,29,-1
 1270 1006 l 2,30,31
 1298 978 1298 978 1298 938 c 128,-1,32
 1298 898 1298 898 1270 870 c 2,33,-1
 976 576 l 1,34,-1
 1270 282 l 2,35,0
 1298 254 1298 254 1298 214 c 128,-1,1
EndSplineSet
Validated: 1
EndChar

StartChar: uniEA79
Encoding: 60025 60025 28
Width: 1536
Flags: W
LayerCount: 2
Fore
SplineSet
1149 414 m 0,0,1
 1149 440 1149 440 1130 459 c 2,2,-1
 949 640 l 1,3,-1
 1130 821 l 2,4,5
 1149 840 1149 840 1149 866 c 0,6,7
 1149 893 1149 893 1130 912 c 2,8,-1
 1040 1002 l 2,9,10
 1021 1021 1021 1021 994 1021 c 0,11,12
 968 1021 968 1021 949 1002 c 2,13,-1
 768 821 l 1,14,-1
 587 1002 l 2,15,16
 568 1021 568 1021 542 1021 c 0,17,18
 515 1021 515 1021 496 1002 c 2,19,-1
 406 912 l 2,20,21
 387 893 387 893 387 866 c 0,22,23
 387 840 387 840 406 821 c 2,24,-1
 587 640 l 1,25,-1
 406 459 l 2,26,27
 387 440 387 440 387 414 c 0,28,29
 387 387 387 387 406 368 c 2,30,-1
 496 278 l 2,31,32
 515 259 515 259 542 259 c 0,33,34
 568 259 568 259 587 278 c 2,35,-1
 768 459 l 1,36,-1
 949 278 l 2,37,38
 968 259 968 259 994 259 c 0,39,40
 1021 259 1021 259 1040 278 c 2,41,-1
 1130 368 l 2,42,43
 1149 387 1149 387 1149 414 c 0,0,1
1536 640 m 128,-1,45
 1536 431 1536 431 1433 254.5 c 128,-1,46
 1330 78 1330 78 1153.5 -25 c 128,-1,47
 977 -128 977 -128 768 -128 c 128,-1,48
 559 -128 559 -128 382.5 -25 c 128,-1,49
 206 78 206 78 103 254.5 c 128,-1,50
 0 431 0 431 0 640 c 128,-1,51
 0 849 0 849 103 1025.5 c 128,-1,52
 206 1202 206 1202 382.5 1305 c 128,-1,53
 559 1408 559 1408 768 1408 c 128,-1,54
 977 1408 977 1408 1153.5 1305 c 128,-1,55
 1330 1202 1330 1202 1433 1025.5 c 128,-1,44
 1536 849 1536 849 1536 640 c 128,-1,45
EndSplineSet
Validated: 1
EndChar

StartChar: uniEA7A
Encoding: 60026 60026 29
Width: 1408
Flags: W
LayerCount: 2
Fore
SplineSet
1408 800 m 2,0,-1
 1408 608 l 2,1,2
 1408 568 1408 568 1380 540 c 128,-1,3
 1352 512 1352 512 1312 512 c 2,4,-1
 896 512 l 1,5,-1
 896 96 l 2,6,7
 896 56 896 56 868 28 c 128,-1,8
 840 0 840 0 800 0 c 2,9,-1
 608 0 l 2,10,11
 568 0 568 0 540 28 c 128,-1,12
 512 56 512 56 512 96 c 2,13,-1
 512 512 l 1,14,-1
 96 512 l 2,15,16
 56 512 56 512 28 540 c 128,-1,17
 0 568 0 568 0 608 c 2,18,-1
 0 800 l 2,19,20
 0 840 0 840 28 868 c 128,-1,21
 56 896 56 896 96 896 c 2,22,-1
 512 896 l 1,23,-1
 512 1312 l 2,24,25
 512 1352 512 1352 540 1380 c 128,-1,26
 568 1408 568 1408 608 1408 c 2,27,-1
 800 1408 l 2,28,29
 840 1408 840 1408 868 1380 c 128,-1,30
 896 1352 896 1352 896 1312 c 2,31,-1
 896 896 l 1,32,-1
 1312 896 l 2,33,34
 1352 896 1352 896 1380 868 c 128,-1,35
 1408 840 1408 840 1408 800 c 2,0,-1
EndSplineSet
Validated: 1
EndChar

StartChar: uniEA7B
Encoding: 60027 60027 30
Width: 1536
Flags: W
LayerCount: 2
Fore
SplineSet
1280 576 m 2,0,-1
 1280 704 l 2,1,2
 1280 730 1280 730 1261 749 c 128,-1,3
 1242 768 1242 768 1216 768 c 2,4,-1
 896 768 l 1,5,-1
 896 1088 l 2,6,7
 896 1114 896 1114 877 1133 c 128,-1,8
 858 1152 858 1152 832 1152 c 2,9,-1
 704 1152 l 2,10,11
 678 1152 678 1152 659 1133 c 128,-1,12
 640 1114 640 1114 640 1088 c 2,13,-1
 640 768 l 1,14,-1
 320 768 l 2,15,16
 294 768 294 768 275 749 c 128,-1,17
 256 730 256 730 256 704 c 2,18,-1
 256 576 l 2,19,20
 256 550 256 550 275 531 c 128,-1,21
 294 512 294 512 320 512 c 2,22,-1
 640 512 l 1,23,-1
 640 192 l 2,24,25
 640 166 640 166 659 147 c 128,-1,26
 678 128 678 128 704 128 c 2,27,-1
 832 128 l 2,28,29
 858 128 858 128 877 147 c 128,-1,30
 896 166 896 166 896 192 c 2,31,-1
 896 512 l 1,32,-1
 1216 512 l 2,33,34
 1242 512 1242 512 1261 531 c 128,-1,35
 1280 550 1280 550 1280 576 c 2,0,-1
1536 1120 m 2,36,-1
 1536 160 l 2,37,38
 1536 41 1536 41 1451.5 -43.5 c 128,-1,39
 1367 -128 1367 -128 1248 -128 c 2,40,-1
 288 -128 l 2,41,42
 169 -128 169 -128 84.5 -43.5 c 128,-1,43
 0 41 0 41 0 160 c 2,44,-1
 0 1120 l 2,45,46
 0 1239 0 1239 84.5 1323.5 c 128,-1,47
 169 1408 169 1408 288 1408 c 2,48,-1
 1248 1408 l 2,49,50
 1367 1408 1367 1408 1451.5 1323.5 c 128,-1,51
 1536 1239 1536 1239 1536 1120 c 2,36,-1
EndSplineSet
Validated: 1
EndChar

StartChar: uniEA7C
Encoding: 60028 60028 31
Width: 1536
Flags: W
LayerCount: 2
Fore
SplineSet
1216 576 m 2,0,-1
 1216 704 l 2,1,2
 1216 730 1216 730 1197 749 c 128,-1,3
 1178 768 1178 768 1152 768 c 2,4,-1
 896 768 l 1,5,-1
 896 1024 l 2,6,7
 896 1050 896 1050 877 1069 c 128,-1,8
 858 1088 858 1088 832 1088 c 2,9,-1
 704 1088 l 2,10,11
 678 1088 678 1088 659 1069 c 128,-1,12
 640 1050 640 1050 640 1024 c 2,13,-1
 640 768 l 1,14,-1
 384 768 l 2,15,16
 358 768 358 768 339 749 c 128,-1,17
 320 730 320 730 320 704 c 2,18,-1
 320 576 l 2,19,20
 320 550 320 550 339 531 c 128,-1,21
 358 512 358 512 384 512 c 2,22,-1
 640 512 l 1,23,-1
 640 256 l 2,24,25
 640 230 640 230 659 211 c 128,-1,26
 678 192 678 192 704 192 c 2,27,-1
 832 192 l 2,28,29
 858 192 858 192 877 211 c 128,-1,30
 896 230 896 230 896 256 c 2,31,-1
 896 512 l 1,32,-1
 1152 512 l 2,33,34
 1178 512 1178 512 1197 531 c 128,-1,35
 1216 550 1216 550 1216 576 c 2,0,-1
1536 640 m 128,-1,37
 1536 431 1536 431 1433 254.5 c 128,-1,38
 1330 78 1330 78 1153.5 -25 c 128,-1,39
 977 -128 977 -128 768 -128 c 128,-1,40
 559 -128 559 -128 382.5 -25 c 128,-1,41
 206 78 206 78 103 254.5 c 128,-1,42
 0 431 0 431 0 640 c 128,-1,43
 0 849 0 849 103 1025.5 c 128,-1,44
 206 1202 206 1202 382.5 1305 c 128,-1,45
 559 1408 559 1408 768 1408 c 128,-1,46
 977 1408 977 1408 1153.5 1305 c 128,-1,47
 1330 1202 1330 1202 1433 1025.5 c 128,-1,36
 1536 849 1536 849 1536 640 c 128,-1,37
EndSplineSet
Validated: 1
EndChar

StartChar: uniEA7D
Encoding: 60029 60029 32
Width: 1408
Flags: W
LayerCount: 2
Fore
SplineSet
1408 800 m 2,0,-1
 1408 608 l 2,1,2
 1408 568 1408 568 1380 540 c 128,-1,3
 1352 512 1352 512 1312 512 c 2,4,-1
 96 512 l 2,5,6
 56 512 56 512 28 540 c 128,-1,7
 0 568 0 568 0 608 c 2,8,-1
 0 800 l 2,9,10
 0 840 0 840 28 868 c 128,-1,11
 56 896 56 896 96 896 c 2,12,-1
 1312 896 l 2,13,14
 1352 896 1352 896 1380 868 c 128,-1,15
 1408 840 1408 840 1408 800 c 2,0,-1
EndSplineSet
Validated: 1
EndChar

StartChar: uniEA7E
Encoding: 60030 60030 33
Width: 1536
Flags: W
LayerCount: 2
Fore
SplineSet
1280 576 m 2,0,-1
 1280 704 l 2,1,2
 1280 730 1280 730 1261 749 c 128,-1,3
 1242 768 1242 768 1216 768 c 2,4,-1
 320 768 l 2,5,6
 294 768 294 768 275 749 c 128,-1,7
 256 730 256 730 256 704 c 2,8,-1
 256 576 l 2,9,10
 256 550 256 550 275 531 c 128,-1,11
 294 512 294 512 320 512 c 2,12,-1
 1216 512 l 2,13,14
 1242 512 1242 512 1261 531 c 128,-1,15
 1280 550 1280 550 1280 576 c 2,0,-1
1536 1120 m 2,16,-1
 1536 160 l 2,17,18
 1536 41 1536 41 1451.5 -43.5 c 128,-1,19
 1367 -128 1367 -128 1248 -128 c 2,20,-1
 288 -128 l 2,21,22
 169 -128 169 -128 84.5 -43.5 c 128,-1,23
 0 41 0 41 0 160 c 2,24,-1
 0 1120 l 2,25,26
 0 1239 0 1239 84.5 1323.5 c 128,-1,27
 169 1408 169 1408 288 1408 c 2,28,-1
 1248 1408 l 2,29,30
 1367 1408 1367 1408 1451.5 1323.5 c 128,-1,31
 1536 1239 1536 1239 1536 1120 c 2,16,-1
EndSplineSet
Validated: 1
EndChar

StartChar: uniEA7F
Encoding: 60031 60031 34
Width: 1536
Flags: W
LayerCount: 2
Fore
SplineSet
1216 576 m 2,0,-1
 1216 704 l 2,1,2
 1216 730 1216 730 1197 749 c 128,-1,3
 1178 768 1178 768 1152 768 c 2,4,-1
 384 768 l 2,5,6
 358 768 358 768 339 749 c 128,-1,7
 320 730 320 730 320 704 c 2,8,-1
 320 576 l 2,9,10
 320 550 320 550 339 531 c 128,-1,11
 358 512 358 512 384 512 c 2,12,-1
 1152 512 l 2,13,14
 1178 512 1178 512 1197 531 c 128,-1,15
 1216 550 1216 550 1216 576 c 2,0,-1
1536 640 m 128,-1,17
 1536 431 1536 431 1433 254.5 c 128,-1,18
 1330 78 1330 78 1153.5 -25 c 128,-1,19
 977 -128 977 -128 768 -128 c 128,-1,20
 559 -128 559 -128 382.5 -25 c 128,-1,21
 206 78 206 78 103 254.5 c 128,-1,22
 0 431 0 431 0 640 c 128,-1,23
 0 849 0 849 103 1025.5 c 128,-1,24
 206 1202 206 1202 382.5 1305 c 128,-1,25
 559 1408 559 1408 768 1408 c 128,-1,26
 977 1408 977 1408 1153.5 1305 c 128,-1,27
 1330 1202 1330 1202 1433 1025.5 c 128,-1,16
 1536 849 1536 849 1536 640 c 128,-1,17
EndSplineSet
Validated: 1
EndChar

StartChar: uniEA80
Encoding: 60032 60032 35
Width: 1792
Flags: W
LayerCount: 2
Fore
SplineSet
1671 970 m 128,-1,1
 1671 930 1671 930 1643 902 c 2,2,-1
 919 178 l 1,3,-1
 783 42 l 2,4,5
 755 14 755 14 715 14 c 128,-1,6
 675 14 675 14 647 42 c 2,7,-1
 511 178 l 1,8,-1
 149 540 l 2,9,10
 121 568 121 568 121 608 c 128,-1,11
 121 648 121 648 149 676 c 2,12,-1
 285 812 l 2,13,14
 313 840 313 840 353 840 c 128,-1,15
 393 840 393 840 421 812 c 2,16,-1
 715 517 l 1,17,-1
 1371 1174 l 2,18,19
 1399 1202 1399 1202 1439 1202 c 128,-1,20
 1479 1202 1479 1202 1507 1174 c 2,21,-1
 1643 1038 l 2,22,0
 1671 1010 1671 1010 1671 970 c 128,-1,1
EndSplineSet
Validated: 1
EndChar

StartChar: uniEA81
Encoding: 60033 60033 36
Width: 1536
Flags: W
LayerCount: 2
Fore
SplineSet
685 237 m 2,0,-1
 1299 851 l 2,1,2
 1318 870 1318 870 1318 896 c 128,-1,3
 1318 922 1318 922 1299 941 c 2,4,-1
 1197 1043 l 2,5,6
 1178 1062 1178 1062 1152 1062 c 128,-1,7
 1126 1062 1126 1062 1107 1043 c 2,8,-1
 640 576 l 1,9,-1
 429 787 l 2,10,11
 410 806 410 806 384 806 c 128,-1,12
 358 806 358 806 339 787 c 2,13,-1
 237 685 l 2,14,15
 218 666 218 666 218 640 c 128,-1,16
 218 614 218 614 237 595 c 2,17,-1
 595 237 l 2,18,19
 614 218 614 218 640 218 c 128,-1,20
 666 218 666 218 685 237 c 2,0,-1
1536 1120 m 2,21,-1
 1536 160 l 2,22,23
 1536 41 1536 41 1451.5 -43.5 c 128,-1,24
 1367 -128 1367 -128 1248 -128 c 2,25,-1
 288 -128 l 2,26,27
 169 -128 169 -128 84.5 -43.5 c 128,-1,28
 0 41 0 41 0 160 c 2,29,-1
 0 1120 l 2,30,31
 0 1239 0 1239 84.5 1323.5 c 128,-1,32
 169 1408 169 1408 288 1408 c 2,33,-1
 1248 1408 l 2,34,35
 1367 1408 1367 1408 1451.5 1323.5 c 128,-1,36
 1536 1239 1536 1239 1536 1120 c 2,21,-1
EndSplineSet
Validated: 1
EndChar

StartChar: uniEA82
Encoding: 60034 60034 37
Width: 1024
Flags: W
LayerCount: 2
Fore
SplineSet
1024 448 m 128,-1,1
 1024 422 1024 422 1005 403 c 2,2,-1
 557 -45 l 2,3,4
 538 -64 538 -64 512 -64 c 128,-1,5
 486 -64 486 -64 467 -45 c 2,6,-1
 19 403 l 2,7,8
 0 422 0 422 0 448 c 128,-1,9
 0 474 0 474 19 493 c 128,-1,10
 38 512 38 512 64 512 c 2,11,-1
 960 512 l 2,12,13
 986 512 986 512 1005 493 c 128,-1,0
 1024 474 1024 474 1024 448 c 128,-1,1
EndSplineSet
Validated: 1
EndChar

StartChar: uniEA83
Encoding: 60035 60035 38
Width: 1024
Flags: W
LayerCount: 2
Fore
SplineSet
1024 832 m 128,-1,1
 1024 806 1024 806 1005 787 c 128,-1,2
 986 768 986 768 960 768 c 2,3,-1
 64 768 l 2,4,5
 38 768 38 768 19 787 c 128,-1,6
 0 806 0 806 0 832 c 128,-1,7
 0 858 0 858 19 877 c 2,8,-1
 467 1325 l 2,9,10
 486 1344 486 1344 512 1344 c 128,-1,11
 538 1344 538 1344 557 1325 c 2,12,-1
 1005 877 l 2,13,0
 1024 858 1024 858 1024 832 c 128,-1,1
EndSplineSet
Validated: 1
EndChar

StartChar: uniEA84
Encoding: 60036 60036 39
Width: 1536
Flags: W
LayerCount: 2
Fore
SplineSet
768 1408 m 128,-1,1
 977 1408 977 1408 1153.5 1305 c 128,-1,2
 1330 1202 1330 1202 1433 1025.5 c 128,-1,3
 1536 849 1536 849 1536 640 c 128,-1,4
 1536 431 1536 431 1433 254.5 c 128,-1,5
 1330 78 1330 78 1153.5 -25 c 128,-1,6
 977 -128 977 -128 768 -128 c 128,-1,7
 559 -128 559 -128 382.5 -25 c 128,-1,8
 206 78 206 78 103 254.5 c 128,-1,9
 0 431 0 431 0 640 c 128,-1,10
 0 849 0 849 103 1025.5 c 128,-1,11
 206 1202 206 1202 382.5 1305 c 128,-1,0
 559 1408 559 1408 768 1408 c 128,-1,1
896 161 m 2,12,-1
 896 351 l 2,13,14
 896 365 896 365 887 374.5 c 128,-1,15
 878 384 878 384 865 384 c 2,16,-1
 673 384 l 2,17,18
 660 384 660 384 650 374 c 128,-1,19
 640 364 640 364 640 351 c 2,20,-1
 640 161 l 2,21,22
 640 148 640 148 650 138 c 128,-1,23
 660 128 660 128 673 128 c 2,24,-1
 865 128 l 2,25,26
 878 128 878 128 887 137.5 c 128,-1,27
 896 147 896 147 896 161 c 2,12,-1
894 505 m 2,28,-1
 912 1126 l 2,29,30
 912 1138 912 1138 902 1144 c 1,31,32
 892 1152 892 1152 878 1152 c 2,33,-1
 658 1152 l 2,34,35
 644 1152 644 1152 634 1144 c 1,36,37
 624 1138 624 1138 624 1126 c 2,38,-1
 641 505 l 2,39,40
 641 495 641 495 651 487.5 c 128,-1,41
 661 480 661 480 675 480 c 2,42,-1
 860 480 l 2,43,44
 874 480 874 480 883.5 487.5 c 128,-1,45
 893 495 893 495 894 505 c 2,28,-1
EndSplineSet
Validated: 1
EndChar

StartChar: uniEA85
Encoding: 60037 60037 40
Width: 1536
Flags: W
LayerCount: 2
Fore
SplineSet
1024 160 m 2,0,-1
 1024 320 l 2,1,2
 1024 334 1024 334 1015 343 c 128,-1,3
 1006 352 1006 352 992 352 c 2,4,-1
 896 352 l 1,5,-1
 896 864 l 2,6,7
 896 878 896 878 887 887 c 128,-1,8
 878 896 878 896 864 896 c 2,9,-1
 544 896 l 2,10,11
 530 896 530 896 521 887 c 128,-1,12
 512 878 512 878 512 864 c 2,13,-1
 512 704 l 2,14,15
 512 690 512 690 521 681 c 128,-1,16
 530 672 530 672 544 672 c 2,17,-1
 640 672 l 1,18,-1
 640 352 l 1,19,-1
 544 352 l 2,20,21
 530 352 530 352 521 343 c 128,-1,22
 512 334 512 334 512 320 c 2,23,-1
 512 160 l 2,24,25
 512 146 512 146 521 137 c 128,-1,26
 530 128 530 128 544 128 c 2,27,-1
 992 128 l 2,28,29
 1006 128 1006 128 1015 137 c 128,-1,30
 1024 146 1024 146 1024 160 c 2,0,-1
896 1056 m 2,31,-1
 896 1216 l 2,32,33
 896 1230 896 1230 887 1239 c 128,-1,34
 878 1248 878 1248 864 1248 c 2,35,-1
 672 1248 l 2,36,37
 658 1248 658 1248 649 1239 c 128,-1,38
 640 1230 640 1230 640 1216 c 2,39,-1
 640 1056 l 2,40,41
 640 1042 640 1042 649 1033 c 128,-1,42
 658 1024 658 1024 672 1024 c 2,43,-1
 864 1024 l 2,44,45
 878 1024 878 1024 887 1033 c 128,-1,46
 896 1042 896 1042 896 1056 c 2,31,-1
1536 640 m 128,-1,48
 1536 431 1536 431 1433 254.5 c 128,-1,49
 1330 78 1330 78 1153.5 -25 c 128,-1,50
 977 -128 977 -128 768 -128 c 128,-1,51
 559 -128 559 -128 382.5 -25 c 128,-1,52
 206 78 206 78 103 254.5 c 128,-1,53
 0 431 0 431 0 640 c 128,-1,54
 0 849 0 849 103 1025.5 c 128,-1,55
 206 1202 206 1202 382.5 1305 c 128,-1,56
 559 1408 559 1408 768 1408 c 128,-1,57
 977 1408 977 1408 1153.5 1305 c 128,-1,58
 1330 1202 1330 1202 1433 1025.5 c 128,-1,47
 1536 849 1536 849 1536 640 c 128,-1,48
EndSplineSet
Validated: 1
EndChar

StartChar: uniEA86
Encoding: 60038 60038 41
Width: 1536
Flags: W
LayerCount: 2
Fore
SplineSet
896 160 m 2,0,-1
 896 352 l 2,1,2
 896 366 896 366 887 375 c 128,-1,3
 878 384 878 384 864 384 c 2,4,-1
 672 384 l 2,5,6
 658 384 658 384 649 375 c 128,-1,7
 640 366 640 366 640 352 c 2,8,-1
 640 160 l 2,9,10
 640 146 640 146 649 137 c 128,-1,11
 658 128 658 128 672 128 c 2,12,-1
 864 128 l 2,13,14
 878 128 878 128 887 137 c 128,-1,15
 896 146 896 146 896 160 c 2,0,-1
1152 832 m 0,16,17
 1152 920 1152 920 1096.5 995 c 128,-1,18
 1041 1070 1041 1070 958 1111 c 128,-1,19
 875 1152 875 1152 788 1152 c 0,20,21
 545 1152 545 1152 417 939 c 0,22,23
 402 915 402 915 425 897 c 2,24,-1
 557 797 l 2,25,26
 564 791 564 791 576 791 c 0,27,28
 592 791 592 791 601 803 c 0,29,30
 654 871 654 871 687 895 c 0,31,32
 721 919 721 919 773 919 c 0,33,34
 821 919 821 919 858.5 893 c 128,-1,35
 896 867 896 867 896 834 c 0,36,37
 896 796 896 796 876 773 c 128,-1,38
 856 750 856 750 808 728 c 0,39,40
 745 700 745 700 692.5 641.5 c 128,-1,41
 640 583 640 583 640 516 c 2,42,-1
 640 480 l 2,43,44
 640 466 640 466 649 457 c 128,-1,45
 658 448 658 448 672 448 c 2,46,-1
 864 448 l 2,47,48
 878 448 878 448 887 457 c 128,-1,49
 896 466 896 466 896 480 c 0,50,51
 896 499 896 499 917.5 529.5 c 128,-1,52
 939 560 939 560 972 579 c 0,53,54
 1004 597 1004 597 1021 607.5 c 128,-1,55
 1038 618 1038 618 1067 642.5 c 128,-1,56
 1096 667 1096 667 1111.5 690.5 c 128,-1,57
 1127 714 1127 714 1139.5 751 c 128,-1,58
 1152 788 1152 788 1152 832 c 0,16,17
1536 640 m 128,-1,60
 1536 431 1536 431 1433 254.5 c 128,-1,61
 1330 78 1330 78 1153.5 -25 c 128,-1,62
 977 -128 977 -128 768 -128 c 128,-1,63
 559 -128 559 -128 382.5 -25 c 128,-1,64
 206 78 206 78 103 254.5 c 128,-1,65
 0 431 0 431 0 640 c 128,-1,66
 0 849 0 849 103 1025.5 c 128,-1,67
 206 1202 206 1202 382.5 1305 c 128,-1,68
 559 1408 559 1408 768 1408 c 128,-1,69
 977 1408 977 1408 1153.5 1305 c 128,-1,70
 1330 1202 1330 1202 1433 1025.5 c 128,-1,59
 1536 849 1536 849 1536 640 c 128,-1,60
EndSplineSet
Validated: 1
EndChar

StartChar: uniEA87
Encoding: 60039 60039 42
Width: 1664
Flags: W
LayerCount: 2
Fore
SplineSet
1280 192 m 128,-1,1
 1280 218 1280 218 1261 237 c 128,-1,2
 1242 256 1242 256 1216 256 c 128,-1,3
 1190 256 1190 256 1171 237 c 128,-1,4
 1152 218 1152 218 1152 192 c 128,-1,5
 1152 166 1152 166 1171 147 c 128,-1,6
 1190 128 1190 128 1216 128 c 128,-1,7
 1242 128 1242 128 1261 147 c 128,-1,0
 1280 166 1280 166 1280 192 c 128,-1,1
1536 192 m 128,-1,9
 1536 218 1536 218 1517 237 c 128,-1,10
 1498 256 1498 256 1472 256 c 128,-1,11
 1446 256 1446 256 1427 237 c 128,-1,12
 1408 218 1408 218 1408 192 c 128,-1,13
 1408 166 1408 166 1427 147 c 128,-1,14
 1446 128 1446 128 1472 128 c 128,-1,15
 1498 128 1498 128 1517 147 c 128,-1,8
 1536 166 1536 166 1536 192 c 128,-1,9
1664 416 m 2,16,-1
 1664 96 l 2,17,18
 1664 56 1664 56 1636 28 c 128,-1,19
 1608 0 1608 0 1568 0 c 2,20,-1
 96 0 l 2,21,22
 56 0 56 0 28 28 c 128,-1,23
 0 56 0 56 0 96 c 2,24,-1
 0 416 l 2,25,26
 0 456 0 456 28 484 c 128,-1,27
 56 512 56 512 96 512 c 2,28,-1
 561 512 l 1,29,-1
 696 376 l 1,30,31
 754 320 754 320 832 320 c 128,-1,32
 910 320 910 320 968 376 c 1,33,-1
 1104 512 l 1,34,-1
 1568 512 l 2,35,36
 1608 512 1608 512 1636 484 c 128,-1,37
 1664 456 1664 456 1664 416 c 2,16,-1
1339 985 m 0,38,39
 1356 944 1356 944 1325 915 c 1,40,-1
 877 467 l 2,41,42
 859 448 859 448 832 448 c 128,-1,43
 805 448 805 448 787 467 c 2,44,-1
 339 915 l 1,45,46
 308 944 308 944 325 985 c 0,47,48
 342 1024 342 1024 384 1024 c 2,49,-1
 640 1024 l 1,50,-1
 640 1472 l 2,51,52
 640 1498 640 1498 659 1517 c 128,-1,53
 678 1536 678 1536 704 1536 c 2,54,-1
 960 1536 l 2,55,56
 986 1536 986 1536 1005 1517 c 128,-1,57
 1024 1498 1024 1498 1024 1472 c 2,58,-1
 1024 1024 l 1,59,-1
 1280 1024 l 2,60,61
 1322 1024 1322 1024 1339 985 c 0,38,39
EndSplineSet
Validated: 33
EndChar

StartChar: uniEA88
Encoding: 60040 60040 43
Width: 1664
Flags: W
LayerCount: 2
Fore
SplineSet
1280 64 m 128,-1,1
 1280 90 1280 90 1261 109 c 128,-1,2
 1242 128 1242 128 1216 128 c 128,-1,3
 1190 128 1190 128 1171 109 c 128,-1,4
 1152 90 1152 90 1152 64 c 128,-1,5
 1152 38 1152 38 1171 19 c 128,-1,6
 1190 0 1190 0 1216 0 c 128,-1,7
 1242 0 1242 0 1261 19 c 128,-1,0
 1280 38 1280 38 1280 64 c 128,-1,1
1536 64 m 128,-1,9
 1536 90 1536 90 1517 109 c 128,-1,10
 1498 128 1498 128 1472 128 c 128,-1,11
 1446 128 1446 128 1427 109 c 128,-1,12
 1408 90 1408 90 1408 64 c 128,-1,13
 1408 38 1408 38 1427 19 c 128,-1,14
 1446 0 1446 0 1472 0 c 128,-1,15
 1498 0 1498 0 1517 19 c 128,-1,8
 1536 38 1536 38 1536 64 c 128,-1,9
1664 288 m 2,16,-1
 1664 -32 l 2,17,18
 1664 -72 1664 -72 1636 -100 c 128,-1,19
 1608 -128 1608 -128 1568 -128 c 2,20,-1
 96 -128 l 2,21,22
 56 -128 56 -128 28 -100 c 128,-1,23
 0 -72 0 -72 0 -32 c 2,24,-1
 0 288 l 2,25,26
 0 328 0 328 28 356 c 128,-1,27
 56 384 56 384 96 384 c 2,28,-1
 523 384 l 1,29,30
 544 328 544 328 593.5 292 c 128,-1,31
 643 256 643 256 704 256 c 2,32,-1
 960 256 l 2,33,34
 1021 256 1021 256 1070.5 292 c 128,-1,35
 1120 328 1120 328 1141 384 c 1,36,-1
 1568 384 l 2,37,38
 1608 384 1608 384 1636 356 c 128,-1,39
 1664 328 1664 328 1664 288 c 2,16,-1
1339 936 m 0,40,41
 1322 896 1322 896 1280 896 c 2,42,-1
 1024 896 l 1,43,-1
 1024 448 l 2,44,45
 1024 422 1024 422 1005 403 c 128,-1,46
 986 384 986 384 960 384 c 2,47,-1
 704 384 l 2,48,49
 678 384 678 384 659 403 c 128,-1,50
 640 422 640 422 640 448 c 2,51,-1
 640 896 l 1,52,-1
 384 896 l 2,53,54
 342 896 342 896 325 936 c 0,55,56
 308 975 308 975 339 1005 c 2,57,-1
 787 1453 l 2,58,59
 805 1472 805 1472 832 1472 c 128,-1,60
 859 1472 859 1472 877 1453 c 2,61,-1
 1325 1005 l 2,62,63
 1356 975 1356 975 1339 936 c 0,40,41
EndSplineSet
Validated: 33
EndChar

StartChar: uniEA89
Encoding: 60041 60041 44
Width: 1664
Flags: W
LayerCount: 2
Fore
SplineSet
768 512 m 2,0,-1
 768 128 l 2,1,2
 768 76 768 76 730 38 c 128,-1,3
 692 0 692 0 640 0 c 2,4,-1
 128 0 l 2,5,6
 76 0 76 0 38 38 c 128,-1,7
 0 76 0 76 0 128 c 2,8,-1
 0 512 l 2,9,10
 0 564 0 564 38 602 c 128,-1,11
 76 640 76 640 128 640 c 2,12,-1
 640 640 l 2,13,14
 692 640 692 640 730 602 c 128,-1,15
 768 564 768 564 768 512 c 2,0,-1
768 1280 m 2,16,-1
 768 896 l 2,17,18
 768 844 768 844 730 806 c 128,-1,19
 692 768 692 768 640 768 c 2,20,-1
 128 768 l 2,21,22
 76 768 76 768 38 806 c 128,-1,23
 0 844 0 844 0 896 c 2,24,-1
 0 1280 l 2,25,26
 0 1332 0 1332 38 1370 c 128,-1,27
 76 1408 76 1408 128 1408 c 2,28,-1
 640 1408 l 2,29,30
 692 1408 692 1408 730 1370 c 128,-1,31
 768 1332 768 1332 768 1280 c 2,16,-1
1664 512 m 2,32,-1
 1664 128 l 2,33,34
 1664 76 1664 76 1626 38 c 128,-1,35
 1588 0 1588 0 1536 0 c 2,36,-1
 1024 0 l 2,37,38
 972 0 972 0 934 38 c 128,-1,39
 896 76 896 76 896 128 c 2,40,-1
 896 512 l 2,41,42
 896 564 896 564 934 602 c 128,-1,43
 972 640 972 640 1024 640 c 2,44,-1
 1536 640 l 2,45,46
 1588 640 1588 640 1626 602 c 128,-1,47
 1664 564 1664 564 1664 512 c 2,32,-1
1664 1280 m 2,48,-1
 1664 896 l 2,49,50
 1664 844 1664 844 1626 806 c 128,-1,51
 1588 768 1588 768 1536 768 c 2,52,-1
 1024 768 l 2,53,54
 972 768 972 768 934 806 c 128,-1,55
 896 844 896 844 896 896 c 2,56,-1
 896 1280 l 2,57,58
 896 1332 896 1332 934 1370 c 128,-1,59
 972 1408 972 1408 1024 1408 c 2,60,-1
 1536 1408 l 2,61,62
 1588 1408 1588 1408 1626 1370 c 128,-1,63
 1664 1332 1664 1332 1664 1280 c 2,48,-1
EndSplineSet
Validated: 1
EndChar

StartChar: uniEA8A
Encoding: 60042 60042 45
Width: 1792
Flags: W
LayerCount: 2
Fore
SplineSet
512 288 m 2,0,-1
 512 96 l 2,1,2
 512 56 512 56 484 28 c 128,-1,3
 456 0 456 0 416 0 c 2,4,-1
 96 0 l 2,5,6
 56 0 56 0 28 28 c 128,-1,7
 0 56 0 56 0 96 c 2,8,-1
 0 288 l 2,9,10
 0 328 0 328 28 356 c 128,-1,11
 56 384 56 384 96 384 c 2,12,-1
 416 384 l 2,13,14
 456 384 456 384 484 356 c 128,-1,15
 512 328 512 328 512 288 c 2,0,-1
512 800 m 2,16,-1
 512 608 l 2,17,18
 512 568 512 568 484 540 c 128,-1,19
 456 512 456 512 416 512 c 2,20,-1
 96 512 l 2,21,22
 56 512 56 512 28 540 c 128,-1,23
 0 568 0 568 0 608 c 2,24,-1
 0 800 l 2,25,26
 0 840 0 840 28 868 c 128,-1,27
 56 896 56 896 96 896 c 2,28,-1
 416 896 l 2,29,30
 456 896 456 896 484 868 c 128,-1,31
 512 840 512 840 512 800 c 2,16,-1
1152 288 m 2,32,-1
 1152 96 l 2,33,34
 1152 56 1152 56 1124 28 c 128,-1,35
 1096 0 1096 0 1056 0 c 2,36,-1
 736 0 l 2,37,38
 696 0 696 0 668 28 c 128,-1,39
 640 56 640 56 640 96 c 2,40,-1
 640 288 l 2,41,42
 640 328 640 328 668 356 c 128,-1,43
 696 384 696 384 736 384 c 2,44,-1
 1056 384 l 2,45,46
 1096 384 1096 384 1124 356 c 128,-1,47
 1152 328 1152 328 1152 288 c 2,32,-1
512 1312 m 2,48,-1
 512 1120 l 2,49,50
 512 1080 512 1080 484 1052 c 128,-1,51
 456 1024 456 1024 416 1024 c 2,52,-1
 96 1024 l 2,53,54
 56 1024 56 1024 28 1052 c 128,-1,55
 0 1080 0 1080 0 1120 c 2,56,-1
 0 1312 l 2,57,58
 0 1352 0 1352 28 1380 c 128,-1,59
 56 1408 56 1408 96 1408 c 2,60,-1
 416 1408 l 2,61,62
 456 1408 456 1408 484 1380 c 128,-1,63
 512 1352 512 1352 512 1312 c 2,48,-1
1152 800 m 2,64,-1
 1152 608 l 2,65,66
 1152 568 1152 568 1124 540 c 128,-1,67
 1096 512 1096 512 1056 512 c 2,68,-1
 736 512 l 2,69,70
 696 512 696 512 668 540 c 128,-1,71
 640 568 640 568 640 608 c 2,72,-1
 640 800 l 2,73,74
 640 840 640 840 668 868 c 128,-1,75
 696 896 696 896 736 896 c 2,76,-1
 1056 896 l 2,77,78
 1096 896 1096 896 1124 868 c 128,-1,79
 1152 840 1152 840 1152 800 c 2,64,-1
1792 288 m 2,80,-1
 1792 96 l 2,81,82
 1792 56 1792 56 1764 28 c 128,-1,83
 1736 0 1736 0 1696 0 c 2,84,-1
 1376 0 l 2,85,86
 1336 0 1336 0 1308 28 c 128,-1,87
 1280 56 1280 56 1280 96 c 2,88,-1
 1280 288 l 2,89,90
 1280 328 1280 328 1308 356 c 128,-1,91
 1336 384 1336 384 1376 384 c 2,92,-1
 1696 384 l 2,93,94
 1736 384 1736 384 1764 356 c 128,-1,95
 1792 328 1792 328 1792 288 c 2,80,-1
1152 1312 m 2,96,-1
 1152 1120 l 2,97,98
 1152 1080 1152 1080 1124 1052 c 128,-1,99
 1096 1024 1096 1024 1056 1024 c 2,100,-1
 736 1024 l 2,101,102
 696 1024 696 1024 668 1052 c 128,-1,103
 640 1080 640 1080 640 1120 c 2,104,-1
 640 1312 l 2,105,106
 640 1352 640 1352 668 1380 c 128,-1,107
 696 1408 696 1408 736 1408 c 2,108,-1
 1056 1408 l 2,109,110
 1096 1408 1096 1408 1124 1380 c 128,-1,111
 1152 1352 1152 1352 1152 1312 c 2,96,-1
1792 800 m 2,112,-1
 1792 608 l 2,113,114
 1792 568 1792 568 1764 540 c 128,-1,115
 1736 512 1736 512 1696 512 c 2,116,-1
 1376 512 l 2,117,118
 1336 512 1336 512 1308 540 c 128,-1,119
 1280 568 1280 568 1280 608 c 2,120,-1
 1280 800 l 2,121,122
 1280 840 1280 840 1308 868 c 128,-1,123
 1336 896 1336 896 1376 896 c 2,124,-1
 1696 896 l 2,125,126
 1736 896 1736 896 1764 868 c 128,-1,127
 1792 840 1792 840 1792 800 c 2,112,-1
1792 1312 m 2,128,-1
 1792 1120 l 2,129,130
 1792 1080 1792 1080 1764 1052 c 128,-1,131
 1736 1024 1736 1024 1696 1024 c 2,132,-1
 1376 1024 l 2,133,134
 1336 1024 1336 1024 1308 1052 c 128,-1,135
 1280 1080 1280 1080 1280 1120 c 2,136,-1
 1280 1312 l 2,137,138
 1280 1352 1280 1352 1308 1380 c 128,-1,139
 1336 1408 1336 1408 1376 1408 c 2,140,-1
 1696 1408 l 2,141,142
 1736 1408 1736 1408 1764 1380 c 128,-1,143
 1792 1352 1792 1352 1792 1312 c 2,128,-1
EndSplineSet
Validated: 1
EndChar

StartChar: uniEA8B
Encoding: 60043 60043 46
Width: 1792
Flags: W
LayerCount: 2
Fore
SplineSet
512 288 m 2,0,-1
 512 96 l 2,1,2
 512 56 512 56 484 28 c 128,-1,3
 456 0 456 0 416 0 c 2,4,-1
 96 0 l 2,5,6
 56 0 56 0 28 28 c 128,-1,7
 0 56 0 56 0 96 c 2,8,-1
 0 288 l 2,9,10
 0 328 0 328 28 356 c 128,-1,11
 56 384 56 384 96 384 c 2,12,-1
 416 384 l 2,13,14
 456 384 456 384 484 356 c 128,-1,15
 512 328 512 328 512 288 c 2,0,-1
512 800 m 2,16,-1
 512 608 l 2,17,18
 512 568 512 568 484 540 c 128,-1,19
 456 512 456 512 416 512 c 2,20,-1
 96 512 l 2,21,22
 56 512 56 512 28 540 c 128,-1,23
 0 568 0 568 0 608 c 2,24,-1
 0 800 l 2,25,26
 0 840 0 840 28 868 c 128,-1,27
 56 896 56 896 96 896 c 2,28,-1
 416 896 l 2,29,30
 456 896 456 896 484 868 c 128,-1,31
 512 840 512 840 512 800 c 2,16,-1
1792 288 m 2,32,-1
 1792 96 l 2,33,34
 1792 56 1792 56 1764 28 c 128,-1,35
 1736 0 1736 0 1696 0 c 2,36,-1
 736 0 l 2,37,38
 696 0 696 0 668 28 c 128,-1,39
 640 56 640 56 640 96 c 2,40,-1
 640 288 l 2,41,42
 640 328 640 328 668 356 c 128,-1,43
 696 384 696 384 736 384 c 2,44,-1
 1696 384 l 2,45,46
 1736 384 1736 384 1764 356 c 128,-1,47
 1792 328 1792 328 1792 288 c 2,32,-1
512 1312 m 2,48,-1
 512 1120 l 2,49,50
 512 1080 512 1080 484 1052 c 128,-1,51
 456 1024 456 1024 416 1024 c 2,52,-1
 96 1024 l 2,53,54
 56 1024 56 1024 28 1052 c 128,-1,55
 0 1080 0 1080 0 1120 c 2,56,-1
 0 1312 l 2,57,58
 0 1352 0 1352 28 1380 c 128,-1,59
 56 1408 56 1408 96 1408 c 2,60,-1
 416 1408 l 2,61,62
 456 1408 456 1408 484 1380 c 128,-1,63
 512 1352 512 1352 512 1312 c 2,48,-1
1792 800 m 2,64,-1
 1792 608 l 2,65,66
 1792 568 1792 568 1764 540 c 128,-1,67
 1736 512 1736 512 1696 512 c 2,68,-1
 736 512 l 2,69,70
 696 512 696 512 668 540 c 128,-1,71
 640 568 640 568 640 608 c 2,72,-1
 640 800 l 2,73,74
 640 840 640 840 668 868 c 128,-1,75
 696 896 696 896 736 896 c 2,76,-1
 1696 896 l 2,77,78
 1736 896 1736 896 1764 868 c 128,-1,79
 1792 840 1792 840 1792 800 c 2,64,-1
1792 1312 m 2,80,-1
 1792 1120 l 2,81,82
 1792 1080 1792 1080 1764 1052 c 128,-1,83
 1736 1024 1736 1024 1696 1024 c 2,84,-1
 736 1024 l 2,85,86
 696 1024 696 1024 668 1052 c 128,-1,87
 640 1080 640 1080 640 1120 c 2,88,-1
 640 1312 l 2,89,90
 640 1352 640 1352 668 1380 c 128,-1,91
 696 1408 696 1408 736 1408 c 2,92,-1
 1696 1408 l 2,93,94
 1736 1408 1736 1408 1764 1380 c 128,-1,95
 1792 1352 1792 1352 1792 1312 c 2,80,-1
EndSplineSet
Validated: 1
EndChar

StartChar: uniEA8C
Encoding: 60044 60044 47
Width: 1792
Flags: W
LayerCount: 2
Fore
SplineSet
1792 826 m 1,0,-1
 1792 32 l 2,1,2
 1792 -34 1792 -34 1745 -81 c 128,-1,3
 1698 -128 1698 -128 1632 -128 c 2,4,-1
 160 -128 l 2,5,6
 94 -128 94 -128 47 -81 c 128,-1,7
 0 -34 0 -34 0 32 c 2,8,-1
 0 826 l 1,9,10
 44 777 44 777 101 739 c 0,11,12
 463 493 463 493 598 394 c 0,13,14
 655 352 655 352 690.5 328.5 c 128,-1,15
 726 305 726 305 785 280.5 c 128,-1,16
 844 256 844 256 895 256 c 2,17,-1
 896 256 l 1,18,-1
 897 256 l 2,19,20
 948 256 948 256 1007 280.5 c 128,-1,21
 1066 305 1066 305 1101.5 328.5 c 128,-1,22
 1137 352 1137 352 1194 394 c 0,23,24
 1364 517 1364 517 1692 739 c 0,25,26
 1749 778 1749 778 1792 826 c 1,0,-1
1792 1120 m 0,27,28
 1792 1041 1792 1041 1743 969 c 128,-1,29
 1694 897 1694 897 1621 846 c 0,30,31
 1245 585 1245 585 1153 521 c 0,32,33
 1143 514 1143 514 1110.5 490.5 c 128,-1,34
 1078 467 1078 467 1056.5 452.5 c 128,-1,35
 1035 438 1035 438 1004.5 420 c 128,-1,36
 974 402 974 402 947 393 c 128,-1,37
 920 384 920 384 897 384 c 2,38,-1
 896 384 l 1,39,-1
 895 384 l 2,40,41
 872 384 872 384 845 393 c 128,-1,42
 818 402 818 402 787.5 420 c 128,-1,43
 757 438 757 438 735.5 452.5 c 128,-1,44
 714 467 714 467 681.5 490.5 c 128,-1,45
 649 514 649 514 639 521 c 0,46,47
 548 585 548 585 377 703.5 c 128,-1,48
 206 822 206 822 172 846 c 0,49,50
 110 888 110 888 55 961.5 c 128,-1,51
 0 1035 0 1035 0 1098 c 0,52,53
 0 1176 0 1176 41.5 1228 c 128,-1,54
 83 1280 83 1280 160 1280 c 2,55,-1
 1632 1280 l 2,56,57
 1697 1280 1697 1280 1744.5 1233 c 128,-1,58
 1792 1186 1792 1186 1792 1120 c 0,27,28
EndSplineSet
Validated: 1
EndChar

StartChar: uniEA8D
Encoding: 60045 60045 48
Width: 1408
Flags: W
LayerCount: 2
Fore
SplineSet
1408 131 m 0,0,1
 1408 11 1408 11 1335 -58.5 c 128,-1,2
 1262 -128 1262 -128 1141 -128 c 2,3,-1
 267 -128 l 2,4,5
 146 -128 146 -128 73 -58.5 c 128,-1,6
 0 11 0 11 0 131 c 0,7,8
 0 184 0 184 3.5 234.5 c 128,-1,9
 7 285 7 285 17.5 343.5 c 128,-1,10
 28 402 28 402 44 452 c 128,-1,11
 60 502 60 502 87 549.5 c 128,-1,12
 114 597 114 597 149 630.5 c 128,-1,13
 184 664 184 664 234.5 684 c 128,-1,14
 285 704 285 704 346 704 c 0,15,16
 355 704 355 704 388 682.5 c 128,-1,17
 421 661 421 661 462.5 634.5 c 128,-1,18
 504 608 504 608 570.5 586.5 c 128,-1,19
 637 565 637 565 704 565 c 128,-1,20
 771 565 771 565 837.5 586.5 c 128,-1,21
 904 608 904 608 945.5 634.5 c 128,-1,22
 987 661 987 661 1020 682.5 c 128,-1,23
 1053 704 1053 704 1062 704 c 0,24,25
 1123 704 1123 704 1173.5 684 c 128,-1,26
 1224 664 1224 664 1259 630.5 c 128,-1,27
 1294 597 1294 597 1321 549.5 c 128,-1,28
 1348 502 1348 502 1364 452 c 128,-1,29
 1380 402 1380 402 1390.5 343.5 c 128,-1,30
 1401 285 1401 285 1404.5 234.5 c 128,-1,31
 1408 184 1408 184 1408 131 c 0,0,1
1088 1024 m 128,-1,33
 1088 865 1088 865 975.5 752.5 c 128,-1,34
 863 640 863 640 704 640 c 128,-1,35
 545 640 545 640 432.5 752.5 c 128,-1,36
 320 865 320 865 320 1024 c 128,-1,37
 320 1183 320 1183 432.5 1295.5 c 128,-1,38
 545 1408 545 1408 704 1408 c 128,-1,39
 863 1408 863 1408 975.5 1295.5 c 128,-1,32
 1088 1183 1088 1183 1088 1024 c 128,-1,33
EndSplineSet
Validated: 1
EndChar

StartChar: uniEA8E
Encoding: 60046 60046 49
Width: 1664
Flags: W
LayerCount: 2
Fore
SplineSet
384 64 m 128,-1,1
 384 90 384 90 365 109 c 128,-1,2
 346 128 346 128 320 128 c 128,-1,3
 294 128 294 128 275 109 c 128,-1,4
 256 90 256 90 256 64 c 128,-1,5
 256 38 256 38 275 19 c 128,-1,6
 294 0 294 0 320 0 c 128,-1,7
 346 0 346 0 365 19 c 128,-1,0
 384 38 384 38 384 64 c 128,-1,1
1028 484 m 1,8,-1
 346 -198 l 2,9,10
 309 -235 309 -235 256 -235 c 0,11,12
 204 -235 204 -235 165 -198 c 1,13,-1
 59 -90 l 1,14,15
 21 -54 21 -54 21 0 c 0,16,17
 21 53 21 53 59 91 c 2,18,-1
 740 772 l 1,19,20
 779 674 779 674 854.5 598.5 c 128,-1,21
 930 523 930 523 1028 484 c 1,8,-1
1662 919 m 0,22,23
 1662 880 1662 880 1639 813 c 0,24,25
 1592 679 1592 679 1474.5 595.5 c 128,-1,26
 1357 512 1357 512 1216 512 c 0,27,28
 1031 512 1031 512 899.5 643.5 c 128,-1,29
 768 775 768 775 768 960 c 128,-1,30
 768 1145 768 1145 899.5 1276.5 c 128,-1,31
 1031 1408 1031 1408 1216 1408 c 0,32,33
 1274 1408 1274 1408 1337.5 1391.5 c 128,-1,34
 1401 1375 1401 1375 1445 1345 c 0,35,36
 1461 1334 1461 1334 1461 1317 c 128,-1,37
 1461 1300 1461 1300 1445 1289 c 1,38,-1
 1152 1120 l 1,39,-1
 1152 896 l 1,40,-1
 1345 789 l 1,41,42
 1350 792 1350 792 1424 837.5 c 128,-1,43
 1498 883 1498 883 1559.5 918.5 c 128,-1,44
 1621 954 1621 954 1630 954 c 0,45,46
 1645 954 1645 954 1653.5 944 c 128,-1,47
 1662 934 1662 934 1662 919 c 0,22,23
EndSplineSet
Validated: 1
EndChar

StartChar: uniEA8F
Encoding: 60047 60047 50
Width: 1536
Flags: W
LayerCount: 2
Fore
SplineSet
1024 640 m 128,-1,1
 1024 746 1024 746 949 821 c 128,-1,2
 874 896 874 896 768 896 c 128,-1,3
 662 896 662 896 587 821 c 128,-1,4
 512 746 512 746 512 640 c 128,-1,5
 512 534 512 534 587 459 c 128,-1,6
 662 384 662 384 768 384 c 128,-1,7
 874 384 874 384 949 459 c 128,-1,0
 1024 534 1024 534 1024 640 c 128,-1,1
1536 749 m 2,8,-1
 1536 527 l 2,9,10
 1536 515 1536 515 1528 504 c 128,-1,11
 1520 493 1520 493 1508 491 c 2,12,-1
 1323 463 l 1,13,14
 1304 409 1304 409 1284 372 c 1,15,16
 1319 322 1319 322 1391 234 c 0,17,18
 1401 222 1401 222 1401 209 c 128,-1,19
 1401 196 1401 196 1392 186 c 1,20,21
 1365 149 1365 149 1293 78 c 128,-1,22
 1221 7 1221 7 1199 7 c 0,23,24
 1187 7 1187 7 1173 16 c 1,25,-1
 1035 124 l 1,26,27
 991 101 991 101 944 86 c 1,28,29
 928 -50 928 -50 915 -100 c 0,30,31
 908 -128 908 -128 879 -128 c 2,32,-1
 657 -128 l 2,33,34
 643 -128 643 -128 632.5 -119.5 c 128,-1,35
 622 -111 622 -111 621 -98 c 2,36,-1
 593 86 l 1,37,38
 544 102 544 102 503 123 c 1,39,-1
 362 16 l 1,40,41
 352 7 352 7 337 7 c 0,42,43
 323 7 323 7 312 18 c 0,44,45
 186 132 186 132 147 186 c 0,46,47
 140 196 140 196 140 209 c 0,48,49
 140 221 140 221 148 232 c 0,50,51
 163 253 163 253 199 298.5 c 128,-1,52
 235 344 235 344 253 369 c 1,53,54
 226 419 226 419 212 468 c 1,55,-1
 29 495 l 2,56,57
 16 497 16 497 8 507.5 c 128,-1,58
 0 518 0 518 0 531 c 2,59,-1
 0 753 l 2,60,61
 0 765 0 765 8 776 c 128,-1,62
 16 787 16 787 27 789 c 2,63,-1
 213 817 l 1,64,65
 227 863 227 863 252 909 c 1,66,67
 212 966 212 966 145 1047 c 0,68,69
 135 1059 135 1059 135 1071 c 0,70,71
 135 1081 135 1081 144 1094 c 0,72,73
 170 1130 170 1130 242.5 1201.5 c 128,-1,74
 315 1273 315 1273 337 1273 c 0,75,76
 350 1273 350 1273 363 1263 c 2,77,-1
 501 1156 l 1,78,79
 545 1179 545 1179 592 1194 c 1,80,81
 608 1330 608 1330 621 1380 c 0,82,83
 628 1408 628 1408 657 1408 c 2,84,-1
 879 1408 l 2,85,86
 893 1408 893 1408 903.5 1399.5 c 128,-1,87
 914 1391 914 1391 915 1378 c 2,88,-1
 943 1194 l 1,89,90
 992 1178 992 1178 1033 1157 c 1,91,-1
 1175 1264 l 1,92,93
 1184 1273 1184 1273 1199 1273 c 0,94,95
 1212 1273 1212 1273 1224 1263 c 0,96,97
 1353 1144 1353 1144 1389 1093 c 1,98,99
 1396 1085 1396 1085 1396 1071 c 0,100,101
 1396 1059 1396 1059 1388 1048 c 0,102,103
 1373 1027 1373 1027 1337 981.5 c 128,-1,104
 1301 936 1301 936 1283 911 c 1,105,106
 1309 861 1309 861 1324 813 c 1,107,-1
 1507 785 l 2,108,109
 1520 783 1520 783 1528 772.5 c 128,-1,110
 1536 762 1536 762 1536 749 c 2,8,-1
EndSplineSet
Validated: 1
EndChar

StartChar: uniEA90
Encoding: 60048 60048 51
Width: 1536
Flags: W
LayerCount: 2
Fore
SplineSet
1536 640 m 0,0,1
 1536 484 1536 484 1475 342 c 128,-1,2
 1414 200 1414 200 1311 97 c 128,-1,3
 1208 -6 1208 -6 1066 -67 c 128,-1,4
 924 -128 924 -128 768 -128 c 128,-1,5
 612 -128 612 -128 470 -67 c 128,-1,6
 328 -6 328 -6 225 97 c 128,-1,7
 122 200 122 200 61 342 c 128,-1,8
 0 484 0 484 0 640 c 0,9,10
 0 822 0 822 80.5 983 c 128,-1,11
 161 1144 161 1144 307 1253 c 0,12,13
 350 1285 350 1285 402.5 1278 c 128,-1,14
 455 1271 455 1271 486 1228 c 1,15,16
 518 1186 518 1186 510.5 1133.5 c 128,-1,17
 503 1081 503 1081 461 1049 c 0,18,19
 363 975 363 975 309.5 868 c 128,-1,20
 256 761 256 761 256 640 c 0,21,22
 256 536 256 536 296.5 441.5 c 128,-1,23
 337 347 337 347 406 278 c 128,-1,24
 475 209 475 209 569.5 168.5 c 128,-1,25
 664 128 664 128 768 128 c 128,-1,26
 872 128 872 128 966.5 168.5 c 128,-1,27
 1061 209 1061 209 1130 278 c 128,-1,28
 1199 347 1199 347 1239.5 441.5 c 128,-1,29
 1280 536 1280 536 1280 640 c 0,30,31
 1280 761 1280 761 1226.5 868 c 128,-1,32
 1173 975 1173 975 1075 1049 c 0,33,34
 1033 1081 1033 1081 1025.5 1133.5 c 128,-1,35
 1018 1186 1018 1186 1050 1228 c 1,36,37
 1081 1271 1081 1271 1134 1278 c 128,-1,38
 1187 1285 1187 1285 1229 1253 c 0,39,40
 1375 1144 1375 1144 1455.5 983 c 128,-1,41
 1536 822 1536 822 1536 640 c 0,0,1
896 1408 m 2,42,-1
 896 768 l 2,43,44
 896 716 896 716 858 678 c 128,-1,45
 820 640 820 640 768 640 c 128,-1,46
 716 640 716 640 678 678 c 128,-1,47
 640 716 640 716 640 768 c 2,48,-1
 640 1408 l 2,49,50
 640 1460 640 1460 678 1498 c 128,-1,51
 716 1536 716 1536 768 1536 c 128,-1,52
 820 1536 820 1536 858 1498 c 128,-1,53
 896 1460 896 1460 896 1408 c 2,42,-1
EndSplineSet
Validated: 33
EndChar

StartChar: uniEA91
Encoding: 60049 60049 52
Width: 1536
Flags: W
LayerCount: 2
Fore
SplineSet
1511 480 m 0,0,1
 1511 475 1511 475 1510 473 c 0,2,3
 1446 205 1446 205 1242 38.5 c 128,-1,4
 1038 -128 1038 -128 764 -128 c 0,5,6
 618 -128 618 -128 481.5 -73 c 128,-1,7
 345 -18 345 -18 238 84 c 1,8,-1
 109 -45 l 2,9,10
 90 -64 90 -64 64 -64 c 128,-1,11
 38 -64 38 -64 19 -45 c 128,-1,12
 0 -26 0 -26 0 0 c 2,13,-1
 0 448 l 2,14,15
 0 474 0 474 19 493 c 128,-1,16
 38 512 38 512 64 512 c 2,17,-1
 512 512 l 2,18,19
 538 512 538 512 557 493 c 128,-1,20
 576 474 576 474 576 448 c 128,-1,21
 576 422 576 422 557 403 c 2,22,-1
 420 266 l 1,23,24
 491 200 491 200 581 164 c 128,-1,25
 671 128 671 128 768 128 c 0,26,27
 902 128 902 128 1018 193 c 128,-1,28
 1134 258 1134 258 1204 372 c 0,29,30
 1215 389 1215 389 1257 489 c 1,31,32
 1265 512 1265 512 1287 512 c 2,33,-1
 1479 512 l 2,34,35
 1492 512 1492 512 1501.5 502.5 c 128,-1,36
 1511 493 1511 493 1511 480 c 0,0,1
1536 1280 m 2,37,-1
 1536 832 l 2,38,39
 1536 806 1536 806 1517 787 c 128,-1,40
 1498 768 1498 768 1472 768 c 2,41,-1
 1024 768 l 2,42,43
 998 768 998 768 979 787 c 128,-1,44
 960 806 960 806 960 832 c 128,-1,45
 960 858 960 858 979 877 c 2,46,-1
 1117 1015 l 1,47,48
 969 1152 969 1152 768 1152 c 0,49,50
 634 1152 634 1152 518 1087 c 128,-1,51
 402 1022 402 1022 332 908 c 0,52,53
 321 891 321 891 279 791 c 1,54,55
 271 768 271 768 249 768 c 2,56,-1
 50 768 l 2,57,58
 37 768 37 768 27.5 777.5 c 128,-1,59
 18 787 18 787 18 800 c 2,60,-1
 18 807 l 1,61,62
 83 1075 83 1075 288 1241.5 c 128,-1,63
 493 1408 493 1408 768 1408 c 0,64,65
 914 1408 914 1408 1052 1352.5 c 128,-1,66
 1190 1297 1190 1297 1297 1196 c 1,67,-1
 1427 1325 l 2,68,69
 1446 1344 1446 1344 1472 1344 c 128,-1,70
 1498 1344 1498 1344 1517 1325 c 128,-1,71
 1536 1306 1536 1306 1536 1280 c 2,37,-1
EndSplineSet
Validated: 1
EndChar

StartChar: uniEA92
Encoding: 60050 60050 53
Width: 1792
Flags: W
LayerCount: 2
Fore
SplineSet
1792 416 m 0,0,1
 1792 250 1792 250 1665 -35 c 0,2,3
 1662 -42 1662 -42 1654.5 -59 c 128,-1,4
 1647 -76 1647 -76 1641 -89 c 128,-1,5
 1635 -102 1635 -102 1628 -111 c 0,6,7
 1616 -128 1616 -128 1600 -128 c 0,8,9
 1585 -128 1585 -128 1576.5 -118 c 128,-1,10
 1568 -108 1568 -108 1568 -93 c 0,11,12
 1568 -84 1568 -84 1570.5 -66.5 c 128,-1,13
 1573 -49 1573 -49 1573 -43 c 0,14,15
 1578 25 1578 25 1578 80 c 0,16,17
 1578 181 1578 181 1560.5 261 c 128,-1,18
 1543 341 1543 341 1512 399.5 c 128,-1,19
 1481 458 1481 458 1432 500.5 c 128,-1,20
 1383 543 1383 543 1326.5 570 c 128,-1,21
 1270 597 1270 597 1193.5 612.5 c 128,-1,22
 1117 628 1117 628 1039.5 634 c 128,-1,23
 962 640 962 640 864 640 c 2,24,-1
 640 640 l 1,25,-1
 640 384 l 2,26,27
 640 358 640 358 621 339 c 128,-1,28
 602 320 602 320 576 320 c 128,-1,29
 550 320 550 320 531 339 c 2,30,-1
 19 851 l 2,31,32
 0 870 0 870 0 896 c 128,-1,33
 0 922 0 922 19 941 c 2,34,-1
 531 1453 l 2,35,36
 550 1472 550 1472 576 1472 c 128,-1,37
 602 1472 602 1472 621 1453 c 128,-1,38
 640 1434 640 1434 640 1408 c 2,39,-1
 640 1152 l 1,40,-1
 864 1152 l 2,41,42
 1577 1152 1577 1152 1739 749 c 0,43,44
 1792 615 1792 615 1792 416 c 0,0,1
EndSplineSet
Validated: 1
EndChar

StartChar: uniEA93
Encoding: 60051 60051 54
Width: 1792
Flags: W
LayerCount: 2
Fore
SplineSet
640 454 m 1,0,-1
 640 384 l 2,1,2
 640 342 640 342 601 325 c 0,3,4
 588 320 588 320 576 320 c 0,5,6
 549 320 549 320 531 339 c 2,7,-1
 19 851 l 2,8,9
 0 870 0 870 0 896 c 128,-1,10
 0 922 0 922 19 941 c 2,11,-1
 531 1453 l 1,12,13
 560 1484 560 1484 601 1467 c 0,14,15
 640 1450 640 1450 640 1408 c 2,16,-1
 640 1339 l 1,17,-1
 243 941 l 2,18,19
 224 922 224 922 224 896 c 128,-1,20
 224 870 224 870 243 851 c 2,21,-1
 640 454 l 1,0,-1
1792 416 m 0,22,23
 1792 358 1792 358 1775 282.5 c 128,-1,24
 1758 207 1758 207 1736.5 144.5 c 128,-1,25
 1715 82 1715 82 1688.5 19.5 c 128,-1,26
 1662 -43 1662 -43 1648 -71 c 2,27,-1
 1628 -111 l 2,28,29
 1620 -128 1620 -128 1600 -128 c 0,30,31
 1594 -128 1594 -128 1591 -127 c 0,32,33
 1566 -119 1566 -119 1568 -93 c 0,34,35
 1611 307 1611 307 1462 472 c 0,36,37
 1398 543 1398 543 1291.5 582.5 c 128,-1,38
 1185 622 1185 622 1024 635 c 1,39,-1
 1024 384 l 2,40,41
 1024 342 1024 342 985 325 c 0,42,43
 972 320 972 320 960 320 c 0,44,45
 933 320 933 320 915 339 c 2,46,-1
 403 851 l 2,47,48
 384 870 384 870 384 896 c 128,-1,49
 384 922 384 922 403 941 c 2,50,-1
 915 1453 l 1,51,52
 944 1484 944 1484 985 1467 c 0,53,54
 1024 1450 1024 1450 1024 1408 c 2,55,-1
 1024 1146 l 1,56,57
 1435 1118 1435 1118 1623 925 c 0,58,59
 1792 752 1792 752 1792 416 c 0,22,23
EndSplineSet
Validated: 33
EndChar

StartChar: uniEA94
Encoding: 60052 60052 55
Width: 1792
Flags: W
LayerCount: 2
Fore
SplineSet
1792 896 m 128,-1,1
 1792 870 1792 870 1773 851 c 2,2,-1
 1261 339 l 2,3,4
 1242 320 1242 320 1216 320 c 128,-1,5
 1190 320 1190 320 1171 339 c 128,-1,6
 1152 358 1152 358 1152 384 c 2,7,-1
 1152 640 l 1,8,-1
 928 640 l 2,9,10
 830 640 830 640 752.5 634 c 128,-1,11
 675 628 675 628 598.5 612.5 c 128,-1,12
 522 597 522 597 465.5 570 c 128,-1,13
 409 543 409 543 360 500.5 c 128,-1,14
 311 458 311 458 280 399.5 c 128,-1,15
 249 341 249 341 231.5 261 c 128,-1,16
 214 181 214 181 214 80 c 0,17,18
 214 25 214 25 219 -43 c 0,19,20
 219 -49 219 -49 221.5 -66.5 c 128,-1,21
 224 -84 224 -84 224 -93 c 0,22,23
 224 -108 224 -108 215.5 -118 c 128,-1,24
 207 -128 207 -128 192 -128 c 0,25,26
 176 -128 176 -128 164 -111 c 0,27,28
 157 -102 157 -102 151 -89 c 128,-1,29
 145 -76 145 -76 137.5 -59 c 128,-1,30
 130 -42 130 -42 127 -35 c 0,31,32
 0 250 0 250 0 416 c 0,33,34
 0 615 0 615 53 749 c 0,35,36
 215 1152 215 1152 928 1152 c 2,37,-1
 1152 1152 l 1,38,-1
 1152 1408 l 2,39,40
 1152 1434 1152 1434 1171 1453 c 128,-1,41
 1190 1472 1190 1472 1216 1472 c 128,-1,42
 1242 1472 1242 1472 1261 1453 c 2,43,-1
 1773 941 l 2,44,0
 1792 922 1792 922 1792 896 c 128,-1,1
EndSplineSet
Validated: 1
EndChar

StartChar: uniEA95
Encoding: 60053 60053 56
Width: 1792
Flags: W
LayerCount: 2
Fore
SplineSet
1088 704 m 128,-1,1
 1088 730 1088 730 1069 749 c 128,-1,2
 1050 768 1050 768 1024 768 c 2,3,-1
 768 768 l 2,4,5
 742 768 742 768 723 749 c 128,-1,6
 704 730 704 730 704 704 c 128,-1,7
 704 678 704 678 723 659 c 128,-1,8
 742 640 742 640 768 640 c 2,9,-1
 1024 640 l 2,10,11
 1050 640 1050 640 1069 659 c 128,-1,0
 1088 678 1088 678 1088 704 c 128,-1,1
1664 896 m 2,12,-1
 1664 -64 l 2,13,14
 1664 -90 1664 -90 1645 -109 c 128,-1,15
 1626 -128 1626 -128 1600 -128 c 2,16,-1
 192 -128 l 2,17,18
 166 -128 166 -128 147 -109 c 128,-1,19
 128 -90 128 -90 128 -64 c 2,20,-1
 128 896 l 2,21,22
 128 922 128 922 147 941 c 128,-1,23
 166 960 166 960 192 960 c 2,24,-1
 1600 960 l 2,25,26
 1626 960 1626 960 1645 941 c 128,-1,27
 1664 922 1664 922 1664 896 c 2,12,-1
1728 1344 m 2,28,-1
 1728 1088 l 2,29,30
 1728 1062 1728 1062 1709 1043 c 128,-1,31
 1690 1024 1690 1024 1664 1024 c 2,32,-1
 128 1024 l 2,33,34
 102 1024 102 1024 83 1043 c 128,-1,35
 64 1062 64 1062 64 1088 c 2,36,-1
 64 1344 l 2,37,38
 64 1370 64 1370 83 1389 c 128,-1,39
 102 1408 102 1408 128 1408 c 2,40,-1
 1664 1408 l 2,41,42
 1690 1408 1690 1408 1709 1389 c 128,-1,43
 1728 1370 1728 1370 1728 1344 c 2,28,-1
EndSplineSet
Validated: 1
EndChar

StartChar: uniEA96
Encoding: 60054 60054 57
Width: 1408
Flags: W
LayerCount: 2
Fore
SplineSet
512 800 m 2,0,-1
 512 224 l 2,1,2
 512 210 512 210 503 201 c 128,-1,3
 494 192 494 192 480 192 c 2,4,-1
 416 192 l 2,5,6
 402 192 402 192 393 201 c 128,-1,7
 384 210 384 210 384 224 c 2,8,-1
 384 800 l 2,9,10
 384 814 384 814 393 823 c 128,-1,11
 402 832 402 832 416 832 c 2,12,-1
 480 832 l 2,13,14
 494 832 494 832 503 823 c 128,-1,15
 512 814 512 814 512 800 c 2,0,-1
768 800 m 2,16,-1
 768 224 l 2,17,18
 768 210 768 210 759 201 c 128,-1,19
 750 192 750 192 736 192 c 2,20,-1
 672 192 l 2,21,22
 658 192 658 192 649 201 c 128,-1,23
 640 210 640 210 640 224 c 2,24,-1
 640 800 l 2,25,26
 640 814 640 814 649 823 c 128,-1,27
 658 832 658 832 672 832 c 2,28,-1
 736 832 l 2,29,30
 750 832 750 832 759 823 c 128,-1,31
 768 814 768 814 768 800 c 2,16,-1
1024 800 m 2,32,-1
 1024 224 l 2,33,34
 1024 210 1024 210 1015 201 c 128,-1,35
 1006 192 1006 192 992 192 c 2,36,-1
 928 192 l 2,37,38
 914 192 914 192 905 201 c 128,-1,39
 896 210 896 210 896 224 c 2,40,-1
 896 800 l 2,41,42
 896 814 896 814 905 823 c 128,-1,43
 914 832 914 832 928 832 c 2,44,-1
 992 832 l 2,45,46
 1006 832 1006 832 1015 823 c 128,-1,47
 1024 814 1024 814 1024 800 c 2,32,-1
1152 76 m 2,48,-1
 1152 1024 l 1,49,-1
 256 1024 l 1,50,-1
 256 76 l 2,51,52
 256 54 256 54 263 35.5 c 128,-1,53
 270 17 270 17 277.5 8.5 c 128,-1,54
 285 0 285 0 288 0 c 2,55,-1
 1120 0 l 2,56,57
 1123 0 1123 0 1130.5 8.5 c 128,-1,58
 1138 17 1138 17 1145 35.5 c 128,-1,59
 1152 54 1152 54 1152 76 c 2,48,-1
480 1152 m 1,60,-1
 928 1152 l 1,61,-1
 880 1269 l 1,62,63
 873 1278 873 1278 863 1280 c 1,64,-1
 546 1280 l 1,65,66
 536 1278 536 1278 529 1269 c 1,67,-1
 480 1152 l 1,60,-1
1408 1120 m 2,68,-1
 1408 1056 l 2,69,70
 1408 1042 1408 1042 1399 1033 c 128,-1,71
 1390 1024 1390 1024 1376 1024 c 2,72,-1
 1280 1024 l 1,73,-1
 1280 76 l 2,74,75
 1280 -7 1280 -7 1233 -67.5 c 128,-1,76
 1186 -128 1186 -128 1120 -128 c 2,77,-1
 288 -128 l 2,78,79
 222 -128 222 -128 175 -69.5 c 128,-1,80
 128 -11 128 -11 128 72 c 2,81,-1
 128 1024 l 1,82,-1
 32 1024 l 2,83,84
 18 1024 18 1024 9 1033 c 128,-1,85
 0 1042 0 1042 0 1056 c 2,86,-1
 0 1120 l 2,87,88
 0 1134 0 1134 9 1143 c 128,-1,89
 18 1152 18 1152 32 1152 c 2,90,-1
 341 1152 l 1,91,-1
 411 1319 l 2,92,93
 426 1356 426 1356 465 1382 c 128,-1,94
 504 1408 504 1408 544 1408 c 2,95,-1
 864 1408 l 2,96,97
 904 1408 904 1408 943 1382 c 128,-1,98
 982 1356 982 1356 997 1319 c 2,99,-1
 1067 1152 l 1,100,-1
 1376 1152 l 2,101,102
 1390 1152 1390 1152 1399 1143 c 128,-1,103
 1408 1134 1408 1134 1408 1120 c 2,68,-1
EndSplineSet
Validated: 1
EndChar

StartChar: uniEA97
Encoding: 60055 60055 58
Width: 1792
Flags: W
LayerCount: 2
Fore
SplineSet
836 367 m 1,0,-1
 821 -1 l 1,1,-1
 819 -23 l 1,2,-1
 399 6 l 2,3,4
 363 9 363 9 332 37.5 c 128,-1,5
 301 66 301 66 285 103 c 0,6,7
 274 130 274 130 270.5 158 c 128,-1,8
 267 186 267 186 274.5 223 c 128,-1,9
 282 260 282 260 286.5 278 c 128,-1,10
 291 296 291 296 308 342 c 128,-1,11
 325 388 325 388 327 395 c 1,12,13
 405 383 405 383 836 367 c 1,0,-1
449 953 m 1,14,-1
 629 574 l 1,15,-1
 482 666 l 1,16,17
 419 594 419 594 370.5 521.5 c 128,-1,18
 322 449 322 449 298 396.5 c 128,-1,19
 274 344 274 344 258.5 302 c 128,-1,20
 243 260 243 260 240 239 c 2,21,-1
 236 218 l 1,22,-1
 46 575 l 1,23,24
 29 601 29 601 28 631 c 128,-1,25
 27 661 27 661 34 678 c 2,26,-1
 42 696 l 1,27,28
 77 759 77 759 156 884 c 1,29,-1
 16 970 l 1,30,-1
 449 953 l 1,14,-1
1680 436 m 1,31,-1
 1492 77 l 1,32,33
 1480 48 1480 48 1455.5 30.5 c 128,-1,34
 1431 13 1431 13 1412 10 c 1,35,-1
 1394 6 l 1,36,37
 1323 -1 1323 -1 1175 -6 c 1,38,-1
 1183 -170 l 1,39,-1
 953 197 l 1,40,-1
 1164 559 l 1,41,-1
 1171 386 l 1,42,43
 1341 370 1341 370 1454 381 c 128,-1,44
 1567 392 1567 392 1624 414 c 2,45,-1
 1680 436 l 1,31,-1
895 1360 m 1,46,47
 848 1297 848 1297 630 925 c 1,48,-1
 313 1112 l 1,49,-1
 294 1124 l 1,50,-1
 519 1480 l 2,51,52
 539 1511 539 1511 579 1525 c 128,-1,53
 619 1539 619 1539 659 1535 c 0,54,55
 683 1533 683 1533 707.5 1523 c 128,-1,56
 732 1513 732 1513 749.5 1502 c 128,-1,57
 767 1491 767 1491 791 1469 c 128,-1,58
 815 1447 815 1447 827 1434.5 c 128,-1,59
 839 1422 839 1422 863 1395 c 128,-1,60
 887 1368 887 1368 895 1360 c 1,46,47
1550 1053 m 1,61,-1
 1762 690 l 1,62,63
 1780 653 1780 653 1774.5 614 c 128,-1,64
 1769 575 1769 575 1747 540 c 0,65,66
 1734 520 1734 520 1714 503 c 128,-1,67
 1694 486 1694 486 1676 475 c 128,-1,68
 1658 464 1658 464 1627.5 453 c 128,-1,69
 1597 442 1597 442 1580.5 437 c 128,-1,70
 1564 432 1564 432 1529 423 c 128,-1,71
 1494 414 1494 414 1483 411 c 1,72,73
 1449 483 1449 483 1218 847 c 1,74,-1
 1531 1042 l 1,75,-1
 1550 1053 l 1,61,-1
1407 1279 m 1,76,-1
 1549 1362 l 1,77,-1
 1329 989 l 1,78,-1
 910 1009 l 1,79,-1
 1061 1095 l 1,80,81
 1027 1184 1027 1184 986 1261 c 128,-1,82
 945 1338 945 1338 910.5 1384.5 c 128,-1,83
 876 1431 876 1431 846 1464.5 c 128,-1,84
 816 1498 816 1498 799 1511 c 2,85,-1
 782 1524 l 1,86,-1
 1187 1523 l 1,87,88
 1218 1526 1218 1526 1245 1512.5 c 128,-1,89
 1272 1499 1272 1499 1284 1484 c 2,90,-1
 1295 1469 l 1,91,92
 1334 1408 1334 1408 1407 1279 c 1,76,-1
EndSplineSet
Validated: 33
EndChar

StartChar: uniEA98
Encoding: 60056 60056 59
Width: 1536
Flags: W
LayerCount: 2
Fore
SplineSet
448 1088 m 128,-1,1
 448 1141 448 1141 410.5 1178.5 c 128,-1,2
 373 1216 373 1216 320 1216 c 128,-1,3
 267 1216 267 1216 229.5 1178.5 c 128,-1,4
 192 1141 192 1141 192 1088 c 128,-1,5
 192 1035 192 1035 229.5 997.5 c 128,-1,6
 267 960 267 960 320 960 c 128,-1,7
 373 960 373 960 410.5 997.5 c 128,-1,0
 448 1035 448 1035 448 1088 c 128,-1,1
1515 512 m 0,8,9
 1515 459 1515 459 1478 422 c 2,10,-1
 987 -70 l 1,11,12
 948 -107 948 -107 896 -107 c 0,13,14
 843 -107 843 -107 806 -70 c 2,15,-1
 91 646 l 2,16,17
 53 683 53 683 26.5 747 c 128,-1,18
 0 811 0 811 0 864 c 2,19,-1
 0 1280 l 2,20,21
 0 1332 0 1332 38 1370 c 128,-1,22
 76 1408 76 1408 128 1408 c 2,23,-1
 544 1408 l 2,24,25
 597 1408 597 1408 661 1381.5 c 128,-1,26
 725 1355 725 1355 763 1317 c 2,27,-1
 1478 603 l 1,28,29
 1515 564 1515 564 1515 512 c 0,8,9
EndSplineSet
Validated: 1
EndChar

StartChar: uniEA99
Encoding: 60057 60057 60
Width: 1408
Flags: W
LayerCount: 2
Fore
SplineSet
384 800 m 2,0,-1
 384 608 l 2,1,2
 384 568 384 568 356 540 c 128,-1,3
 328 512 328 512 288 512 c 2,4,-1
 96 512 l 2,5,6
 56 512 56 512 28 540 c 128,-1,7
 0 568 0 568 0 608 c 2,8,-1
 0 800 l 2,9,10
 0 840 0 840 28 868 c 128,-1,11
 56 896 56 896 96 896 c 2,12,-1
 288 896 l 2,13,14
 328 896 328 896 356 868 c 128,-1,15
 384 840 384 840 384 800 c 2,0,-1
896 800 m 2,16,-1
 896 608 l 2,17,18
 896 568 896 568 868 540 c 128,-1,19
 840 512 840 512 800 512 c 2,20,-1
 608 512 l 2,21,22
 568 512 568 512 540 540 c 128,-1,23
 512 568 512 568 512 608 c 2,24,-1
 512 800 l 2,25,26
 512 840 512 840 540 868 c 128,-1,27
 568 896 568 896 608 896 c 2,28,-1
 800 896 l 2,29,30
 840 896 840 896 868 868 c 128,-1,31
 896 840 896 840 896 800 c 2,16,-1
1408 800 m 2,32,-1
 1408 608 l 2,33,34
 1408 568 1408 568 1380 540 c 128,-1,35
 1352 512 1352 512 1312 512 c 2,36,-1
 1120 512 l 2,37,38
 1080 512 1080 512 1052 540 c 128,-1,39
 1024 568 1024 568 1024 608 c 2,40,-1
 1024 800 l 2,41,42
 1024 840 1024 840 1052 868 c 128,-1,43
 1080 896 1080 896 1120 896 c 2,44,-1
 1312 896 l 2,45,46
 1352 896 1352 896 1380 868 c 128,-1,47
 1408 840 1408 840 1408 800 c 2,32,-1
EndSplineSet
Validated: 1
EndChar

StartChar: uniEA9A
Encoding: 60058 60058 61
Width: 1920
Flags: W
LayerCount: 2
Fore
SplineSet
1280 608 m 0,0,1
 1280 622 1280 622 1271 631 c 128,-1,2
 1262 640 1262 640 1248 640 c 2,3,-1
 1024 640 l 1,4,-1
 1024 992 l 2,5,6
 1024 1005 1024 1005 1014.5 1014.5 c 128,-1,7
 1005 1024 1005 1024 992 1024 c 2,8,-1
 800 1024 l 2,9,10
 787 1024 787 1024 777.5 1014.5 c 128,-1,11
 768 1005 768 1005 768 992 c 2,12,-1
 768 640 l 1,13,-1
 544 640 l 2,14,15
 531 640 531 640 521.5 630.5 c 128,-1,16
 512 621 512 621 512 608 c 0,17,18
 512 594 512 594 521 585 c 2,19,-1
 873 233 l 2,20,21
 882 224 882 224 896 224 c 128,-1,22
 910 224 910 224 919 233 c 2,23,-1
 1270 584 l 1,24,25
 1280 596 1280 596 1280 608 c 0,0,1
1920 384 m 0,26,27
 1920 225 1920 225 1807.5 112.5 c 128,-1,28
 1695 0 1695 0 1536 0 c 2,29,-1
 448 0 l 2,30,31
 263 0 263 0 131.5 131.5 c 128,-1,32
 0 263 0 263 0 448 c 0,33,34
 0 578 0 578 70 688 c 128,-1,35
 140 798 140 798 258 853 c 1,36,37
 256 883 256 883 256 896 c 0,38,39
 256 1108 256 1108 406 1258 c 128,-1,40
 556 1408 556 1408 768 1408 c 0,41,42
 924 1408 924 1408 1053.5 1321 c 128,-1,43
 1183 1234 1183 1234 1242 1090 c 1,44,45
 1313 1152 1313 1152 1408 1152 c 0,46,47
 1514 1152 1514 1152 1589 1077 c 128,-1,48
 1664 1002 1664 1002 1664 896 c 0,49,50
 1664 820 1664 820 1623 758 c 1,51,52
 1753 727 1753 727 1836.5 622.5 c 128,-1,53
 1920 518 1920 518 1920 384 c 0,26,27
EndSplineSet
Validated: 1
EndChar

StartChar: uniEA9B
Encoding: 60059 60059 62
Width: 1920
Flags: W
LayerCount: 2
Fore
SplineSet
1879 584 m 0,0,1
 1879 553 1879 553 1848 518 c 2,2,-1
 1512 122 l 2,3,4
 1469 71 1469 71 1391.5 35.5 c 128,-1,5
 1314 0 1314 0 1248 0 c 2,6,-1
 160 0 l 2,7,8
 126 0 126 0 99.5 13 c 128,-1,9
 73 26 73 26 73 56 c 0,10,11
 73 87 73 87 104 122 c 2,12,-1
 440 518 l 2,13,14
 483 569 483 569 560.5 604.5 c 128,-1,15
 638 640 638 640 704 640 c 2,16,-1
 1792 640 l 2,17,18
 1826 640 1826 640 1852.5 627 c 128,-1,19
 1879 614 1879 614 1879 584 c 0,0,1
1536 928 m 2,20,-1
 1536 768 l 1,21,-1
 704 768 l 2,22,23
 610 768 610 768 507 720.5 c 128,-1,24
 404 673 404 673 343 601 c 2,25,-1
 6 205 l 1,26,-1
 1 199 l 1,27,28
 1 203 1 203 0.5 211.5 c 128,-1,29
 0 220 0 220 0 224 c 2,30,-1
 0 1184 l 2,31,32
 0 1276 0 1276 66 1342 c 128,-1,33
 132 1408 132 1408 224 1408 c 2,34,-1
 544 1408 l 2,35,36
 636 1408 636 1408 702 1342 c 128,-1,37
 768 1276 768 1276 768 1184 c 2,38,-1
 768 1152 l 1,39,-1
 1312 1152 l 2,40,41
 1404 1152 1404 1152 1470 1086 c 128,-1,42
 1536 1020 1536 1020 1536 928 c 2,20,-1
EndSplineSet
Validated: 1
EndChar

StartChar: uniEA9C
Encoding: 60060 60060 63
Width: 1664
Flags: W
LayerCount: 2
Fore
SplineSet
384 0 m 1,0,-1
 1280 0 l 1,1,-1
 1280 256 l 1,2,-1
 384 256 l 1,3,-1
 384 0 l 1,0,-1
384 640 m 1,4,-1
 1280 640 l 1,5,-1
 1280 1024 l 1,6,-1
 1120 1024 l 2,7,8
 1080 1024 1080 1024 1052 1052 c 128,-1,9
 1024 1080 1024 1080 1024 1120 c 2,10,-1
 1024 1280 l 1,11,-1
 384 1280 l 1,12,-1
 384 640 l 1,4,-1
1536 576 m 128,-1,14
 1536 602 1536 602 1517 621 c 128,-1,15
 1498 640 1498 640 1472 640 c 128,-1,16
 1446 640 1446 640 1427 621 c 128,-1,17
 1408 602 1408 602 1408 576 c 128,-1,18
 1408 550 1408 550 1427 531 c 128,-1,19
 1446 512 1446 512 1472 512 c 128,-1,20
 1498 512 1498 512 1517 531 c 128,-1,13
 1536 550 1536 550 1536 576 c 128,-1,14
1664 576 m 2,21,-1
 1664 160 l 2,22,23
 1664 147 1664 147 1654.5 137.5 c 128,-1,24
 1645 128 1645 128 1632 128 c 2,25,-1
 1408 128 l 1,26,-1
 1408 -32 l 2,27,28
 1408 -72 1408 -72 1380 -100 c 128,-1,29
 1352 -128 1352 -128 1312 -128 c 2,30,-1
 352 -128 l 2,31,32
 312 -128 312 -128 284 -100 c 128,-1,33
 256 -72 256 -72 256 -32 c 2,34,-1
 256 128 l 1,35,-1
 32 128 l 2,36,37
 19 128 19 128 9.5 137.5 c 128,-1,38
 0 147 0 147 0 160 c 2,39,-1
 0 576 l 2,40,41
 0 655 0 655 56.5 711.5 c 128,-1,42
 113 768 113 768 192 768 c 2,43,-1
 256 768 l 1,44,-1
 256 1312 l 2,45,46
 256 1352 256 1352 284 1380 c 128,-1,47
 312 1408 312 1408 352 1408 c 2,48,-1
 1024 1408 l 2,49,50
 1064 1408 1064 1408 1112 1388 c 128,-1,51
 1160 1368 1160 1368 1188 1340 c 2,52,-1
 1340 1188 l 2,53,54
 1368 1160 1368 1160 1388 1112 c 128,-1,55
 1408 1064 1408 1064 1408 1024 c 2,56,-1
 1408 768 l 1,57,-1
 1472 768 l 2,58,59
 1551 768 1551 768 1607.5 711.5 c 128,-1,60
 1664 655 1664 655 1664 576 c 2,21,-1
EndSplineSet
Validated: 1
EndChar

StartChar: uniEA9D
Encoding: 60061 60061 64
Width: 1792
Flags: W
LayerCount: 2
Fore
SplineSet
1764 1525 m 0,0,1
 1797 1501 1797 1501 1791 1461 c 2,2,-1
 1535 -75 l 2,3,4
 1530 -104 1530 -104 1503 -120 c 0,5,6
 1489 -128 1489 -128 1472 -128 c 0,7,8
 1461 -128 1461 -128 1448 -123 c 2,9,-1
 995 62 l 1,10,-1
 753 -233 l 2,11,12
 735 -256 735 -256 704 -256 c 0,13,14
 691 -256 691 -256 682 -252 c 0,15,16
 663 -245 663 -245 651.5 -228.5 c 128,-1,17
 640 -212 640 -212 640 -192 c 2,18,-1
 640 157 l 1,19,-1
 1504 1216 l 1,20,-1
 435 291 l 1,21,-1
 40 453 l 1,22,23
 3 467 3 467 0 508 c 0,24,25
 -2 548 -2 548 32 567 c 2,26,-1
 1696 1527 l 2,27,28
 1711 1536 1711 1536 1728 1536 c 0,29,30
 1748 1536 1748 1536 1764 1525 c 0,0,1
EndSplineSet
Validated: 33
EndChar

StartChar: uniEA9E
Encoding: 60062 60062 65
Width: 1536
Flags: W
LayerCount: 2
Fore
SplineSet
384 0 m 1,0,-1
 1152 0 l 1,1,-1
 1152 384 l 1,2,-1
 384 384 l 1,3,-1
 384 0 l 1,0,-1
1280 0 m 1,4,-1
 1408 0 l 1,5,-1
 1408 896 l 2,6,7
 1408 910 1408 910 1398 934.5 c 128,-1,8
 1388 959 1388 959 1378 969 c 2,9,-1
 1097 1250 l 2,10,11
 1087 1260 1087 1260 1063 1270 c 128,-1,12
 1039 1280 1039 1280 1024 1280 c 1,13,-1
 1024 864 l 2,14,15
 1024 824 1024 824 996 796 c 128,-1,16
 968 768 968 768 928 768 c 2,17,-1
 352 768 l 2,18,19
 312 768 312 768 284 796 c 128,-1,20
 256 824 256 824 256 864 c 2,21,-1
 256 1280 l 1,22,-1
 128 1280 l 1,23,-1
 128 0 l 1,24,-1
 256 0 l 1,25,-1
 256 416 l 2,26,27
 256 456 256 456 284 484 c 128,-1,28
 312 512 312 512 352 512 c 2,29,-1
 1184 512 l 2,30,31
 1224 512 1224 512 1252 484 c 128,-1,32
 1280 456 1280 456 1280 416 c 2,33,-1
 1280 0 l 1,4,-1
896 928 m 2,34,-1
 896 1248 l 2,35,36
 896 1261 896 1261 886.5 1270.5 c 128,-1,37
 877 1280 877 1280 864 1280 c 2,38,-1
 672 1280 l 2,39,40
 659 1280 659 1280 649.5 1270.5 c 128,-1,41
 640 1261 640 1261 640 1248 c 2,42,-1
 640 928 l 2,43,44
 640 915 640 915 649.5 905.5 c 128,-1,45
 659 896 659 896 672 896 c 2,46,-1
 864 896 l 2,47,48
 877 896 877 896 886.5 905.5 c 128,-1,49
 896 915 896 915 896 928 c 2,34,-1
1536 896 m 2,50,-1
 1536 -32 l 2,51,52
 1536 -72 1536 -72 1508 -100 c 128,-1,53
 1480 -128 1480 -128 1440 -128 c 2,54,-1
 96 -128 l 2,55,56
 56 -128 56 -128 28 -100 c 128,-1,57
 0 -72 0 -72 0 -32 c 2,58,-1
 0 1312 l 2,59,60
 0 1352 0 1352 28 1380 c 128,-1,61
 56 1408 56 1408 96 1408 c 2,62,-1
 1024 1408 l 2,63,64
 1064 1408 1064 1408 1112 1388 c 128,-1,65
 1160 1368 1160 1368 1188 1340 c 2,66,-1
 1468 1060 l 2,67,68
 1496 1032 1496 1032 1516 984 c 128,-1,69
 1536 936 1536 936 1536 896 c 2,50,-1
EndSplineSet
Validated: 1
EndChar

StartChar: uniEA9F
Encoding: 60063 60063 66
Width: 1664
Flags: W
LayerCount: 2
Fore
SplineSet
1408 606 m 2,0,-1
 1408 288 l 2,1,2
 1408 169 1408 169 1323.5 84.5 c 128,-1,3
 1239 0 1239 0 1120 0 c 2,4,-1
 288 0 l 2,5,6
 169 0 169 0 84.5 84.5 c 128,-1,7
 0 169 0 169 0 288 c 2,8,-1
 0 1120 l 2,9,10
 0 1239 0 1239 84.5 1323.5 c 128,-1,11
 169 1408 169 1408 288 1408 c 2,12,-1
 1120 1408 l 2,13,14
 1183 1408 1183 1408 1237 1383 c 0,15,16
 1252 1376 1252 1376 1255 1360 c 0,17,18
 1258 1343 1258 1343 1246 1331 c 2,19,-1
 1197 1282 l 2,20,21
 1187 1272 1187 1272 1174 1272 c 0,22,23
 1171 1272 1171 1272 1165 1274 c 0,24,25
 1142 1280 1142 1280 1120 1280 c 2,26,-1
 288 1280 l 2,27,28
 222 1280 222 1280 175 1233 c 128,-1,29
 128 1186 128 1186 128 1120 c 2,30,-1
 128 288 l 2,31,32
 128 222 128 222 175 175 c 128,-1,33
 222 128 222 128 288 128 c 2,34,-1
 1120 128 l 2,35,36
 1186 128 1186 128 1233 175 c 128,-1,37
 1280 222 1280 222 1280 288 c 2,38,-1
 1280 542 l 2,39,40
 1280 555 1280 555 1289 564 c 2,41,-1
 1353 628 l 2,42,43
 1363 638 1363 638 1376 638 c 0,44,45
 1382 638 1382 638 1388 635 c 0,46,47
 1408 627 1408 627 1408 606 c 2,0,-1
1639 1095 m 2,48,-1
 825 281 l 2,49,50
 801 257 801 257 768 257 c 128,-1,51
 735 257 735 257 711 281 c 2,52,-1
 281 711 l 2,53,54
 257 735 257 735 257 768 c 128,-1,55
 257 801 257 801 281 825 c 2,56,-1
 391 935 l 2,57,58
 415 959 415 959 448 959 c 128,-1,59
 481 959 481 959 505 935 c 2,60,-1
 768 672 l 1,61,-1
 1415 1319 l 2,62,63
 1439 1343 1439 1343 1472 1343 c 128,-1,64
 1505 1343 1505 1343 1529 1319 c 2,65,-1
 1639 1209 l 2,66,67
 1663 1185 1663 1185 1663 1152 c 128,-1,68
 1663 1119 1663 1119 1639 1095 c 2,48,-1
EndSplineSet
Validated: 1
EndChar

StartChar: uniEAA0
Encoding: 60064 60064 67
Width: 1408
Flags: W
LayerCount: 2
Fore
SplineSet
1404 151 m 0,0,1
 1404 34 1404 34 1325 -45 c 128,-1,2
 1246 -124 1246 -124 1129 -124 c 0,3,4
 994 -124 994 -124 894 -24 c 2,5,-1
 117 752 l 1,6,7
 4 867 4 867 4 1023 c 0,8,9
 4 1182 4 1182 114 1293 c 128,-1,10
 224 1404 224 1404 383 1404 c 0,11,12
 541 1404 541 1404 656 1291 c 1,13,-1
 1261 685 l 2,14,15
 1271 675 1271 675 1271 663 c 0,16,17
 1271 647 1271 647 1240.5 616.5 c 128,-1,18
 1210 586 1210 586 1194 586 c 0,19,20
 1181 586 1181 586 1171 596 c 2,21,-1
 565 1203 l 1,22,23
 486 1280 486 1280 384 1280 c 0,24,25
 278 1280 278 1280 205 1205 c 128,-1,26
 132 1130 132 1130 132 1024 c 0,27,28
 132 919 132 919 208 843 c 2,29,-1
 984 66 l 2,30,31
 1047 3 1047 3 1129 3 c 0,32,33
 1193 3 1193 3 1235 45 c 128,-1,34
 1277 87 1277 87 1277 151 c 0,35,36
 1277 233 1277 233 1214 296 c 2,37,-1
 633 877 l 1,38,39
 607 901 607 901 573 901 c 0,40,41
 544 901 544 901 525 882 c 128,-1,42
 506 863 506 863 506 834 c 0,43,44
 506 802 506 802 531 775 c 1,45,-1
 941 365 l 2,46,47
 951 355 951 355 951 343 c 0,48,49
 951 327 951 327 920 296 c 128,-1,50
 889 265 889 265 873 265 c 0,51,52
 861 265 861 265 851 275 c 2,53,-1
 441 685 l 1,54,55
 378 746 378 746 378 834 c 0,56,57
 378 916 378 916 435 973 c 128,-1,58
 492 1030 492 1030 574 1030 c 0,59,60
 662 1030 662 1030 723 967 c 1,61,-1
 1304 386 l 1,62,63
 1404 288 1404 288 1404 151 c 0,0,1
EndSplineSet
Validated: 1
EndChar

StartChar: uniEAA1
Encoding: 60065 60065 68
Width: 1536
Flags: W
LayerCount: 2
Fore
SplineSet
363 0 m 1,0,-1
 454 91 l 1,1,-1
 219 326 l 1,2,-1
 128 235 l 1,3,-1
 128 128 l 1,4,-1
 256 128 l 1,5,-1
 256 0 l 1,6,-1
 363 0 l 1,0,-1
886 928 m 0,7,8
 886 950 886 950 864 950 c 0,9,10
 854 950 854 950 847 943 c 2,11,-1
 305 401 l 2,12,13
 298 394 298 394 298 384 c 0,14,15
 298 362 298 362 320 362 c 0,16,17
 330 362 330 362 337 369 c 2,18,-1
 879 911 l 2,19,20
 886 918 886 918 886 928 c 0,7,8
832 1120 m 1,21,-1
 1248 704 l 1,22,-1
 416 -128 l 1,23,-1
 0 -128 l 1,24,-1
 0 288 l 1,25,-1
 832 1120 l 1,21,-1
1515 1024 m 0,26,27
 1515 971 1515 971 1478 934 c 2,28,-1
 1312 768 l 1,29,-1
 896 1184 l 1,30,-1
 1062 1349 l 1,31,32
 1098 1387 1098 1387 1152 1387 c 0,33,34
 1205 1387 1205 1387 1243 1349 c 2,35,-1
 1478 1115 l 1,36,37
 1515 1076 1515 1076 1515 1024 c 0,26,27
EndSplineSet
Validated: 1
EndChar

StartChar: uniEAA2
Encoding: 60066 60066 69
Width: 1536
Flags: W
LayerCount: 2
Fore
SplineSet
363 0 m 1,0,-1
 454 91 l 1,1,-1
 219 326 l 1,2,-1
 128 235 l 1,3,-1
 128 128 l 1,4,-1
 256 128 l 1,5,-1
 256 0 l 1,6,-1
 363 0 l 1,0,-1
886 928 m 0,7,8
 886 950 886 950 864 950 c 0,9,10
 854 950 854 950 847 943 c 2,11,-1
 305 401 l 2,12,13
 298 394 298 394 298 384 c 0,14,15
 298 362 298 362 320 362 c 0,16,17
 330 362 330 362 337 369 c 2,18,-1
 879 911 l 2,19,20
 886 918 886 918 886 928 c 0,7,8
832 1120 m 1,21,-1
 1248 704 l 1,22,-1
 416 -128 l 1,23,-1
 0 -128 l 1,24,-1
 0 288 l 1,25,-1
 832 1120 l 1,21,-1
1515 1024 m 0,26,27
 1515 971 1515 971 1478 934 c 2,28,-1
 1312 768 l 1,29,-1
 896 1184 l 1,30,-1
 1062 1349 l 1,31,32
 1098 1387 1098 1387 1152 1387 c 0,33,34
 1205 1387 1205 1387 1243 1349 c 2,35,-1
 1478 1115 l 1,36,37
 1515 1076 1515 1076 1515 1024 c 0,26,27
EndSplineSet
Validated: 1
EndChar

StartChar: uniEAA3
Encoding: 60067 60067 70
Width: 1792
Flags: W
LayerCount: 2
Fore
SplineSet
888 352 m 1,0,-1
 1004 468 l 1,1,-1
 852 620 l 1,2,-1
 736 504 l 1,3,-1
 736 448 l 1,4,-1
 832 448 l 1,5,-1
 832 352 l 1,6,-1
 888 352 l 1,0,-1
1328 1072 m 128,-1,8
 1312 1088 1312 1088 1295 1071 c 2,9,-1
 945 721 l 2,10,11
 928 704 928 704 944 688 c 128,-1,12
 960 672 960 672 977 689 c 2,13,-1
 1327 1039 l 2,14,7
 1344 1056 1344 1056 1328 1072 c 128,-1,8
1408 478 m 2,15,-1
 1408 288 l 2,16,17
 1408 169 1408 169 1323.5 84.5 c 128,-1,18
 1239 0 1239 0 1120 0 c 2,19,-1
 288 0 l 2,20,21
 169 0 169 0 84.5 84.5 c 128,-1,22
 0 169 0 169 0 288 c 2,23,-1
 0 1120 l 2,24,25
 0 1239 0 1239 84.5 1323.5 c 128,-1,26
 169 1408 169 1408 288 1408 c 2,27,-1
 1120 1408 l 2,28,29
 1183 1408 1183 1408 1237 1383 c 0,30,31
 1252 1376 1252 1376 1255 1360 c 0,32,33
 1258 1343 1258 1343 1246 1331 c 2,34,-1
 1197 1282 l 2,35,36
 1183 1268 1183 1268 1165 1274 c 1,37,38
 1142 1280 1142 1280 1120 1280 c 2,39,-1
 288 1280 l 2,40,41
 222 1280 222 1280 175 1233 c 128,-1,42
 128 1186 128 1186 128 1120 c 2,43,-1
 128 288 l 2,44,45
 128 222 128 222 175 175 c 128,-1,46
 222 128 222 128 288 128 c 2,47,-1
 1120 128 l 2,48,49
 1186 128 1186 128 1233 175 c 128,-1,50
 1280 222 1280 222 1280 288 c 2,51,-1
 1280 414 l 2,52,53
 1280 427 1280 427 1289 436 c 2,54,-1
 1353 500 l 2,55,56
 1368 515 1368 515 1388 507 c 128,-1,57
 1408 499 1408 499 1408 478 c 2,15,-1
1312 1216 m 1,58,-1
 1600 928 l 1,59,-1
 928 256 l 1,60,-1
 640 256 l 1,61,-1
 640 544 l 1,62,-1
 1312 1216 l 1,58,-1
1756 1084 m 2,63,-1
 1664 992 l 1,64,-1
 1376 1280 l 1,65,-1
 1468 1372 l 2,66,67
 1496 1400 1496 1400 1536 1400 c 128,-1,68
 1576 1400 1576 1400 1604 1372 c 2,69,-1
 1756 1220 l 2,70,71
 1784 1192 1784 1192 1784 1152 c 128,-1,72
 1784 1112 1784 1112 1756 1084 c 2,63,-1
EndSplineSet
Validated: 1
EndChar

StartChar: uniEAA4
Encoding: 60068 60068 71
Width: 1280
Flags: W
LayerCount: 2
Fore
SplineSet
1152 1280 m 1,0,-1
 128 1280 l 1,1,-1
 128 38 l 1,2,-1
 551 444 l 1,3,-1
 640 529 l 1,4,-1
 729 444 l 1,5,-1
 1152 38 l 1,6,-1
 1152 1280 l 1,0,-1
1164 1408 m 2,7,8
 1187 1408 1187 1408 1208 1399 c 0,9,10
 1241 1386 1241 1386 1260.5 1358 c 128,-1,11
 1280 1330 1280 1330 1280 1296 c 2,12,-1
 1280 7 l 2,13,14
 1280 -27 1280 -27 1260.5 -55 c 128,-1,15
 1241 -83 1241 -83 1208 -96 c 0,16,17
 1189 -104 1189 -104 1164 -104 c 0,18,19
 1116 -104 1116 -104 1081 -72 c 1,20,-1
 640 352 l 1,21,-1
 199 -72 l 1,22,23
 163 -105 163 -105 116 -105 c 0,24,25
 93 -105 93 -105 72 -96 c 0,26,27
 39 -83 39 -83 19.5 -55 c 128,-1,28
 0 -27 0 -27 0 7 c 2,29,-1
 0 1296 l 2,30,31
 0 1330 0 1330 19.5 1358 c 128,-1,32
 39 1386 39 1386 72 1399 c 0,33,34
 93 1408 93 1408 116 1408 c 2,35,-1
 1164 1408 l 2,7,8
EndSplineSet
Validated: 1
EndChar

StartChar: uniEAA5
Encoding: 60069 60069 72
Width: 1792
Flags: W
LayerCount: 2
Fore
SplineSet
384 352 m 2,0,-1
 384 288 l 2,1,2
 384 275 384 275 374.5 265.5 c 128,-1,3
 365 256 365 256 352 256 c 2,4,-1
 288 256 l 2,5,6
 275 256 275 256 265.5 265.5 c 128,-1,7
 256 275 256 275 256 288 c 2,8,-1
 256 352 l 2,9,10
 256 365 256 365 265.5 374.5 c 128,-1,11
 275 384 275 384 288 384 c 2,12,-1
 352 384 l 2,13,14
 365 384 365 384 374.5 374.5 c 128,-1,15
 384 365 384 365 384 352 c 2,0,-1
384 608 m 2,16,-1
 384 544 l 2,17,18
 384 531 384 531 374.5 521.5 c 128,-1,19
 365 512 365 512 352 512 c 2,20,-1
 288 512 l 2,21,22
 275 512 275 512 265.5 521.5 c 128,-1,23
 256 531 256 531 256 544 c 2,24,-1
 256 608 l 2,25,26
 256 621 256 621 265.5 630.5 c 128,-1,27
 275 640 275 640 288 640 c 2,28,-1
 352 640 l 2,29,30
 365 640 365 640 374.5 630.5 c 128,-1,31
 384 621 384 621 384 608 c 2,16,-1
384 864 m 2,32,-1
 384 800 l 2,33,34
 384 787 384 787 374.5 777.5 c 128,-1,35
 365 768 365 768 352 768 c 2,36,-1
 288 768 l 2,37,38
 275 768 275 768 265.5 777.5 c 128,-1,39
 256 787 256 787 256 800 c 2,40,-1
 256 864 l 2,41,42
 256 877 256 877 265.5 886.5 c 128,-1,43
 275 896 275 896 288 896 c 2,44,-1
 352 896 l 2,45,46
 365 896 365 896 374.5 886.5 c 128,-1,47
 384 877 384 877 384 864 c 2,32,-1
1536 352 m 2,48,-1
 1536 288 l 2,49,50
 1536 275 1536 275 1526.5 265.5 c 128,-1,51
 1517 256 1517 256 1504 256 c 2,52,-1
 544 256 l 2,53,54
 531 256 531 256 521.5 265.5 c 128,-1,55
 512 275 512 275 512 288 c 2,56,-1
 512 352 l 2,57,58
 512 365 512 365 521.5 374.5 c 128,-1,59
 531 384 531 384 544 384 c 2,60,-1
 1504 384 l 2,61,62
 1517 384 1517 384 1526.5 374.5 c 128,-1,63
 1536 365 1536 365 1536 352 c 2,48,-1
1536 608 m 2,64,-1
 1536 544 l 2,65,66
 1536 531 1536 531 1526.5 521.5 c 128,-1,67
 1517 512 1517 512 1504 512 c 2,68,-1
 544 512 l 2,69,70
 531 512 531 512 521.5 521.5 c 128,-1,71
 512 531 512 531 512 544 c 2,72,-1
 512 608 l 2,73,74
 512 621 512 621 521.5 630.5 c 128,-1,75
 531 640 531 640 544 640 c 2,76,-1
 1504 640 l 2,77,78
 1517 640 1517 640 1526.5 630.5 c 128,-1,79
 1536 621 1536 621 1536 608 c 2,64,-1
1536 864 m 2,80,-1
 1536 800 l 2,81,82
 1536 787 1536 787 1526.5 777.5 c 128,-1,83
 1517 768 1517 768 1504 768 c 2,84,-1
 544 768 l 2,85,86
 531 768 531 768 521.5 777.5 c 128,-1,87
 512 787 512 787 512 800 c 2,88,-1
 512 864 l 2,89,90
 512 877 512 877 521.5 886.5 c 128,-1,91
 531 896 531 896 544 896 c 2,92,-1
 1504 896 l 2,93,94
 1517 896 1517 896 1526.5 886.5 c 128,-1,95
 1536 877 1536 877 1536 864 c 2,80,-1
1664 160 m 2,96,-1
 1664 992 l 2,97,98
 1664 1005 1664 1005 1654.5 1014.5 c 128,-1,99
 1645 1024 1645 1024 1632 1024 c 2,100,-1
 160 1024 l 2,101,102
 147 1024 147 1024 137.5 1014.5 c 128,-1,103
 128 1005 128 1005 128 992 c 2,104,-1
 128 160 l 2,105,106
 128 147 128 147 137.5 137.5 c 128,-1,107
 147 128 147 128 160 128 c 2,108,-1
 1632 128 l 2,109,110
 1645 128 1645 128 1654.5 137.5 c 128,-1,111
 1664 147 1664 147 1664 160 c 2,96,-1
1792 1248 m 2,112,-1
 1792 160 l 2,113,114
 1792 94 1792 94 1745 47 c 128,-1,115
 1698 0 1698 0 1632 0 c 2,116,-1
 160 0 l 2,117,118
 94 0 94 0 47 47 c 128,-1,119
 0 94 0 94 0 160 c 2,120,-1
 0 1248 l 2,121,122
 0 1314 0 1314 47 1361 c 128,-1,123
 94 1408 94 1408 160 1408 c 2,124,-1
 1632 1408 l 2,125,126
 1698 1408 1698 1408 1745 1361 c 128,-1,127
 1792 1314 1792 1314 1792 1248 c 2,112,-1
EndSplineSet
Validated: 1
EndChar

StartChar: uniEAA6
Encoding: 60070 60070 73
Width: 1664
Flags: W
LayerCount: 2
Fore
SplineSet
1152 704 m 128,-1,1
 1152 889 1152 889 1020.5 1020.5 c 128,-1,2
 889 1152 889 1152 704 1152 c 128,-1,3
 519 1152 519 1152 387.5 1020.5 c 128,-1,4
 256 889 256 889 256 704 c 128,-1,5
 256 519 256 519 387.5 387.5 c 128,-1,6
 519 256 519 256 704 256 c 128,-1,7
 889 256 889 256 1020.5 387.5 c 128,-1,0
 1152 519 1152 519 1152 704 c 128,-1,1
1664 -128 m 0,8,9
 1664 -180 1664 -180 1626 -218 c 128,-1,10
 1588 -256 1588 -256 1536 -256 c 0,11,12
 1482 -256 1482 -256 1446 -218 c 1,13,-1
 1103 124 l 1,14,15
 924 0 924 0 704 0 c 0,16,17
 561 0 561 0 430.5 55.5 c 128,-1,18
 300 111 300 111 205.5 205.5 c 128,-1,19
 111 300 111 300 55.5 430.5 c 128,-1,20
 0 561 0 561 0 704 c 128,-1,21
 0 847 0 847 55.5 977.5 c 128,-1,22
 111 1108 111 1108 205.5 1202.5 c 128,-1,23
 300 1297 300 1297 430.5 1352.5 c 128,-1,24
 561 1408 561 1408 704 1408 c 128,-1,25
 847 1408 847 1408 977.5 1352.5 c 128,-1,26
 1108 1297 1108 1297 1202.5 1202.5 c 128,-1,27
 1297 1108 1297 1108 1352.5 977.5 c 128,-1,28
 1408 847 1408 847 1408 704 c 0,29,30
 1408 484 1408 484 1284 305 c 1,31,-1
 1627 -38 l 2,32,33
 1664 -75 1664 -75 1664 -128 c 0,8,9
EndSplineSet
Validated: 1
EndChar

StartChar: uniEAA7
Encoding: 60071 60071 74
Width: 1536
Flags: W
LayerCount: 2
Fore
SplineSet
1536 192 m 2,0,-1
 1536 64 l 2,1,2
 1536 38 1536 38 1517 19 c 128,-1,3
 1498 0 1498 0 1472 0 c 2,4,-1
 64 0 l 2,5,6
 38 0 38 0 19 19 c 128,-1,7
 0 38 0 38 0 64 c 2,8,-1
 0 192 l 2,9,10
 0 218 0 218 19 237 c 128,-1,11
 38 256 38 256 64 256 c 2,12,-1
 1472 256 l 2,13,14
 1498 256 1498 256 1517 237 c 128,-1,15
 1536 218 1536 218 1536 192 c 2,0,-1
1536 704 m 2,16,-1
 1536 576 l 2,17,18
 1536 550 1536 550 1517 531 c 128,-1,19
 1498 512 1498 512 1472 512 c 2,20,-1
 64 512 l 2,21,22
 38 512 38 512 19 531 c 128,-1,23
 0 550 0 550 0 576 c 2,24,-1
 0 704 l 2,25,26
 0 730 0 730 19 749 c 128,-1,27
 38 768 38 768 64 768 c 2,28,-1
 1472 768 l 2,29,30
 1498 768 1498 768 1517 749 c 128,-1,31
 1536 730 1536 730 1536 704 c 2,16,-1
1536 1216 m 2,32,-1
 1536 1088 l 2,33,34
 1536 1062 1536 1062 1517 1043 c 128,-1,35
 1498 1024 1498 1024 1472 1024 c 2,36,-1
 64 1024 l 2,37,38
 38 1024 38 1024 19 1043 c 128,-1,39
 0 1062 0 1062 0 1088 c 2,40,-1
 0 1216 l 2,41,42
 0 1242 0 1242 19 1261 c 128,-1,43
 38 1280 38 1280 64 1280 c 2,44,-1
 1472 1280 l 2,45,46
 1498 1280 1498 1280 1517 1261 c 128,-1,47
 1536 1242 1536 1242 1536 1216 c 2,32,-1
EndSplineSet
Validated: 1
EndChar

StartChar: uniEAA8
Encoding: 60072 60072 75
Width: 1920
Flags: W
LayerCount: 2
Fore
SplineSet
617 137 m 2,0,-1
 567 87 l 2,1,2
 557 77 557 77 544 77 c 128,-1,3
 531 77 531 77 521 87 c 2,4,-1
 55 553 l 2,5,6
 45 563 45 563 45 576 c 128,-1,7
 45 589 45 589 55 599 c 2,8,-1
 521 1065 l 2,9,10
 531 1075 531 1075 544 1075 c 128,-1,11
 557 1075 557 1075 567 1065 c 2,12,-1
 617 1015 l 2,13,14
 627 1005 627 1005 627 992 c 128,-1,15
 627 979 627 979 617 969 c 2,16,-1
 224 576 l 1,17,-1
 617 183 l 2,18,19
 627 173 627 173 627 160 c 128,-1,20
 627 147 627 147 617 137 c 2,0,-1
1208 1204 m 2,21,-1
 835 -87 l 2,22,23
 831 -100 831 -100 819.5 -106.5 c 128,-1,24
 808 -113 808 -113 796 -109 c 2,25,-1
 734 -92 l 2,26,27
 721 -88 721 -88 714.5 -76.5 c 128,-1,28
 708 -65 708 -65 712 -52 c 2,29,-1
 1085 1239 l 2,30,31
 1089 1252 1089 1252 1100.5 1258.5 c 128,-1,32
 1112 1265 1112 1265 1124 1261 c 2,33,-1
 1186 1244 l 2,34,35
 1199 1240 1199 1240 1205.5 1228.5 c 128,-1,36
 1212 1217 1212 1217 1208 1204 c 2,21,-1
1865 553 m 2,37,-1
 1399 87 l 2,38,39
 1389 77 1389 77 1376 77 c 128,-1,40
 1363 77 1363 77 1353 87 c 2,41,-1
 1303 137 l 2,42,43
 1293 147 1293 147 1293 160 c 128,-1,44
 1293 173 1293 173 1303 183 c 2,45,-1
 1696 576 l 1,46,-1
 1303 969 l 2,47,48
 1293 979 1293 979 1293 992 c 128,-1,49
 1293 1005 1293 1005 1303 1015 c 2,50,-1
 1353 1065 l 2,51,52
 1363 1075 1363 1075 1376 1075 c 128,-1,53
 1389 1075 1389 1075 1399 1065 c 2,54,-1
 1865 599 l 2,55,56
 1875 589 1875 589 1875 576 c 128,-1,57
 1875 563 1875 563 1865 553 c 2,37,-1
EndSplineSet
Validated: 1
EndChar

StartChar: uniEAA9
Encoding: 60073 60073 76
Width: 1664
Flags: W
LayerCount: 2
Fore
SplineSet
439 265 m 2,0,-1
 183 9 l 2,1,2
 173 0 173 0 160 0 c 0,3,4
 148 0 148 0 137 9 c 1,5,6
 128 19 128 19 128 32 c 128,-1,7
 128 45 128 45 137 55 c 2,8,-1
 393 311 l 2,9,10
 403 320 403 320 416 320 c 128,-1,11
 429 320 429 320 439 311 c 1,12,13
 448 301 448 301 448 288 c 128,-1,14
 448 275 448 275 439 265 c 2,0,-1
608 224 m 2,15,-1
 608 -96 l 2,16,17
 608 -110 608 -110 599 -119 c 128,-1,18
 590 -128 590 -128 576 -128 c 128,-1,19
 562 -128 562 -128 553 -119 c 128,-1,20
 544 -110 544 -110 544 -96 c 2,21,-1
 544 224 l 2,22,23
 544 238 544 238 553 247 c 128,-1,24
 562 256 562 256 576 256 c 128,-1,25
 590 256 590 256 599 247 c 128,-1,26
 608 238 608 238 608 224 c 2,15,-1
384 448 m 128,-1,28
 384 434 384 434 375 425 c 128,-1,29
 366 416 366 416 352 416 c 2,30,-1
 32 416 l 2,31,32
 18 416 18 416 9 425 c 128,-1,33
 0 434 0 434 0 448 c 128,-1,34
 0 462 0 462 9 471 c 128,-1,35
 18 480 18 480 32 480 c 2,36,-1
 352 480 l 2,37,38
 366 480 366 480 375 471 c 128,-1,27
 384 462 384 462 384 448 c 128,-1,28
1648 320 m 0,39,40
 1648 200 1648 200 1563 117 c 1,41,-1
 1416 -29 l 2,42,43
 1333 -112 1333 -112 1213 -112 c 0,44,45
 1092 -112 1092 -112 1009 -27 c 1,46,-1
 675 308 l 2,47,48
 654 329 654 329 633 364 c 1,49,-1
 872 382 l 1,50,-1
 1145 108 l 2,51,52
 1172 81 1172 81 1213 80.5 c 128,-1,53
 1254 80 1254 80 1281 107 c 2,54,-1
 1428 253 l 2,55,56
 1456 281 1456 281 1456 320 c 0,57,58
 1456 360 1456 360 1428 388 c 2,59,-1
 1154 663 l 1,60,-1
 1172 902 l 1,61,62
 1207 881 1207 881 1228 860 c 2,63,-1
 1564 524 l 1,64,65
 1648 438 1648 438 1648 320 c 0,39,40
1031 1044 m 1,66,-1
 792 1026 l 1,67,-1
 519 1300 l 2,68,69
 491 1328 491 1328 451 1328 c 0,70,71
 412 1328 412 1328 383 1301 c 1,72,-1
 236 1155 l 2,73,74
 208 1127 208 1127 208 1088 c 0,75,76
 208 1048 208 1048 236 1020 c 2,77,-1
 510 746 l 1,78,-1
 492 506 l 1,79,80
 457 527 457 527 436 548 c 2,81,-1
 100 884 l 1,82,83
 16 970 16 970 16 1088 c 0,84,85
 16 1208 16 1208 101 1291 c 1,86,-1
 248 1437 l 2,87,88
 331 1520 331 1520 451 1520 c 0,89,90
 572 1520 572 1520 655 1435 c 1,91,-1
 989 1100 l 2,92,93
 1010 1079 1010 1079 1031 1044 c 1,66,-1
1664 960 m 128,-1,95
 1664 946 1664 946 1655 937 c 128,-1,96
 1646 928 1646 928 1632 928 c 2,97,-1
 1312 928 l 2,98,99
 1298 928 1298 928 1289 937 c 128,-1,100
 1280 946 1280 946 1280 960 c 128,-1,101
 1280 974 1280 974 1289 983 c 128,-1,102
 1298 992 1298 992 1312 992 c 2,103,-1
 1632 992 l 2,104,105
 1646 992 1646 992 1655 983 c 128,-1,94
 1664 974 1664 974 1664 960 c 128,-1,95
1120 1504 m 2,106,-1
 1120 1184 l 2,107,108
 1120 1170 1120 1170 1111 1161 c 128,-1,109
 1102 1152 1102 1152 1088 1152 c 128,-1,110
 1074 1152 1074 1152 1065 1161 c 128,-1,111
 1056 1170 1056 1170 1056 1184 c 2,112,-1
 1056 1504 l 2,113,114
 1056 1518 1056 1518 1065 1527 c 128,-1,115
 1074 1536 1074 1536 1088 1536 c 128,-1,116
 1102 1536 1102 1536 1111 1527 c 128,-1,117
 1120 1518 1120 1518 1120 1504 c 2,106,-1
1527 1353 m 2,118,-1
 1271 1097 l 1,119,120
 1260 1088 1260 1088 1248 1088 c 128,-1,121
 1236 1088 1236 1088 1225 1097 c 1,122,123
 1216 1107 1216 1107 1216 1120 c 128,-1,124
 1216 1133 1216 1133 1225 1143 c 2,125,-1
 1481 1399 l 2,126,127
 1491 1408 1491 1408 1504 1408 c 128,-1,128
 1517 1408 1517 1408 1527 1399 c 1,129,130
 1536 1389 1536 1389 1536 1376 c 128,-1,131
 1536 1363 1536 1363 1527 1353 c 2,118,-1
EndSplineSet
Validated: 33
EndChar

StartChar: uniEAAA
Encoding: 60074 60074 77
Width: 1664
Flags: W
LayerCount: 2
Fore
SplineSet
1664 889 m 0,0,1
 1664 867 1664 867 1638 841 c 2,2,-1
 1275 487 l 1,3,-1
 1361 -13 l 2,4,5
 1362 -20 1362 -20 1362 -33 c 0,6,7
 1362 -54 1362 -54 1351.5 -68.5 c 128,-1,8
 1341 -83 1341 -83 1321 -83 c 0,9,10
 1302 -83 1302 -83 1281 -71 c 2,11,-1
 832 165 l 1,12,-1
 383 -71 l 2,13,14
 361 -83 361 -83 343 -83 c 0,15,16
 322 -83 322 -83 311.5 -68.5 c 128,-1,17
 301 -54 301 -54 301 -33 c 0,18,19
 301 -27 301 -27 303 -13 c 2,20,-1
 389 487 l 1,21,-1
 25 841 l 1,22,23
 0 868 0 868 0 889 c 0,24,25
 0 926 0 926 56 935 c 2,26,-1
 558 1008 l 1,27,-1
 783 1463 l 1,28,29
 802 1504 802 1504 832 1504 c 128,-1,30
 862 1504 862 1504 881 1463 c 1,31,-1
 1106 1008 l 1,32,-1
 1608 935 l 2,33,34
 1664 926 1664 926 1664 889 c 0,0,1
EndSplineSet
Validated: 1
EndChar

StartChar: uniEAAB
Encoding: 60075 60075 78
Width: 1792
Flags: W
LayerCount: 2
Fore
SplineSet
320 1280 m 0,0,1
 320 1208 320 1208 256 1170 c 1,2,-1
 256 -96 l 2,3,4
 256 -109 256 -109 246.5 -118.5 c 128,-1,5
 237 -128 237 -128 224 -128 c 2,6,-1
 160 -128 l 2,7,8
 147 -128 147 -128 137.5 -118.5 c 128,-1,9
 128 -109 128 -109 128 -96 c 2,10,-1
 128 1170 l 1,11,12
 64 1208 64 1208 64 1280 c 0,13,14
 64 1333 64 1333 101.5 1370.5 c 128,-1,15
 139 1408 139 1408 192 1408 c 128,-1,16
 245 1408 245 1408 282.5 1370.5 c 128,-1,17
 320 1333 320 1333 320 1280 c 0,0,1
1792 1216 m 2,18,-1
 1792 453 l 2,19,20
 1792 428 1792 428 1779.5 414.5 c 128,-1,21
 1767 401 1767 401 1740 387 c 0,22,23
 1525 271 1525 271 1371 271 c 0,24,25
 1310 271 1310 271 1247.5 293 c 128,-1,26
 1185 315 1185 315 1139 341 c 128,-1,27
 1093 367 1093 367 1023.5 389 c 128,-1,28
 954 411 954 411 881 411 c 0,29,30
 689 411 689 411 417 265 c 0,31,32
 400 256 400 256 384 256 c 0,33,34
 358 256 358 256 339 275 c 128,-1,35
 320 294 320 294 320 320 c 2,36,-1
 320 1062 l 2,37,38
 320 1094 320 1094 351 1117 c 1,39,40
 372 1131 372 1131 430 1160 c 0,41,42
 666 1280 666 1280 851 1280 c 0,43,44
 958 1280 958 1280 1051 1251 c 128,-1,45
 1144 1222 1144 1222 1270 1163 c 1,46,47
 1308 1144 1308 1144 1358 1144 c 0,48,49
 1412 1144 1412 1144 1475.5 1165 c 128,-1,50
 1539 1186 1539 1186 1585.5 1212 c 128,-1,51
 1632 1238 1632 1238 1673.5 1259 c 128,-1,52
 1715 1280 1715 1280 1728 1280 c 0,53,54
 1754 1280 1754 1280 1773 1261 c 128,-1,55
 1792 1242 1792 1242 1792 1216 c 2,18,-1
EndSplineSet
Validated: 1
EndChar

StartChar: uniEAAC
Encoding: 60076 60076 79
Width: 1792
Flags: W
LayerCount: 2
Fore
SplineSet
1664 491 m 1,0,-1
 1664 1107 l 1,1,2
 1495 1016 1495 1016 1358 1016 c 0,3,4
 1276 1016 1276 1016 1213 1048 c 1,5,6
 1113 1097 1113 1097 1029 1124.5 c 128,-1,7
 945 1152 945 1152 851 1152 c 0,8,9
 678 1152 678 1152 448 1025 c 1,10,-1
 448 426 l 1,11,12
 693 539 693 539 881 539 c 0,13,14
 936 539 936 539 984.5 531.5 c 128,-1,15
 1033 524 1033 524 1082.5 505.5 c 128,-1,16
 1132 487 1132 487 1159.5 474.5 c 128,-1,17
 1187 462 1187 462 1242 435 c 2,18,-1
 1270 421 l 2,19,20
 1314 399 1314 399 1371 399 c 0,21,22
 1491 399 1491 399 1664 491 c 1,0,-1
320 1280 m 0,23,24
 320 1245 320 1245 302.5 1216 c 128,-1,25
 285 1187 285 1187 256 1170 c 1,26,-1
 256 -96 l 2,27,28
 256 -110 256 -110 247 -119 c 128,-1,29
 238 -128 238 -128 224 -128 c 2,30,-1
 160 -128 l 2,31,32
 146 -128 146 -128 137 -119 c 128,-1,33
 128 -110 128 -110 128 -96 c 2,34,-1
 128 1170 l 1,35,36
 99 1187 99 1187 81.5 1216 c 128,-1,37
 64 1245 64 1245 64 1280 c 0,38,39
 64 1333 64 1333 101.5 1370.5 c 128,-1,40
 139 1408 139 1408 192 1408 c 128,-1,41
 245 1408 245 1408 282.5 1370.5 c 128,-1,42
 320 1333 320 1333 320 1280 c 0,23,24
1792 1216 m 2,43,-1
 1792 453 l 2,44,45
 1792 414 1792 414 1757 396 c 0,46,47
 1747 391 1747 391 1740 387 c 0,48,49
 1522 271 1522 271 1371 271 c 0,50,51
 1283 271 1283 271 1213 306 c 2,52,-1
 1185 320 l 2,53,54
 1121 353 1121 353 1086 368 c 128,-1,55
 1051 383 1051 383 995 397 c 128,-1,56
 939 411 939 411 881 411 c 0,57,58
 779 411 779 411 645.5 367 c 128,-1,59
 512 323 512 323 417 265 c 0,60,61
 402 256 402 256 384 256 c 0,62,63
 368 256 368 256 352 264 c 1,64,65
 320 283 320 283 320 320 c 2,66,-1
 320 1062 l 2,67,68
 320 1097 320 1097 351 1117 c 1,69,70
 386 1138 386 1138 429.5 1159.5 c 128,-1,71
 473 1181 473 1181 543.5 1211.5 c 128,-1,72
 614 1242 614 1242 696 1261 c 128,-1,73
 778 1280 778 1280 851 1280 c 0,74,75
 963 1280 963 1280 1060 1249 c 128,-1,76
 1157 1218 1157 1218 1269 1163 c 0,77,78
 1307 1144 1307 1144 1358 1144 c 0,79,80
 1480 1144 1480 1144 1668 1256 c 0,81,82
 1690 1268 1690 1268 1699 1273 c 0,83,84
 1730 1289 1730 1289 1761 1271 c 1,85,86
 1792 1251 1792 1251 1792 1216 c 2,43,-1
EndSplineSet
Validated: 33
EndChar

StartChar: uniEAAD
Encoding: 60077 60077 80
Width: 1536
Flags: W
LayerCount: 2
Fore
SplineSet
1468 1156 m 2,0,1
 1496 1128 1496 1128 1516 1080 c 128,-1,2
 1536 1032 1536 1032 1536 992 c 2,3,-1
 1536 -160 l 2,4,5
 1536 -200 1536 -200 1508 -228 c 128,-1,6
 1480 -256 1480 -256 1440 -256 c 2,7,-1
 96 -256 l 2,8,9
 56 -256 56 -256 28 -228 c 128,-1,10
 0 -200 0 -200 0 -160 c 2,11,-1
 0 1440 l 2,12,13
 0 1480 0 1480 28 1508 c 128,-1,14
 56 1536 56 1536 96 1536 c 2,15,-1
 992 1536 l 2,16,17
 1032 1536 1032 1536 1080 1516 c 128,-1,18
 1128 1496 1128 1496 1156 1468 c 2,19,-1
 1468 1156 l 2,0,1
1024 1400 m 1,20,-1
 1024 1024 l 1,21,-1
 1400 1024 l 1,22,23
 1390 1053 1390 1053 1378 1065 c 2,24,-1
 1065 1378 l 2,25,26
 1053 1390 1053 1390 1024 1400 c 1,20,-1
1408 -128 m 1,27,-1
 1408 896 l 1,28,-1
 992 896 l 2,29,30
 952 896 952 896 924 924 c 128,-1,31
 896 952 896 952 896 992 c 2,32,-1
 896 1408 l 1,33,-1
 128 1408 l 1,34,-1
 128 -128 l 1,35,-1
 1408 -128 l 1,27,-1
384 736 m 2,36,37
 384 750 384 750 393 759 c 128,-1,38
 402 768 402 768 416 768 c 2,39,-1
 1120 768 l 2,40,41
 1134 768 1134 768 1143 759 c 128,-1,42
 1152 750 1152 750 1152 736 c 2,43,-1
 1152 672 l 2,44,45
 1152 658 1152 658 1143 649 c 128,-1,46
 1134 640 1134 640 1120 640 c 2,47,-1
 416 640 l 2,48,49
 402 640 402 640 393 649 c 128,-1,50
 384 658 384 658 384 672 c 2,51,-1
 384 736 l 2,36,37
1120 512 m 2,52,53
 1134 512 1134 512 1143 503 c 128,-1,54
 1152 494 1152 494 1152 480 c 2,55,-1
 1152 416 l 2,56,57
 1152 402 1152 402 1143 393 c 128,-1,58
 1134 384 1134 384 1120 384 c 2,59,-1
 416 384 l 2,60,61
 402 384 402 384 393 393 c 128,-1,62
 384 402 384 402 384 416 c 2,63,-1
 384 480 l 2,64,65
 384 494 384 494 393 503 c 128,-1,66
 402 512 402 512 416 512 c 2,67,-1
 1120 512 l 2,52,53
1120 256 m 2,68,69
 1134 256 1134 256 1143 247 c 128,-1,70
 1152 238 1152 238 1152 224 c 2,71,-1
 1152 160 l 2,72,73
 1152 146 1152 146 1143 137 c 128,-1,74
 1134 128 1134 128 1120 128 c 2,75,-1
 416 128 l 2,76,77
 402 128 402 128 393 137 c 128,-1,78
 384 146 384 146 384 160 c 2,79,-1
 384 224 l 2,80,81
 384 238 384 238 393 247 c 128,-1,82
 402 256 402 256 416 256 c 2,83,-1
 1120 256 l 2,68,69
EndSplineSet
Validated: 1
EndChar

StartChar: uniEAAE
Encoding: 60078 60078 81
Width: 1536
Flags: W
LayerCount: 2
Fore
SplineSet
755 480 m 128,-1,1
 755 467 755 467 745 457 c 2,2,-1
 413 125 l 1,3,-1
 557 -19 l 2,4,5
 576 -38 576 -38 576 -64 c 128,-1,6
 576 -90 576 -90 557 -109 c 128,-1,7
 538 -128 538 -128 512 -128 c 2,8,-1
 64 -128 l 2,9,10
 38 -128 38 -128 19 -109 c 128,-1,11
 0 -90 0 -90 0 -64 c 2,12,-1
 0 384 l 2,13,14
 0 410 0 410 19 429 c 128,-1,15
 38 448 38 448 64 448 c 128,-1,16
 90 448 90 448 109 429 c 2,17,-1
 253 285 l 1,18,-1
 585 617 l 2,19,20
 595 627 595 627 608 627 c 128,-1,21
 621 627 621 627 631 617 c 2,22,-1
 745 503 l 2,23,0
 755 493 755 493 755 480 c 128,-1,1
1536 1344 m 2,24,-1
 1536 896 l 2,25,26
 1536 870 1536 870 1517 851 c 128,-1,27
 1498 832 1498 832 1472 832 c 128,-1,28
 1446 832 1446 832 1427 851 c 2,29,-1
 1283 995 l 1,30,-1
 951 663 l 2,31,32
 941 653 941 653 928 653 c 128,-1,33
 915 653 915 653 905 663 c 2,34,-1
 791 777 l 2,35,36
 781 787 781 787 781 800 c 128,-1,37
 781 813 781 813 791 823 c 2,38,-1
 1123 1155 l 1,39,-1
 979 1299 l 2,40,41
 960 1318 960 1318 960 1344 c 128,-1,42
 960 1370 960 1370 979 1389 c 128,-1,43
 998 1408 998 1408 1024 1408 c 2,44,-1
 1472 1408 l 2,45,46
 1498 1408 1498 1408 1517 1389 c 128,-1,47
 1536 1370 1536 1370 1536 1344 c 2,24,-1
EndSplineSet
Validated: 1
EndChar

StartChar: uniEAAF
Encoding: 60079 60079 82
Width: 1792
Flags: W
LayerCount: 2
Fore
SplineSet
896 1152 m 128,-1,1
 692 1152 692 1152 514.5 1082.5 c 128,-1,2
 337 1013 337 1013 232.5 895 c 128,-1,3
 128 777 128 777 128 640 c 0,4,5
 128 528 128 528 199.5 426.5 c 128,-1,6
 271 325 271 325 401 251 c 2,7,-1
 488 201 l 1,8,-1
 461 105 l 1,9,10
 437 14 437 14 391 -67 c 1,11,12
 543 -4 543 -4 666 104 c 2,13,-1
 709 142 l 1,14,-1
 766 136 l 2,15,16
 835 128 835 128 896 128 c 0,17,18
 1100 128 1100 128 1277.5 197.5 c 128,-1,19
 1455 267 1455 267 1559.5 385 c 128,-1,20
 1664 503 1664 503 1664 640 c 128,-1,21
 1664 777 1664 777 1559.5 895 c 128,-1,22
 1455 1013 1455 1013 1277.5 1082.5 c 128,-1,0
 1100 1152 1100 1152 896 1152 c 128,-1,1
1792 640 m 128,-1,24
 1792 466 1792 466 1672 318.5 c 128,-1,25
 1552 171 1552 171 1346 85.5 c 128,-1,26
 1140 0 1140 0 896 0 c 0,27,28
 826 0 826 0 751 8 c 1,29,30
 553 -167 553 -167 291 -234 c 1,31,32
 242 -248 242 -248 177 -256 c 1,33,-1
 172 -256 l 2,34,35
 157 -256 157 -256 145 -245.5 c 128,-1,36
 133 -235 133 -235 129 -218 c 1,37,-1
 129 -217 l 1,38,39
 126 -213 126 -213 128.5 -205 c 128,-1,40
 131 -197 131 -197 130.5 -195 c 128,-1,41
 130 -193 130 -193 135 -186 c 2,42,-1
 141 -176 l 2,43,44
 142 -175 142 -175 148 -168 c 128,-1,45
 154 -161 154 -161 156 -159 c 0,46,47
 163 -151 163 -151 187 -124.5 c 128,-1,48
 211 -98 211 -98 221.5 -86.5 c 128,-1,49
 232 -75 232 -75 252.5 -47 c 128,-1,50
 273 -19 273 -19 285 4 c 128,-1,51
 297 27 297 27 312 63 c 128,-1,52
 327 99 327 99 338 139 c 1,53,54
 181 228 181 228 90.5 359 c 128,-1,55
 0 490 0 490 0 640 c 0,56,57
 0 814 0 814 120 961.5 c 128,-1,58
 240 1109 240 1109 446 1194.5 c 128,-1,59
 652 1280 652 1280 896 1280 c 128,-1,60
 1140 1280 1140 1280 1346 1194.5 c 128,-1,61
 1552 1109 1552 1109 1672 961.5 c 128,-1,23
 1792 814 1792 814 1792 640 c 128,-1,24
EndSplineSet
Validated: 1
EndChar

StartChar: uniEAB0
Encoding: 60080 60080 83
Width: 1536
Flags: W
LayerCount: 2
Fore
SplineSet
1312 643 m 4,0,1
 1312 804 1312 804 1225 938 c 5,2,-1
 471 185 l 5,3,4
 608 96 608 96 768 96 c 4,5,6
 879 96 879 96 979.5 139.5 c 132,-1,7
 1080 183 1080 183 1153 256 c 132,-1,8
 1226 329 1226 329 1269 430.5 c 132,-1,9
 1312 532 1312 532 1312 643 c 4,0,1
313 344 m 5,10,-1
 1068 1098 l 5,11,12
 933 1189 933 1189 768 1189 c 4,13,14
 620 1189 620 1189 495 1116 c 132,-1,15
 370 1043 370 1043 297 917 c 132,-1,16
 224 791 224 791 224 643 c 4,17,18
 224 481 224 481 313 344 c 5,10,-1
1536 643 m 132,-1,20
 1536 486 1536 486 1475 343 c 132,-1,21
 1414 200 1414 200 1311.5 97 c 132,-1,22
 1209 -6 1209 -6 1066.5 -67 c 132,-1,23
 924 -128 924 -128 768 -128 c 132,-1,24
 612 -128 612 -128 469.5 -67 c 132,-1,25
 327 -6 327 -6 224.5 97 c 132,-1,26
 122 200 122 200 61 343 c 132,-1,27
 0 486 0 486 0 643 c 132,-1,28
 0 800 0 800 61 942.5 c 132,-1,29
 122 1085 122 1085 224.5 1188 c 132,-1,30
 327 1291 327 1291 469.5 1352 c 132,-1,31
 612 1413 612 1413 768 1413 c 132,-1,32
 924 1413 924 1413 1066.5 1352 c 132,-1,33
 1209 1291 1209 1291 1311.5 1188 c 132,-1,34
 1414 1085 1414 1085 1475 942.5 c 132,-1,19
 1536 800 1536 800 1536 643 c 132,-1,20
EndSplineSet
Validated: 1
EndChar

StartChar: uniEAB1
Encoding: 60081 60081 84
Width: 1536
Flags: W
LayerCount: 2
Fore
SplineSet
896 992 m 2,0,-1
 896 544 l 2,1,2
 896 530 896 530 887 521 c 128,-1,3
 878 512 878 512 864 512 c 2,4,-1
 544 512 l 2,5,6
 530 512 530 512 521 521 c 128,-1,7
 512 530 512 530 512 544 c 2,8,-1
 512 608 l 2,9,10
 512 622 512 622 521 631 c 128,-1,11
 530 640 530 640 544 640 c 2,12,-1
 768 640 l 1,13,-1
 768 992 l 2,14,15
 768 1006 768 1006 777 1015 c 128,-1,16
 786 1024 786 1024 800 1024 c 2,17,-1
 864 1024 l 2,18,19
 878 1024 878 1024 887 1015 c 128,-1,20
 896 1006 896 1006 896 992 c 2,0,-1
1312 640 m 128,-1,22
 1312 788 1312 788 1239 913 c 128,-1,23
 1166 1038 1166 1038 1041 1111 c 128,-1,24
 916 1184 916 1184 768 1184 c 128,-1,25
 620 1184 620 1184 495 1111 c 128,-1,26
 370 1038 370 1038 297 913 c 128,-1,27
 224 788 224 788 224 640 c 128,-1,28
 224 492 224 492 297 367 c 128,-1,29
 370 242 370 242 495 169 c 128,-1,30
 620 96 620 96 768 96 c 128,-1,31
 916 96 916 96 1041 169 c 128,-1,32
 1166 242 1166 242 1239 367 c 128,-1,21
 1312 492 1312 492 1312 640 c 128,-1,22
1536 640 m 128,-1,34
 1536 431 1536 431 1433 254.5 c 128,-1,35
 1330 78 1330 78 1153.5 -25 c 128,-1,36
 977 -128 977 -128 768 -128 c 128,-1,37
 559 -128 559 -128 382.5 -25 c 128,-1,38
 206 78 206 78 103 254.5 c 128,-1,39
 0 431 0 431 0 640 c 128,-1,40
 0 849 0 849 103 1025.5 c 128,-1,41
 206 1202 206 1202 382.5 1305 c 128,-1,42
 559 1408 559 1408 768 1408 c 128,-1,43
 977 1408 977 1408 1153.5 1305 c 128,-1,44
 1330 1202 1330 1202 1433 1025.5 c 128,-1,33
 1536 849 1536 849 1536 640 c 128,-1,34
EndSplineSet
Validated: 1
EndChar

StartChar: uniEAB2
Encoding: 60082 60082 85
Width: 1536
Flags: W
LayerCount: 2
Fore
SplineSet
1216 512 m 0,0,1
 1349 512 1349 512 1442.5 418.5 c 128,-1,2
 1536 325 1536 325 1536 192 c 128,-1,3
 1536 59 1536 59 1442.5 -34.5 c 128,-1,4
 1349 -128 1349 -128 1216 -128 c 128,-1,5
 1083 -128 1083 -128 989.5 -34.5 c 128,-1,6
 896 59 896 59 896 192 c 0,7,8
 896 204 896 204 898 226 c 1,9,-1
 538 406 l 1,10,11
 446 320 446 320 320 320 c 0,12,13
 187 320 187 320 93.5 413.5 c 128,-1,14
 0 507 0 507 0 640 c 128,-1,15
 0 773 0 773 93.5 866.5 c 128,-1,16
 187 960 187 960 320 960 c 0,17,18
 446 960 446 960 538 874 c 1,19,-1
 898 1054 l 1,20,21
 896 1076 896 1076 896 1088 c 0,22,23
 896 1221 896 1221 989.5 1314.5 c 128,-1,24
 1083 1408 1083 1408 1216 1408 c 128,-1,25
 1349 1408 1349 1408 1442.5 1314.5 c 128,-1,26
 1536 1221 1536 1221 1536 1088 c 128,-1,27
 1536 955 1536 955 1442.5 861.5 c 128,-1,28
 1349 768 1349 768 1216 768 c 0,29,30
 1090 768 1090 768 998 854 c 1,31,-1
 638 674 l 1,32,33
 640 652 640 652 640 640 c 128,-1,34
 640 628 640 628 638 606 c 1,35,-1
 998 426 l 1,36,37
 1090 512 1090 512 1216 512 c 0,0,1
EndSplineSet
Validated: 1
EndChar

StartChar: uniEAB3
Encoding: 60083 60083 86
Width: 1536
Flags: W
LayerCount: 2
Fore
SplineSet
768 1184 m 128,-1,1
 620 1184 620 1184 495 1111 c 128,-1,2
 370 1038 370 1038 297 913 c 128,-1,3
 224 788 224 788 224 640 c 128,-1,4
 224 492 224 492 297 367 c 128,-1,5
 370 242 370 242 495 169 c 128,-1,6
 620 96 620 96 768 96 c 128,-1,7
 916 96 916 96 1041 169 c 128,-1,8
 1166 242 1166 242 1239 367 c 128,-1,9
 1312 492 1312 492 1312 640 c 128,-1,10
 1312 788 1312 788 1239 913 c 128,-1,11
 1166 1038 1166 1038 1041 1111 c 128,-1,0
 916 1184 916 1184 768 1184 c 128,-1,1
1536 640 m 128,-1,13
 1536 431 1536 431 1433 254.5 c 128,-1,14
 1330 78 1330 78 1153.5 -25 c 128,-1,15
 977 -128 977 -128 768 -128 c 128,-1,16
 559 -128 559 -128 382.5 -25 c 128,-1,17
 206 78 206 78 103 254.5 c 128,-1,18
 0 431 0 431 0 640 c 128,-1,19
 0 849 0 849 103 1025.5 c 128,-1,20
 206 1202 206 1202 382.5 1305 c 128,-1,21
 559 1408 559 1408 768 1408 c 128,-1,22
 977 1408 977 1408 1153.5 1305 c 128,-1,23
 1330 1202 1330 1202 1433 1025.5 c 128,-1,12
 1536 849 1536 849 1536 640 c 128,-1,13
EndSplineSet
Validated: 1
EndChar

StartChar: uniEAB4
Encoding: 60084 60084 87
Width: 1664
Flags: W
LayerCount: 2
Fore
SplineSet
128 -128 m 1,0,-1
 416 -128 l 1,1,-1
 416 160 l 1,2,-1
 128 160 l 1,3,-1
 128 -128 l 1,0,-1
480 -128 m 1,4,-1
 800 -128 l 1,5,-1
 800 160 l 1,6,-1
 480 160 l 1,7,-1
 480 -128 l 1,4,-1
128 224 m 1,8,-1
 416 224 l 1,9,-1
 416 544 l 1,10,-1
 128 544 l 1,11,-1
 128 224 l 1,8,-1
480 224 m 1,12,-1
 800 224 l 1,13,-1
 800 544 l 1,14,-1
 480 544 l 1,15,-1
 480 224 l 1,12,-1
128 608 m 1,16,-1
 416 608 l 1,17,-1
 416 896 l 1,18,-1
 128 896 l 1,19,-1
 128 608 l 1,16,-1
864 -128 m 1,20,-1
 1184 -128 l 1,21,-1
 1184 160 l 1,22,-1
 864 160 l 1,23,-1
 864 -128 l 1,20,-1
480 608 m 1,24,-1
 800 608 l 1,25,-1
 800 896 l 1,26,-1
 480 896 l 1,27,-1
 480 608 l 1,24,-1
1248 -128 m 1,28,-1
 1536 -128 l 1,29,-1
 1536 160 l 1,30,-1
 1248 160 l 1,31,-1
 1248 -128 l 1,28,-1
864 224 m 1,32,-1
 1184 224 l 1,33,-1
 1184 544 l 1,34,-1
 864 544 l 1,35,-1
 864 224 l 1,32,-1
512 1088 m 2,36,-1
 512 1376 l 2,37,38
 512 1389 512 1389 502.5 1398.5 c 128,-1,39
 493 1408 493 1408 480 1408 c 2,40,-1
 416 1408 l 2,41,42
 403 1408 403 1408 393.5 1398.5 c 128,-1,43
 384 1389 384 1389 384 1376 c 2,44,-1
 384 1088 l 2,45,46
 384 1075 384 1075 393.5 1065.5 c 128,-1,47
 403 1056 403 1056 416 1056 c 2,48,-1
 480 1056 l 2,49,50
 493 1056 493 1056 502.5 1065.5 c 128,-1,51
 512 1075 512 1075 512 1088 c 2,36,-1
1248 224 m 1,52,-1
 1536 224 l 1,53,-1
 1536 544 l 1,54,-1
 1248 544 l 1,55,-1
 1248 224 l 1,52,-1
864 608 m 1,56,-1
 1184 608 l 1,57,-1
 1184 896 l 1,58,-1
 864 896 l 1,59,-1
 864 608 l 1,56,-1
1248 608 m 1,60,-1
 1536 608 l 1,61,-1
 1536 896 l 1,62,-1
 1248 896 l 1,63,-1
 1248 608 l 1,60,-1
1280 1088 m 2,64,-1
 1280 1376 l 2,65,66
 1280 1389 1280 1389 1270.5 1398.5 c 128,-1,67
 1261 1408 1261 1408 1248 1408 c 2,68,-1
 1184 1408 l 2,69,70
 1171 1408 1171 1408 1161.5 1398.5 c 128,-1,71
 1152 1389 1152 1389 1152 1376 c 2,72,-1
 1152 1088 l 2,73,74
 1152 1075 1152 1075 1161.5 1065.5 c 128,-1,75
 1171 1056 1171 1056 1184 1056 c 2,76,-1
 1248 1056 l 2,77,78
 1261 1056 1261 1056 1270.5 1065.5 c 128,-1,79
 1280 1075 1280 1075 1280 1088 c 2,64,-1
1664 1152 m 2,80,-1
 1664 -128 l 2,81,82
 1664 -180 1664 -180 1626 -218 c 128,-1,83
 1588 -256 1588 -256 1536 -256 c 2,84,-1
 128 -256 l 2,85,86
 76 -256 76 -256 38 -218 c 128,-1,87
 0 -180 0 -180 0 -128 c 2,88,-1
 0 1152 l 2,89,90
 0 1204 0 1204 38 1242 c 128,-1,91
 76 1280 76 1280 128 1280 c 2,92,-1
 256 1280 l 1,93,-1
 256 1376 l 2,94,95
 256 1442 256 1442 303 1489 c 128,-1,96
 350 1536 350 1536 416 1536 c 2,97,-1
 480 1536 l 2,98,99
 546 1536 546 1536 593 1489 c 128,-1,100
 640 1442 640 1442 640 1376 c 2,101,-1
 640 1280 l 1,102,-1
 1024 1280 l 1,103,-1
 1024 1376 l 2,104,105
 1024 1442 1024 1442 1071 1489 c 128,-1,106
 1118 1536 1118 1536 1184 1536 c 2,107,-1
 1248 1536 l 2,108,109
 1314 1536 1314 1536 1361 1489 c 128,-1,110
 1408 1442 1408 1442 1408 1376 c 2,111,-1
 1408 1280 l 1,112,-1
 1536 1280 l 2,113,114
 1588 1280 1588 1280 1626 1242 c 128,-1,115
 1664 1204 1664 1204 1664 1152 c 2,80,-1
EndSplineSet
Validated: 1
EndChar

StartChar: uniEAB5
Encoding: 60085 60085 88
Width: 1792
Flags: W
LayerCount: 2
Fore
SplineSet
1303 572 m 2,0,-1
 791 60 l 2,1,2
 781 51 781 51 768 51 c 128,-1,3
 755 51 755 51 745 60 c 2,4,-1
 457 348 l 2,5,6
 448 358 448 358 448 371 c 128,-1,7
 448 384 448 384 457 393 c 2,8,-1
 503 439 l 2,9,10
 512 448 512 448 525 448 c 128,-1,11
 538 448 538 448 548 439 c 2,12,-1
 768 219 l 1,13,-1
 1212 663 l 2,14,15
 1222 672 1222 672 1235 672 c 128,-1,16
 1248 672 1248 672 1257 663 c 2,17,-1
 1303 617 l 2,18,19
 1312 608 1312 608 1312 595 c 128,-1,20
 1312 582 1312 582 1303 572 c 2,0,-1
128 -128 m 1,21,-1
 1536 -128 l 1,22,-1
 1536 896 l 1,23,-1
 128 896 l 1,24,-1
 128 -128 l 1,21,-1
512 1088 m 2,25,-1
 512 1376 l 2,26,27
 512 1390 512 1390 503 1399 c 128,-1,28
 494 1408 494 1408 480 1408 c 2,29,-1
 416 1408 l 2,30,31
 402 1408 402 1408 393 1399 c 128,-1,32
 384 1390 384 1390 384 1376 c 2,33,-1
 384 1088 l 2,34,35
 384 1074 384 1074 393 1065 c 128,-1,36
 402 1056 402 1056 416 1056 c 2,37,-1
 480 1056 l 2,38,39
 494 1056 494 1056 503 1065 c 128,-1,40
 512 1074 512 1074 512 1088 c 2,25,-1
1280 1088 m 2,41,-1
 1280 1376 l 2,42,43
 1280 1390 1280 1390 1271 1399 c 128,-1,44
 1262 1408 1262 1408 1248 1408 c 2,45,-1
 1184 1408 l 2,46,47
 1170 1408 1170 1408 1161 1399 c 128,-1,48
 1152 1390 1152 1390 1152 1376 c 2,49,-1
 1152 1088 l 2,50,51
 1152 1074 1152 1074 1161 1065 c 128,-1,52
 1170 1056 1170 1056 1184 1056 c 2,53,-1
 1248 1056 l 2,54,55
 1262 1056 1262 1056 1271 1065 c 128,-1,56
 1280 1074 1280 1074 1280 1088 c 2,41,-1
1664 1152 m 2,57,-1
 1664 -128 l 2,58,59
 1664 -180 1664 -180 1626 -218 c 128,-1,60
 1588 -256 1588 -256 1536 -256 c 2,61,-1
 128 -256 l 2,62,63
 76 -256 76 -256 38 -218 c 128,-1,64
 0 -180 0 -180 0 -128 c 2,65,-1
 0 1152 l 2,66,67
 0 1204 0 1204 38 1242 c 128,-1,68
 76 1280 76 1280 128 1280 c 2,69,-1
 256 1280 l 1,70,-1
 256 1376 l 2,71,72
 256 1442 256 1442 303 1489 c 128,-1,73
 350 1536 350 1536 416 1536 c 2,74,-1
 480 1536 l 2,75,76
 546 1536 546 1536 593 1489 c 128,-1,77
 640 1442 640 1442 640 1376 c 2,78,-1
 640 1280 l 1,79,-1
 1024 1280 l 1,80,-1
 1024 1376 l 2,81,82
 1024 1442 1024 1442 1071 1489 c 128,-1,83
 1118 1536 1118 1536 1184 1536 c 2,84,-1
 1248 1536 l 2,85,86
 1314 1536 1314 1536 1361 1489 c 128,-1,87
 1408 1442 1408 1442 1408 1376 c 2,88,-1
 1408 1280 l 1,89,-1
 1536 1280 l 2,90,91
 1588 1280 1588 1280 1626 1242 c 128,-1,92
 1664 1204 1664 1204 1664 1152 c 2,57,-1
EndSplineSet
Validated: 1
EndChar

StartChar: uniEAB6
Encoding: 60086 60086 89
Width: 1792
Flags: W
LayerCount: 2
Fore
SplineSet
1536 1280 m 2,0,1
 1588 1280 1588 1280 1626 1242 c 128,-1,2
 1664 1204 1664 1204 1664 1152 c 2,3,-1
 1664 -128 l 2,4,5
 1664 -180 1664 -180 1626 -218 c 128,-1,6
 1588 -256 1588 -256 1536 -256 c 2,7,-1
 128 -256 l 2,8,9
 76 -256 76 -256 38 -218 c 128,-1,10
 0 -180 0 -180 0 -128 c 2,11,-1
 0 1152 l 2,12,13
 0 1204 0 1204 38 1242 c 128,-1,14
 76 1280 76 1280 128 1280 c 2,15,-1
 256 1280 l 1,16,-1
 256 1376 l 2,17,18
 256 1442 256 1442 303 1489 c 128,-1,19
 350 1536 350 1536 416 1536 c 2,20,-1
 480 1536 l 2,21,22
 546 1536 546 1536 593 1489 c 128,-1,23
 640 1442 640 1442 640 1376 c 2,24,-1
 640 1280 l 1,25,-1
 1024 1280 l 1,26,-1
 1024 1376 l 2,27,28
 1024 1442 1024 1442 1071 1489 c 128,-1,29
 1118 1536 1118 1536 1184 1536 c 2,30,-1
 1248 1536 l 2,31,32
 1314 1536 1314 1536 1361 1489 c 128,-1,33
 1408 1442 1408 1442 1408 1376 c 2,34,-1
 1408 1280 l 1,35,-1
 1536 1280 l 2,0,1
1152 1376 m 2,36,-1
 1152 1088 l 2,37,38
 1152 1074 1152 1074 1161 1065 c 128,-1,39
 1170 1056 1170 1056 1184 1056 c 2,40,-1
 1248 1056 l 2,41,42
 1262 1056 1262 1056 1271 1065 c 128,-1,43
 1280 1074 1280 1074 1280 1088 c 2,44,-1
 1280 1376 l 2,45,46
 1280 1390 1280 1390 1271 1399 c 128,-1,47
 1262 1408 1262 1408 1248 1408 c 2,48,-1
 1184 1408 l 2,49,50
 1170 1408 1170 1408 1161 1399 c 128,-1,51
 1152 1390 1152 1390 1152 1376 c 2,36,-1
384 1376 m 2,52,-1
 384 1088 l 2,53,54
 384 1074 384 1074 393 1065 c 128,-1,55
 402 1056 402 1056 416 1056 c 2,56,-1
 480 1056 l 2,57,58
 494 1056 494 1056 503 1065 c 128,-1,59
 512 1074 512 1074 512 1088 c 2,60,-1
 512 1376 l 2,61,62
 512 1390 512 1390 503 1399 c 128,-1,63
 494 1408 494 1408 480 1408 c 2,64,-1
 416 1408 l 2,65,66
 402 1408 402 1408 393 1399 c 128,-1,67
 384 1390 384 1390 384 1376 c 2,52,-1
1536 -128 m 1,68,-1
 1536 896 l 1,69,-1
 128 896 l 1,70,-1
 128 -128 l 1,71,-1
 1536 -128 l 1,68,-1
896 448 m 1,72,-1
 1120 448 l 2,73,74
 1134 448 1134 448 1143 439 c 128,-1,75
 1152 430 1152 430 1152 416 c 2,76,-1
 1152 352 l 2,77,78
 1152 338 1152 338 1143 329 c 128,-1,79
 1134 320 1134 320 1120 320 c 2,80,-1
 896 320 l 1,81,-1
 896 96 l 2,82,83
 896 82 896 82 887 73 c 128,-1,84
 878 64 878 64 864 64 c 2,85,-1
 800 64 l 2,86,87
 786 64 786 64 777 73 c 128,-1,88
 768 82 768 82 768 96 c 2,89,-1
 768 320 l 1,90,-1
 544 320 l 2,91,92
 530 320 530 320 521 329 c 128,-1,93
 512 338 512 338 512 352 c 2,94,-1
 512 416 l 2,95,96
 512 430 512 430 521 439 c 128,-1,97
 530 448 530 448 544 448 c 2,98,-1
 768 448 l 1,99,-1
 768 672 l 2,100,101
 768 686 768 686 777 695 c 128,-1,102
 786 704 786 704 800 704 c 2,103,-1
 864 704 l 2,104,105
 878 704 878 704 887 695 c 128,-1,106
 896 686 896 686 896 672 c 2,107,-1
 896 448 l 1,72,-1
EndSplineSet
Validated: 1
EndChar

StartChar: uniEAB7
Encoding: 60087 60087 90
Width: 1664
Flags: W
LayerCount: 2
Fore
SplineSet
128 -128 m 1,0,-1
 1536 -128 l 1,1,-1
 1536 896 l 1,2,-1
 128 896 l 1,3,-1
 128 -128 l 1,0,-1
512 1088 m 2,4,-1
 512 1376 l 2,5,6
 512 1390 512 1390 503 1399 c 128,-1,7
 494 1408 494 1408 480 1408 c 2,8,-1
 416 1408 l 2,9,10
 402 1408 402 1408 393 1399 c 128,-1,11
 384 1390 384 1390 384 1376 c 2,12,-1
 384 1088 l 2,13,14
 384 1074 384 1074 393 1065 c 128,-1,15
 402 1056 402 1056 416 1056 c 2,16,-1
 480 1056 l 2,17,18
 494 1056 494 1056 503 1065 c 128,-1,19
 512 1074 512 1074 512 1088 c 2,4,-1
1280 1088 m 2,20,-1
 1280 1376 l 2,21,22
 1280 1390 1280 1390 1271 1399 c 128,-1,23
 1262 1408 1262 1408 1248 1408 c 2,24,-1
 1184 1408 l 2,25,26
 1170 1408 1170 1408 1161 1399 c 128,-1,27
 1152 1390 1152 1390 1152 1376 c 2,28,-1
 1152 1088 l 2,29,30
 1152 1074 1152 1074 1161 1065 c 128,-1,31
 1170 1056 1170 1056 1184 1056 c 2,32,-1
 1248 1056 l 2,33,34
 1262 1056 1262 1056 1271 1065 c 128,-1,35
 1280 1074 1280 1074 1280 1088 c 2,20,-1
1664 1152 m 2,36,-1
 1664 -128 l 2,37,38
 1664 -180 1664 -180 1626 -218 c 128,-1,39
 1588 -256 1588 -256 1536 -256 c 2,40,-1
 128 -256 l 2,41,42
 76 -256 76 -256 38 -218 c 128,-1,43
 0 -180 0 -180 0 -128 c 2,44,-1
 0 1152 l 2,45,46
 0 1204 0 1204 38 1242 c 128,-1,47
 76 1280 76 1280 128 1280 c 2,48,-1
 256 1280 l 1,49,-1
 256 1376 l 2,50,51
 256 1442 256 1442 303 1489 c 128,-1,52
 350 1536 350 1536 416 1536 c 2,53,-1
 480 1536 l 2,54,55
 546 1536 546 1536 593 1489 c 128,-1,56
 640 1442 640 1442 640 1376 c 2,57,-1
 640 1280 l 1,58,-1
 1024 1280 l 1,59,-1
 1024 1376 l 2,60,61
 1024 1442 1024 1442 1071 1489 c 128,-1,62
 1118 1536 1118 1536 1184 1536 c 2,63,-1
 1248 1536 l 2,64,65
 1314 1536 1314 1536 1361 1489 c 128,-1,66
 1408 1442 1408 1442 1408 1376 c 2,67,-1
 1408 1280 l 1,68,-1
 1536 1280 l 2,69,70
 1588 1280 1588 1280 1626 1242 c 128,-1,71
 1664 1204 1664 1204 1664 1152 c 2,36,-1
EndSplineSet
Validated: 1
EndChar

StartChar: uniEAB8
Encoding: 60088 60088 91
Width: 1792
Flags: W
LayerCount: 2
Fore
SplineSet
896 1536 m 128,-1,1
 1078 1536 1078 1536 1244 1465 c 128,-1,2
 1410 1394 1410 1394 1530 1274 c 128,-1,3
 1650 1154 1650 1154 1721 988 c 128,-1,4
 1792 822 1792 822 1792 640 c 128,-1,5
 1792 458 1792 458 1721 292 c 128,-1,6
 1650 126 1650 126 1530 6 c 128,-1,7
 1410 -114 1410 -114 1244 -185 c 128,-1,8
 1078 -256 1078 -256 896 -256 c 128,-1,9
 714 -256 714 -256 548 -185 c 128,-1,10
 382 -114 382 -114 262 6 c 128,-1,11
 142 126 142 126 71 292 c 128,-1,12
 0 458 0 458 0 640 c 128,-1,13
 0 822 0 822 71 988 c 128,-1,14
 142 1154 142 1154 262 1274 c 128,-1,15
 382 1394 382 1394 548 1465 c 128,-1,0
 714 1536 714 1536 896 1536 c 128,-1,1
896 1408 m 128,-1,17
 706 1408 706 1408 535 1318 c 1,18,-1
 729 1124 l 1,19,20
 811 1152 811 1152 896 1152 c 128,-1,21
 981 1152 981 1152 1063 1124 c 1,22,-1
 1257 1318 l 1,23,16
 1086 1408 1086 1408 896 1408 c 128,-1,17
218 279 m 1,24,-1
 412 473 l 1,25,26
 384 555 384 555 384 640 c 128,-1,27
 384 725 384 725 412 807 c 1,28,-1
 218 1001 l 1,29,30
 128 830 128 830 128 640 c 128,-1,31
 128 450 128 450 218 279 c 1,24,-1
896 -128 m 128,-1,33
 1086 -128 1086 -128 1257 -38 c 1,34,-1
 1063 156 l 1,35,36
 981 128 981 128 896 128 c 128,-1,37
 811 128 811 128 729 156 c 1,38,-1
 535 -38 l 1,39,32
 706 -128 706 -128 896 -128 c 128,-1,33
896 256 m 128,-1,41
 1055 256 1055 256 1167.5 368.5 c 128,-1,42
 1280 481 1280 481 1280 640 c 128,-1,43
 1280 799 1280 799 1167.5 911.5 c 128,-1,44
 1055 1024 1055 1024 896 1024 c 128,-1,45
 737 1024 737 1024 624.5 911.5 c 128,-1,46
 512 799 512 799 512 640 c 128,-1,47
 512 481 512 481 624.5 368.5 c 128,-1,40
 737 256 737 256 896 256 c 128,-1,41
1380 473 m 1,48,-1
 1574 279 l 1,49,50
 1664 450 1664 450 1664 640 c 128,-1,51
 1664 830 1664 830 1574 1001 c 1,52,-1
 1380 807 l 1,53,54
 1408 725 1408 725 1408 640 c 128,-1,55
 1408 555 1408 555 1380 473 c 1,48,-1
EndSplineSet
Validated: 1
EndChar

StartChar: uniEAB9
Encoding: 60089 60089 92
Width: 1536
Flags: W
LayerCount: 2
Fore
SplineSet
1536 640 m 128,-1,1
 1536 484 1536 484 1475 342 c 128,-1,2
 1414 200 1414 200 1311 97 c 128,-1,3
 1208 -6 1208 -6 1066 -67 c 128,-1,4
 924 -128 924 -128 768 -128 c 0,5,6
 596 -128 596 -128 441 -55.5 c 128,-1,7
 286 17 286 17 177 149 c 0,8,9
 170 159 170 159 170.5 171.5 c 128,-1,10
 171 184 171 184 179 192 c 2,11,-1
 316 330 l 2,12,13
 326 339 326 339 341 339 c 1,14,15
 357 337 357 337 364 327 c 0,16,17
 437 232 437 232 543 180 c 128,-1,18
 649 128 649 128 768 128 c 0,19,20
 872 128 872 128 966.5 168.5 c 128,-1,21
 1061 209 1061 209 1130 278 c 128,-1,22
 1199 347 1199 347 1239.5 441.5 c 128,-1,23
 1280 536 1280 536 1280 640 c 128,-1,24
 1280 744 1280 744 1239.5 838.5 c 128,-1,25
 1199 933 1199 933 1130 1002 c 128,-1,26
 1061 1071 1061 1071 966.5 1111.5 c 128,-1,27
 872 1152 872 1152 768 1152 c 0,28,29
 670 1152 670 1152 580 1116.5 c 128,-1,30
 490 1081 490 1081 420 1015 c 1,31,-1
 557 877 l 2,32,33
 588 847 588 847 571 808 c 0,34,35
 554 768 554 768 512 768 c 2,36,-1
 64 768 l 2,37,38
 38 768 38 768 19 787 c 128,-1,39
 0 806 0 806 0 832 c 2,40,-1
 0 1280 l 2,41,42
 0 1322 0 1322 40 1339 c 0,43,44
 79 1356 79 1356 109 1325 c 2,45,-1
 239 1196 l 1,46,47
 346 1297 346 1297 483.5 1352.5 c 128,-1,48
 621 1408 621 1408 768 1408 c 0,49,50
 924 1408 924 1408 1066 1347 c 128,-1,51
 1208 1286 1208 1286 1311 1183 c 128,-1,52
 1414 1080 1414 1080 1475 938 c 128,-1,0
 1536 796 1536 796 1536 640 c 128,-1,1
896 928 m 2,53,-1
 896 480 l 2,54,55
 896 466 896 466 887 457 c 128,-1,56
 878 448 878 448 864 448 c 2,57,-1
 544 448 l 2,58,59
 530 448 530 448 521 457 c 128,-1,60
 512 466 512 466 512 480 c 2,61,-1
 512 544 l 2,62,63
 512 558 512 558 521 567 c 128,-1,64
 530 576 530 576 544 576 c 2,65,-1
 768 576 l 1,66,-1
 768 928 l 2,67,68
 768 942 768 942 777 951 c 128,-1,69
 786 960 786 960 800 960 c 2,70,-1
 864 960 l 2,71,72
 878 960 878 960 887 951 c 128,-1,73
 896 942 896 942 896 928 c 2,53,-1
EndSplineSet
Validated: 33
EndChar

StartChar: uniEABA
Encoding: 60090 60090 93
Width: 2048
Flags: W
LayerCount: 2
Fore
SplineSet
0 640 m 128,-1,1
 0 770 0 770 51 888.5 c 128,-1,2
 102 1007 102 1007 187.5 1092.5 c 128,-1,3
 273 1178 273 1178 391.5 1229 c 128,-1,4
 510 1280 510 1280 640 1280 c 2,5,-1
 1408 1280 l 2,6,7
 1538 1280 1538 1280 1656.5 1229 c 128,-1,8
 1775 1178 1775 1178 1860.5 1092.5 c 128,-1,9
 1946 1007 1946 1007 1997 888.5 c 128,-1,10
 2048 770 2048 770 2048 640 c 128,-1,11
 2048 510 2048 510 1997 391.5 c 128,-1,12
 1946 273 1946 273 1860.5 187.5 c 128,-1,13
 1775 102 1775 102 1656.5 51 c 128,-1,14
 1538 0 1538 0 1408 0 c 2,15,-1
 640 0 l 2,16,17
 510 0 510 0 391.5 51 c 128,-1,18
 273 102 273 102 187.5 187.5 c 128,-1,19
 102 273 102 273 51 391.5 c 128,-1,0
 0 510 0 510 0 640 c 128,-1,1
1408 128 m 128,-1,21
 1512 128 1512 128 1606.5 168.5 c 128,-1,22
 1701 209 1701 209 1770 278 c 128,-1,23
 1839 347 1839 347 1879.5 441.5 c 128,-1,24
 1920 536 1920 536 1920 640 c 128,-1,25
 1920 744 1920 744 1879.5 838.5 c 128,-1,26
 1839 933 1839 933 1770 1002 c 128,-1,27
 1701 1071 1701 1071 1606.5 1111.5 c 128,-1,28
 1512 1152 1512 1152 1408 1152 c 128,-1,29
 1304 1152 1304 1152 1209.5 1111.5 c 128,-1,30
 1115 1071 1115 1071 1046 1002 c 128,-1,31
 977 933 977 933 936.5 838.5 c 128,-1,32
 896 744 896 744 896 640 c 128,-1,33
 896 536 896 536 936.5 441.5 c 128,-1,34
 977 347 977 347 1046 278 c 128,-1,35
 1115 209 1115 209 1209.5 168.5 c 128,-1,20
 1304 128 1304 128 1408 128 c 128,-1,21
EndSplineSet
Validated: 1
EndChar

StartChar: uniEABB
Encoding: 60091 60091 94
Width: 2048
Flags: W
LayerCount: 2
Fore
SplineSet
1792 207 m 2,0,-1
 1792 1167 l 2,1,2
 1792 1180 1792 1180 1782.5 1189.5 c 128,-1,3
 1773 1199 1773 1199 1760 1199 c 2,4,-1
 160 1199 l 2,5,6
 147 1199 147 1199 137.5 1189.5 c 128,-1,7
 128 1180 128 1180 128 1167 c 2,8,-1
 128 207 l 2,9,10
 128 194 128 194 137.5 184.5 c 128,-1,11
 147 175 147 175 160 175 c 2,12,-1
 1760 175 l 2,13,14
 1773 175 1773 175 1782.5 184.5 c 128,-1,15
 1792 194 1792 194 1792 207 c 2,0,-1
1920 1167 m 2,16,-1
 1920 207 l 2,17,18
 1920 141 1920 141 1873 94 c 128,-1,19
 1826 47 1826 47 1760 47 c 2,20,-1
 1024 47 l 1,21,-1
 1024 -81 l 1,22,-1
 1376 -81 l 2,23,24
 1390 -81 1390 -81 1399 -90 c 128,-1,25
 1408 -99 1408 -99 1408 -113 c 2,26,-1
 1408 -177 l 2,27,28
 1408 -191 1408 -191 1399 -200 c 128,-1,29
 1390 -209 1390 -209 1376 -209 c 2,30,-1
 544 -209 l 2,31,32
 530 -209 530 -209 521 -200 c 128,-1,33
 512 -191 512 -191 512 -177 c 2,34,-1
 512 -113 l 2,35,36
 512 -99 512 -99 521 -90 c 128,-1,37
 530 -81 530 -81 544 -81 c 2,38,-1
 896 -81 l 1,39,-1
 896 47 l 1,40,-1
 160 47 l 2,41,42
 94 47 94 47 47 94 c 128,-1,43
 0 141 0 141 0 207 c 2,44,-1
 0 1167 l 2,45,46
 0 1233 0 1233 47 1280 c 128,-1,47
 94 1327 94 1327 160 1327 c 2,48,-1
 1760 1327 l 2,49,50
 1826 1327 1826 1327 1873 1280 c 128,-1,51
 1920 1233 1920 1233 1920 1167 c 2,16,-1
EndSplineSet
Validated: 1
EndChar

StartChar: uniEB28
Encoding: 60200 60200 95
Width: 1120
Flags: W
LayerCount: 2
Fore
SplineSet
329 343 m 0,0,1
 322 336 322 336 308 336 c 128,-1,2
 294 336 294 336 287 343 c 0,3,4
 11 647 11 647 7 651 c 0,5,6
 0 658 0 658 0 672 c 128,-1,7
 0 686 0 686 7 693 c 2,8,-1
 287 1001 l 1,9,10
 308 1022 308 1022 329 1001 c 128,-1,11
 350 980 350 980 329 959 c 1,12,-1
 94 700 l 1,13,-1
 1092 700 l 2,14,15
 1120 700 1120 700 1120 672 c 128,-1,16
 1120 644 1120 644 1092 644 c 2,17,-1
 94 644 l 1,18,-1
 329 385 l 1,19,20
 350 364 350 364 329 343 c 0,0,1
EndSplineSet
Validated: 1
EndChar

StartChar: uniEB29
Encoding: 60201 60201 96
Width: 1120
Flags: W
LayerCount: 2
Fore
SplineSet
791 343 m 0,0,1
 770 364 770 364 791 385 c 1,2,-1
 1026 644 l 1,3,-1
 28 644 l 2,4,5
 0 644 0 644 0 672 c 128,-1,6
 0 700 0 700 28 700 c 2,7,-1
 1026 700 l 1,8,-1
 791 959 l 1,9,10
 770 980 770 980 791 1001 c 128,-1,11
 812 1022 812 1022 833 1001 c 1,12,13
 1109 697 1109 697 1113 693 c 0,14,15
 1120 686 1120 686 1120 672 c 128,-1,16
 1120 658 1120 658 1113 651 c 2,17,-1
 833 343 l 2,18,19
 826 336 826 336 812 336 c 128,-1,20
 798 336 798 336 791 343 c 0,0,1
EndSplineSet
Validated: 1
EndChar

StartChar: uniEB2A
Encoding: 60202 60202 97
Width: 672
Flags: W
LayerCount: 2
Fore
SplineSet
665 903 m 0,0,1
 644 882 644 882 623 903 c 1,2,-1
 364 1138 l 1,3,-1
 364 140 l 2,4,5
 364 112 364 112 336 112 c 128,-1,6
 308 112 308 112 308 140 c 2,7,-1
 308 1138 l 1,8,-1
 49 903 l 1,9,10
 28 882 28 882 7 903 c 128,-1,11
 -14 924 -14 924 7 945 c 1,12,13
 311 1221 311 1221 315 1225 c 0,14,15
 322 1232 322 1232 336 1232 c 128,-1,16
 350 1232 350 1232 357 1225 c 2,17,-1
 665 945 l 2,18,19
 672 938 672 938 672 924 c 128,-1,20
 672 910 672 910 665 903 c 0,0,1
EndSplineSet
Validated: 1
EndChar

StartChar: uniEB2B
Encoding: 60203 60203 98
Width: 672
Flags: W
LayerCount: 2
Fore
SplineSet
665 441 m 0,0,1
 672 434 672 434 672 420 c 128,-1,2
 672 406 672 406 665 399 c 0,3,4
 361 123 361 123 357 119 c 0,5,6
 350 112 350 112 336 112 c 128,-1,7
 322 112 322 112 315 119 c 2,8,-1
 7 399 l 1,9,10
 -14 420 -14 420 7 441 c 128,-1,11
 28 462 28 462 49 441 c 1,12,-1
 308 206 l 1,13,-1
 308 1204 l 2,14,15
 308 1232 308 1232 336 1232 c 128,-1,16
 364 1232 364 1232 364 1204 c 2,17,-1
 364 206 l 1,18,-1
 623 441 l 1,19,20
 644 462 644 462 665 441 c 0,0,1
EndSplineSet
Validated: 1
EndChar

StartChar: uniEB2C
Encoding: 60204 60204 99
Width: 1470
Flags: W
LayerCount: 2
Fore
SplineSet
735 1519 m 0,0,1
 581 1519 581 1519 448 1462 c 1,2,3
 316 1404 316 1404 214 1302 c 0,4,5
 116 1204 116 1204 58 1069 c 128,-1,6
 0 934 0 934 0 784 c 256,7,8
 0 634 0 634 58 499 c 128,-1,9
 116 364 116 364 214 266 c 0,10,11
 316 164 316 164 448.5 106.5 c 128,-1,12
 581 49 581 49 735 49 c 0,13,14
 885 49 885 49 1020 106.5 c 128,-1,15
 1155 164 1155 164 1253 266 c 1,16,17
 1355 364 1355 364 1412.5 499 c 128,-1,18
 1470 634 1470 634 1470 784 c 256,19,20
 1470 934 1470 934 1412 1069 c 128,-1,21
 1354 1204 1354 1204 1253 1302 c 1,22,23
 1155 1404 1155 1404 1020.5 1461.5 c 128,-1,24
 886 1519 886 1519 735 1519 c 0,0,1
735 108 m 128,-1,26
 595 108 595 108 472.5 161 c 128,-1,27
 350 214 350 214 256 308 c 0,28,29
 165 399 165 399 112.5 521.5 c 128,-1,30
 60 644 60 644 60 784 c 256,31,32
 60 924 60 924 112 1046.5 c 128,-1,33
 164 1169 164 1169 256 1260 c 0,34,35
 350 1354 350 1354 472.5 1407 c 128,-1,36
 595 1460 595 1460 735 1460 c 256,37,38
 875 1460 875 1460 997.5 1407 c 128,-1,39
 1120 1354 1120 1354 1211 1260 c 1,40,41
 1302 1169 1302 1169 1356 1046.5 c 128,-1,42
 1410 924 1410 924 1410 784 c 256,43,44
 1410 644 1410 644 1356 521.5 c 128,-1,45
 1302 399 1302 399 1211 308 c 1,46,47
 1120 214 1120 214 997.5 161 c 128,-1,25
 875 108 875 108 735 108 c 128,-1,26
690 1099 m 1,48,-1
 648 1141 l 1,49,-1
 290 784 l 1,50,-1
 648 427 l 1,51,-1
 690 469 l 1,52,-1
 402 756 l 1,53,-1
 1116 756 l 1,54,-1
 1116 812 l 1,55,-1
 402 812 l 1,56,-1
 690 1099 l 1,48,-1
EndSplineSet
Validated: 9
EndChar

StartChar: uniEB2D
Encoding: 60205 60205 100
Width: 1470
Flags: W
LayerCount: 2
Fore
SplineSet
735 49 m 0,0,1
 885 49 885 49 1020 106.5 c 128,-1,2
 1155 164 1155 164 1253 266 c 1,3,4
 1355 364 1355 364 1412.5 499 c 128,-1,5
 1470 634 1470 634 1470 784 c 256,6,7
 1470 934 1470 934 1412 1069 c 128,-1,8
 1354 1204 1354 1204 1253 1302 c 1,9,10
 1155 1404 1155 1404 1020.5 1461.5 c 128,-1,11
 886 1519 886 1519 735 1519 c 0,12,13
 581 1519 581 1519 448 1462 c 1,14,15
 316 1404 316 1404 214 1302 c 0,16,17
 116 1204 116 1204 58 1069 c 128,-1,18
 0 934 0 934 0 784 c 256,19,20
 0 634 0 634 58 499 c 128,-1,21
 116 364 116 364 214 266 c 0,22,23
 316 164 316 164 448.5 106.5 c 128,-1,24
 581 49 581 49 735 49 c 0,0,1
735 1460 m 128,-1,26
 875 1460 875 1460 997.5 1407 c 128,-1,27
 1120 1354 1120 1354 1211 1260 c 1,28,29
 1302 1169 1302 1169 1356 1046.5 c 128,-1,30
 1410 924 1410 924 1410 784 c 256,31,32
 1410 644 1410 644 1356 521.5 c 128,-1,33
 1302 399 1302 399 1211 308 c 1,34,35
 1120 214 1120 214 997.5 161 c 128,-1,36
 875 108 875 108 735 108 c 256,37,38
 595 108 595 108 472.5 161 c 128,-1,39
 350 214 350 214 256 308 c 0,40,41
 165 399 165 399 112.5 521.5 c 128,-1,42
 60 644 60 644 60 784 c 256,43,44
 60 924 60 924 112 1046.5 c 128,-1,45
 164 1169 164 1169 256 1260 c 0,46,47
 350 1354 350 1354 472.5 1407 c 128,-1,25
 595 1460 595 1460 735 1460 c 128,-1,26
780 469 m 1,48,-1
 819 427 l 1,49,-1
 1176 784 l 1,50,-1
 819 1141 l 1,51,-1
 780 1099 l 1,52,-1
 1064 812 l 1,53,-1
 354 812 l 1,54,-1
 354 756 l 1,55,-1
 1064 756 l 1,56,-1
 780 469 l 1,48,-1
EndSplineSet
Validated: 9
EndChar

StartChar: uniEB2E
Encoding: 60206 60206 101
Width: 1470
Flags: W
LayerCount: 2
Fore
SplineSet
1470 784 m 128,-1,1
 1470 934 1470 934 1412 1069 c 128,-1,2
 1354 1204 1354 1204 1253 1302 c 1,3,4
 1155 1404 1155 1404 1020.5 1461.5 c 128,-1,5
 886 1519 886 1519 735 1519 c 0,6,7
 581 1519 581 1519 448 1462 c 1,8,9
 316 1404 316 1404 214 1302 c 0,10,11
 116 1204 116 1204 58 1069 c 128,-1,12
 0 934 0 934 0 784 c 256,13,14
 0 634 0 634 58 499 c 128,-1,15
 116 364 116 364 214 266 c 0,16,17
 316 164 316 164 448.5 106.5 c 128,-1,18
 581 49 581 49 735 49 c 0,19,20
 885 49 885 49 1020 106.5 c 128,-1,21
 1155 164 1155 164 1253 266 c 1,22,23
 1355 364 1355 364 1412.5 499 c 128,-1,0
 1470 634 1470 634 1470 784 c 128,-1,1
60 784 m 128,-1,25
 60 924 60 924 112 1046.5 c 128,-1,26
 164 1169 164 1169 256 1260 c 0,27,28
 350 1354 350 1354 472.5 1407 c 128,-1,29
 595 1460 595 1460 735 1460 c 256,30,31
 875 1460 875 1460 997.5 1407 c 128,-1,32
 1120 1354 1120 1354 1211 1260 c 1,33,34
 1302 1169 1302 1169 1356 1046.5 c 128,-1,35
 1410 924 1410 924 1410 784 c 256,36,37
 1410 644 1410 644 1356 521.5 c 128,-1,38
 1302 399 1302 399 1211 308 c 1,39,40
 1120 214 1120 214 997.5 161 c 128,-1,41
 875 108 875 108 735 108 c 256,42,43
 595 108 595 108 472.5 161 c 128,-1,44
 350 214 350 214 256 308 c 0,45,46
 165 399 165 399 112.5 521.5 c 128,-1,24
 60 644 60 644 60 784 c 128,-1,25
1050 830 m 1,47,-1
 1092 872 l 1,48,-1
 735 1228 l 1,49,-1
 378 872 l 1,50,-1
 420 830 l 1,51,-1
 704 1116 l 1,52,-1
 704 402 l 1,53,-1
 763 402 l 1,54,-1
 763 1116 l 1,55,-1
 1050 830 l 1,47,-1
EndSplineSet
Validated: 9
EndChar

StartChar: uniEB2F
Encoding: 60207 60207 102
Width: 1470
Flags: W
LayerCount: 2
Fore
SplineSet
0 784 m 128,-1,1
 0 634 0 634 58 499 c 128,-1,2
 116 364 116 364 214 266 c 0,3,4
 316 164 316 164 448.5 106.5 c 128,-1,5
 581 49 581 49 735 49 c 0,6,7
 885 49 885 49 1020 106.5 c 128,-1,8
 1155 164 1155 164 1253 266 c 1,9,10
 1355 364 1355 364 1412.5 499 c 128,-1,11
 1470 634 1470 634 1470 784 c 256,12,13
 1470 934 1470 934 1412 1069 c 128,-1,14
 1354 1204 1354 1204 1253 1302 c 1,15,16
 1155 1404 1155 1404 1020.5 1461.5 c 128,-1,17
 886 1519 886 1519 735 1519 c 0,18,19
 581 1519 581 1519 448 1462 c 1,20,21
 316 1404 316 1404 214 1302 c 0,22,23
 116 1204 116 1204 58 1069 c 128,-1,0
 0 934 0 934 0 784 c 128,-1,1
1410 784 m 128,-1,25
 1410 644 1410 644 1356 521.5 c 128,-1,26
 1302 399 1302 399 1211 308 c 1,27,28
 1120 214 1120 214 997.5 161 c 128,-1,29
 875 108 875 108 735 108 c 256,30,31
 595 108 595 108 472.5 161 c 128,-1,32
 350 214 350 214 256 308 c 0,33,34
 165 399 165 399 112.5 521.5 c 128,-1,35
 60 644 60 644 60 784 c 256,36,37
 60 924 60 924 112 1046.5 c 128,-1,38
 164 1169 164 1169 256 1260 c 0,39,40
 350 1354 350 1354 472.5 1407 c 128,-1,41
 595 1460 595 1460 735 1460 c 256,42,43
 875 1460 875 1460 997.5 1407 c 128,-1,44
 1120 1354 1120 1354 1211 1260 c 1,45,46
 1302 1169 1302 1169 1356 1046.5 c 128,-1,24
 1410 924 1410 924 1410 784 c 128,-1,25
420 738 m 1,47,-1
 378 696 l 1,48,-1
 735 340 l 1,49,-1
 1092 696 l 1,50,-1
 1050 738 l 1,51,-1
 763 452 l 1,52,-1
 763 1166 l 1,53,-1
 704 1166 l 1,54,-1
 704 452 l 1,55,-1
 420 738 l 1,47,-1
EndSplineSet
Validated: 9
EndChar

StartChar: uniEB30
Encoding: 60208 60208 103
Width: 1792
Flags: W
LayerCount: 2
Fore
SplineSet
718 826 m 1,0,-1
 676 784 l 1,1,-1
 1012 448 l 1,2,-1
 1054 490 l 1,3,-1
 760 784 l 1,4,-1
 1054 1078 l 1,5,-1
 1012 1120 l 1,6,-1
 844 952 l 1,7,-1
 718 826 l 1,0,-1
EndSplineSet
Validated: 9
EndChar

StartChar: uniEB31
Encoding: 60209 60209 104
Width: 1792
Flags: W
LayerCount: 2
Fore
SplineSet
1074 742 m 1,0,-1
 1116 784 l 1,1,-1
 777 1120 l 1,2,-1
 735 1078 l 1,3,-1
 1029 784 l 1,4,-1
 735 490 l 1,5,-1
 777 448 l 1,6,-1
 948 616 l 1,7,-1
 1074 742 l 1,0,-1
EndSplineSet
Validated: 9
EndChar

StartChar: uniEB32
Encoding: 60210 60210 105
Width: 1792
Flags: W
LayerCount: 2
Fore
SplineSet
938 962 m 1,0,-1
 896 1004 l 1,1,-1
 560 668 l 1,2,-1
 602 623 l 1,3,-1
 896 920 l 1,4,-1
 1190 626 l 1,5,-1
 1232 668 l 1,6,-1
 1064 836 l 1,7,-1
 938 962 l 1,0,-1
EndSplineSet
Validated: 9
EndChar

StartChar: uniEB33
Encoding: 60211 60211 106
Width: 1792
Flags: W
LayerCount: 2
Fore
SplineSet
854 606 m 1,0,-1
 896 564 l 1,1,-1
 1232 903 l 1,2,-1
 1190 945 l 1,3,-1
 896 648 l 1,4,-1
 602 942 l 1,5,-1
 560 900 l 1,6,-1
 728 732 l 1,7,-1
 854 606 l 1,0,-1
EndSplineSet
Validated: 9
EndChar

StartChar: uniEB34
Encoding: 60212 60212 107
Width: 1792
Flags: W
LayerCount: 2
Fore
SplineSet
1642 784 m 128,-1,1
 1642 938 1642 938 1582 1074 c 256,2,3
 1522 1210 1522 1210 1421 1312 c 1,4,5
 1323 1414 1323 1414 1186.5 1473.5 c 128,-1,6
 1050 1533 1050 1533 896 1533 c 0,7,8
 738 1533 738 1533 604 1474 c 0,9,10
 470 1414 470 1414 368 1312 c 256,11,12
 266 1210 266 1210 206.5 1074 c 128,-1,13
 147 938 147 938 147 784 c 256,14,15
 147 630 147 630 206 494 c 0,16,17
 266 358 266 358 368 256 c 256,18,19
 470 154 470 154 604 96 c 128,-1,20
 738 38 738 38 896 38 c 0,21,22
 1050 38 1050 38 1186 96 c 256,23,24
 1322 154 1322 154 1424 256 c 1,25,26
 1522 358 1522 358 1582 494 c 128,-1,0
 1642 630 1642 630 1642 784 c 128,-1,1
206 784 m 0,27,28
 206 928 206 928 260 1052 c 1,29,30
 316 1176 316 1176 410 1270 c 256,31,32
 504 1364 504 1364 628 1417 c 128,-1,33
 752 1470 752 1470 896 1470 c 0,34,35
 1036 1470 1036 1470 1162 1418 c 1,36,37
 1288 1364 1288 1364 1379 1270 c 1,38,39
 1473 1176 1473 1176 1527.5 1052 c 128,-1,40
 1582 928 1582 928 1582 784 c 0,41,42
 1582 644 1582 644 1528 518 c 128,-1,43
 1474 392 1474 392 1379 298 c 0,44,45
 1288 207 1288 207 1162 152.5 c 128,-1,46
 1036 98 1036 98 896 98 c 0,47,48
 752 98 752 98 628 152 c 128,-1,49
 504 206 504 206 410 298 c 1,50,51
 316 392 316 392 261 518 c 128,-1,52
 206 644 206 644 206 784 c 0,27,28
718 826 m 1,53,-1
 676 784 l 1,54,-1
 1012 448 l 1,55,-1
 1054 490 l 1,56,-1
 760 784 l 1,57,-1
 1054 1078 l 1,58,-1
 1012 1120 l 1,59,-1
 844 952 l 1,60,-1
 718 826 l 1,53,-1
EndSplineSet
Validated: 9
EndChar

StartChar: uniEB35
Encoding: 60213 60213 108
Width: 1792
Flags: W
LayerCount: 2
Fore
SplineSet
147 784 m 128,-1,1
 147 630 147 630 206 494 c 0,2,3
 266 358 266 358 368 256 c 256,4,5
 470 154 470 154 604 96 c 128,-1,6
 738 38 738 38 896 38 c 0,7,8
 1050 38 1050 38 1186 96 c 256,9,10
 1322 154 1322 154 1424 256 c 1,11,12
 1522 358 1522 358 1582 494 c 128,-1,13
 1642 630 1642 630 1642 784 c 256,14,15
 1642 938 1642 938 1582 1074 c 256,16,17
 1522 1210 1522 1210 1424 1312 c 1,18,19
 1322 1414 1322 1414 1186 1473.5 c 128,-1,20
 1050 1533 1050 1533 896 1533 c 0,21,22
 738 1533 738 1533 604 1474 c 0,23,24
 470 1414 470 1414 368 1312 c 256,25,26
 266 1210 266 1210 206.5 1074 c 128,-1,0
 147 938 147 938 147 784 c 128,-1,1
1582 784 m 0,27,28
 1582 644 1582 644 1528 518 c 128,-1,29
 1474 392 1474 392 1379 298 c 0,30,31
 1288 207 1288 207 1162 152.5 c 128,-1,32
 1036 98 1036 98 896 98 c 0,33,34
 752 98 752 98 628 152 c 128,-1,35
 504 206 504 206 410 298 c 1,36,37
 316 392 316 392 261 518 c 128,-1,38
 206 644 206 644 206 784 c 0,39,40
 206 928 206 928 260 1052 c 1,41,42
 316 1176 316 1176 410 1270 c 256,43,44
 504 1364 504 1364 628 1417 c 128,-1,45
 752 1470 752 1470 896 1470 c 0,46,47
 1036 1470 1036 1470 1162 1418 c 1,48,49
 1288 1364 1288 1364 1379 1270 c 1,50,51
 1473 1176 1473 1176 1527.5 1052 c 128,-1,52
 1582 928 1582 928 1582 784 c 0,27,28
1074 742 m 1,53,-1
 1116 784 l 1,54,-1
 777 1124 l 1,55,-1
 735 1082 l 1,56,-1
 1029 784 l 1,57,-1
 735 490 l 1,58,-1
 777 448 l 1,59,-1
 948 616 l 1,60,-1
 1074 742 l 1,53,-1
EndSplineSet
Validated: 9
EndChar

StartChar: uniEB36
Encoding: 60214 60214 109
Width: 1792
Flags: W
LayerCount: 2
Fore
SplineSet
896 38 m 0,0,1
 1050 38 1050 38 1186.5 96 c 128,-1,2
 1323 154 1323 154 1421 256 c 1,3,4
 1523 358 1523 358 1582.5 494 c 128,-1,5
 1642 630 1642 630 1642 784 c 256,6,7
 1642 938 1642 938 1582 1074 c 256,8,9
 1522 1210 1522 1210 1421 1312 c 1,10,11
 1323 1414 1323 1414 1186.5 1473.5 c 128,-1,12
 1050 1533 1050 1533 896 1533 c 0,13,14
 738 1533 738 1533 604 1474 c 0,15,16
 470 1414 470 1414 368 1312 c 256,17,18
 266 1210 266 1210 206.5 1074 c 128,-1,19
 147 938 147 938 147 784 c 256,20,21
 147 630 147 630 206 494 c 0,22,23
 266 358 266 358 368 256 c 256,24,25
 470 154 470 154 604 96 c 128,-1,26
 738 38 738 38 896 38 c 0,0,1
896 1470 m 0,27,28
 1036 1470 1036 1470 1162 1418 c 1,29,30
 1288 1364 1288 1364 1379 1270 c 1,31,32
 1473 1176 1473 1176 1527.5 1052 c 128,-1,33
 1582 928 1582 928 1582 784 c 0,34,35
 1582 644 1582 644 1528 518 c 128,-1,36
 1474 392 1474 392 1379 298 c 0,37,38
 1288 207 1288 207 1162 152.5 c 128,-1,39
 1036 98 1036 98 896 98 c 0,40,41
 752 98 752 98 628 152 c 128,-1,42
 504 206 504 206 410 298 c 1,43,44
 316 392 316 392 261 518 c 128,-1,45
 206 644 206 644 206 784 c 0,46,47
 206 928 206 928 260 1052 c 1,48,49
 316 1176 316 1176 410 1270 c 256,50,51
 504 1364 504 1364 628 1417 c 128,-1,52
 752 1470 752 1470 896 1470 c 0,27,28
938 962 m 1,53,-1
 896 1004 l 1,54,-1
 556 668 l 1,55,-1
 598 623 l 1,56,-1
 896 920 l 1,57,-1
 1190 626 l 1,58,-1
 1232 668 l 1,59,-1
 1064 836 l 1,60,-1
 938 962 l 1,53,-1
EndSplineSet
Validated: 9
EndChar

StartChar: uniEB37
Encoding: 60215 60215 110
Width: 1792
Flags: W
LayerCount: 2
Fore
SplineSet
896 1533 m 0,0,1
 738 1533 738 1533 604 1474 c 0,2,3
 470 1414 470 1414 368 1312 c 256,4,5
 266 1210 266 1210 206.5 1074 c 128,-1,6
 147 938 147 938 147 784 c 256,7,8
 147 630 147 630 206 494 c 0,9,10
 266 358 266 358 368 256 c 256,11,12
 470 154 470 154 604 96 c 128,-1,13
 738 38 738 38 896 38 c 0,14,15
 1050 38 1050 38 1186.5 96 c 128,-1,16
 1323 154 1323 154 1421 256 c 1,17,18
 1523 358 1523 358 1582.5 494 c 128,-1,19
 1642 630 1642 630 1642 784 c 256,20,21
 1642 938 1642 938 1582 1074 c 256,22,23
 1522 1210 1522 1210 1421 1312 c 1,24,25
 1323 1414 1323 1414 1186.5 1473.5 c 128,-1,26
 1050 1533 1050 1533 896 1533 c 0,0,1
896 98 m 0,27,28
 752 98 752 98 628 152 c 128,-1,29
 504 206 504 206 410 298 c 1,30,31
 316 392 316 392 261 518 c 128,-1,32
 206 644 206 644 206 784 c 0,33,34
 206 928 206 928 260 1052 c 1,35,36
 316 1176 316 1176 410 1270 c 256,37,38
 504 1364 504 1364 628 1417 c 128,-1,39
 752 1470 752 1470 896 1470 c 0,40,41
 1036 1470 1036 1470 1162 1418 c 1,42,43
 1288 1364 1288 1364 1379 1270 c 1,44,45
 1473 1176 1473 1176 1527.5 1052 c 128,-1,46
 1582 928 1582 928 1582 784 c 0,47,48
 1582 644 1582 644 1528 518 c 128,-1,49
 1474 392 1474 392 1379 298 c 0,50,51
 1288 207 1288 207 1162 152.5 c 128,-1,52
 1036 98 1036 98 896 98 c 0,27,28
850 606 m 1,53,-1
 892 564 l 1,54,-1
 1232 903 l 1,55,-1
 1190 945 l 1,56,-1
 892 648 l 1,57,-1
 598 942 l 1,58,-1
 556 900 l 1,59,-1
 728 732 l 1,60,-1
 850 606 l 1,53,-1
EndSplineSet
Validated: 9
EndChar

StartChar: uniEB38
Encoding: 60216 60216 111
Width: 1792
Flags: W
LayerCount: 2
Fore
SplineSet
718 826 m 1,0,-1
 676 784 l 1,1,-1
 1012 448 l 1,2,-1
 1054 490 l 1,3,-1
 760 784 l 1,4,-1
 1054 1078 l 1,5,-1
 1012 1120 l 1,6,-1
 844 952 l 1,7,-1
 718 826 l 1,0,-1
EndSplineSet
Validated: 9
EndChar

StartChar: uniEB39
Encoding: 60217 60217 112
Width: 1792
Flags: W
LayerCount: 2
Fore
SplineSet
1074 742 m 1,0,-1
 1116 784 l 1,1,-1
 777 1120 l 1,2,-1
 735 1078 l 1,3,-1
 1029 784 l 1,4,-1
 735 490 l 1,5,-1
 777 448 l 1,6,-1
 948 616 l 1,7,-1
 1074 742 l 1,0,-1
EndSplineSet
Validated: 9
EndChar

StartChar: uniEB3A
Encoding: 60218 60218 113
Width: 1792
Flags: W
LayerCount: 2
Fore
SplineSet
938 962 m 1,0,-1
 896 1004 l 1,1,-1
 560 668 l 1,2,-1
 602 623 l 1,3,-1
 896 920 l 1,4,-1
 1190 626 l 1,5,-1
 1232 668 l 1,6,-1
 1064 836 l 1,7,-1
 938 962 l 1,0,-1
EndSplineSet
Validated: 9
EndChar

StartChar: uniEB3B
Encoding: 60219 60219 114
Width: 1792
Flags: W
LayerCount: 2
Fore
SplineSet
854 606 m 1,0,-1
 896 564 l 1,1,-1
 1232 903 l 1,2,-1
 1190 945 l 1,3,-1
 896 648 l 1,4,-1
 602 942 l 1,5,-1
 560 900 l 1,6,-1
 728 732 l 1,7,-1
 854 606 l 1,0,-1
EndSplineSet
Validated: 9
EndChar

StartChar: uniEB3C
Encoding: 60220 60220 115
Width: 1120
Flags: W
LayerCount: 2
Fore
SplineSet
276 1312 m 1,0,-1
 0 1312 l 1,1,-1
 0 192 l 1,2,-1
 276 192 l 1,3,-1
 276 689 l 1,4,-1
 1120 192 l 1,5,-1
 1120 1312 l 1,6,-1
 276 815 l 1,7,-1
 276 1312 l 1,0,-1
304 738 m 1,8,-1
 280 752 l 1,9,-1
 304 766 l 1,10,-1
 1064 1214 l 1,11,-1
 1064 290 l 1,12,-1
 304 738 l 1,8,-1
56 248 m 1,13,-1
 56 1256 l 1,14,-1
 220 1256 l 1,15,-1
 220 815 l 1,16,-1
 220 717 l 1,17,-1
 220 689 l 1,18,-1
 220 248 l 1,19,-1
 56 248 l 1,13,-1
EndSplineSet
Validated: 9
EndChar

StartChar: uniEB3D
Encoding: 60221 60221 116
Width: 896
Flags: W
LayerCount: 2
Fore
SplineSet
840 1201 m 1,0,-1
 840 285 l 1,1,-1
 105 743 l 1,2,-1
 840 1201 l 1,0,-1
896 1303 m 1,3,-1
 0 743 l 1,4,-1
 896 183 l 1,5,-1
 896 1303 l 1,3,-1
EndSplineSet
Validated: 9
EndChar

StartChar: uniEB3E
Encoding: 60222 60222 117
Width: 896
Flags: W
LayerCount: 2
Fore
SplineSet
56 1201 m 1,0,-1
 56 285 l 1,1,-1
 791 743 l 1,2,-1
 56 1201 l 1,0,-1
0 1303 m 1,3,-1
 896 743 l 1,4,-1
 0 183 l 1,5,-1
 0 1303 l 1,3,-1
EndSplineSet
Validated: 1
EndChar

StartChar: uniEB3F
Encoding: 60223 60223 118
Width: 1120
Flags: W
LayerCount: 2
Fore
SplineSet
844 1312 m 1,0,-1
 1120 1312 l 1,1,-1
 1120 192 l 1,2,-1
 844 192 l 1,3,-1
 844 689 l 1,4,-1
 0 192 l 1,5,-1
 0 1312 l 1,6,-1
 844 815 l 1,7,-1
 844 1312 l 1,0,-1
816 738 m 1,8,-1
 840 752 l 1,9,-1
 816 766 l 1,10,-1
 56 1214 l 1,11,-1
 56 290 l 1,12,-1
 816 738 l 1,8,-1
1064 248 m 1,13,-1
 1064 1256 l 1,14,-1
 900 1256 l 1,15,-1
 900 815 l 1,16,-1
 900 717 l 1,17,-1
 900 689 l 1,18,-1
 900 248 l 1,19,-1
 1064 248 l 1,13,-1
EndSplineSet
Validated: 1
EndChar

StartChar: uniEB40
Encoding: 60224 60224 119
Width: 1792
Flags: W
LayerCount: 2
Fore
SplineSet
602 1124 m 1,0,-1
 556 1078 l 1,1,-1
 854 784 l 1,2,-1
 560 490 l 1,3,-1
 602 448 l 1,4,-1
 896 742 l 1,5,-1
 1190 448 l 1,6,-1
 1232 490 l 1,7,-1
 938 784 l 1,8,-1
 1236 1078 l 1,9,-1
 1190 1124 l 1,10,-1
 896 826 l 1,11,-1
 602 1124 l 1,0,-1
EndSplineSet
Validated: 9
EndChar

StartChar: uniEB41
Encoding: 60225 60225 120
Width: 1792
Flags: W
LayerCount: 2
Fore
SplineSet
368 1312 m 128,-1,1
 260 1204 260 1204 205 1066 c 128,-1,2
 150 928 150 928 150 784 c 256,3,4
 150 640 150 640 204 502 c 1,5,6
 260 364 260 364 368 256 c 256,7,8
 476 148 476 148 614 93 c 128,-1,9
 752 38 752 38 896 38 c 256,10,11
 1040 38 1040 38 1178 92 c 1,12,13
 1316 148 1316 148 1424 256 c 256,14,15
 1532 364 1532 364 1587 502 c 128,-1,16
 1642 640 1642 640 1642 784 c 256,17,18
 1642 928 1642 928 1588 1066 c 1,19,20
 1532 1204 1532 1204 1424 1312 c 256,21,22
 1316 1420 1316 1420 1178 1475 c 128,-1,23
 1040 1530 1040 1530 896 1530 c 256,24,25
 752 1530 752 1530 614 1476 c 1,26,0
 476 1420 476 1420 368 1312 c 128,-1,1
1382 298 m 1,27,28
 1280 200 1280 200 1154.5 149 c 128,-1,29
 1029 98 1029 98 896 98 c 256,30,31
 763 98 763 98 637 149 c 0,32,33
 512 200 512 200 410 298 c 1,34,35
 312 400 312 400 261 525.5 c 128,-1,36
 210 651 210 651 210 784 c 256,37,38
 210 917 210 917 261 1043 c 0,39,40
 312 1168 312 1168 410 1270 c 1,41,42
 512 1368 512 1368 637.5 1419 c 128,-1,43
 763 1470 763 1470 896 1470 c 256,44,45
 1029 1470 1029 1470 1155 1419 c 0,46,47
 1280 1368 1280 1368 1382 1270 c 1,48,49
 1480 1168 1480 1168 1531 1042.5 c 128,-1,50
 1582 917 1582 917 1582 784 c 256,51,52
 1582 651 1582 651 1531 525 c 0,53,54
 1480 400 1480 400 1382 298 c 1,27,28
602 1124 m 1,55,-1
 556 1078 l 1,56,-1
 854 784 l 1,57,-1
 560 490 l 1,58,-1
 602 448 l 1,59,-1
 896 742 l 1,60,-1
 1190 448 l 1,61,-1
 1232 490 l 1,62,-1
 938 784 l 1,63,-1
 1236 1078 l 1,64,-1
 1190 1124 l 1,65,-1
 896 826 l 1,66,-1
 602 1124 l 1,55,-1
EndSplineSet
Validated: 9
EndChar

StartChar: uniEB42
Encoding: 60226 60226 121
Width: 1792
Flags: W
LayerCount: 2
Fore
SplineSet
928 1232 m 1,0,-1
 864 1232 l 1,1,-1
 864 816 l 1,2,-1
 452 816 l 1,3,-1
 452 752 l 1,4,-1
 864 752 l 1,5,-1
 864 340 l 1,6,-1
 928 340 l 1,7,-1
 928 752 l 1,8,-1
 1344 752 l 1,9,-1
 1344 816 l 1,10,-1
 928 816 l 1,11,-1
 928 1232 l 1,0,-1
EndSplineSet
Validated: 9
EndChar

StartChar: uniEB43
Encoding: 60227 60227 122
Width: 1792
Flags: W
LayerCount: 2
Fore
SplineSet
896 1530 m 128,-1,1
 742 1530 742 1530 606 1472 c 256,2,3
 470 1414 470 1414 368 1312 c 256,4,5
 266 1210 266 1210 208 1074 c 128,-1,6
 150 938 150 938 150 784 c 256,7,8
 150 630 150 630 208 494 c 256,9,10
 266 358 266 358 368 256 c 256,11,12
 470 154 470 154 606 96 c 128,-1,13
 742 38 742 38 896 38 c 256,14,15
 1050 38 1050 38 1186 96 c 256,16,17
 1322 154 1322 154 1424 256 c 256,18,19
 1526 358 1526 358 1584 494 c 128,-1,20
 1642 630 1642 630 1642 784 c 256,21,22
 1642 938 1642 938 1584 1074 c 256,23,24
 1526 1210 1526 1210 1424 1312 c 256,25,26
 1322 1414 1322 1414 1186 1472 c 128,-1,0
 1050 1530 1050 1530 896 1530 c 128,-1,1
896 98 m 128,-1,28
 752 98 752 98 628 152 c 128,-1,29
 504 206 504 206 410 298 c 1,30,31
 319 392 319 392 264.5 516 c 128,-1,32
 210 640 210 640 210 784 c 256,33,34
 210 928 210 928 264 1052 c 128,-1,35
 318 1176 318 1176 410 1270 c 1,36,37
 504 1361 504 1361 628 1415.5 c 128,-1,38
 752 1470 752 1470 896 1470 c 256,39,40
 1040 1470 1040 1470 1164 1416 c 128,-1,41
 1288 1362 1288 1362 1382 1270 c 1,42,43
 1473 1176 1473 1176 1527.5 1052 c 128,-1,44
 1582 928 1582 928 1582 784 c 256,45,46
 1582 640 1582 640 1528 516 c 128,-1,47
 1474 392 1474 392 1382 298 c 1,48,49
 1288 207 1288 207 1164 152.5 c 128,-1,27
 1040 98 1040 98 896 98 c 128,-1,28
928 1232 m 1,50,-1
 864 1232 l 1,51,-1
 864 816 l 1,52,-1
 452 816 l 1,53,-1
 452 752 l 1,54,-1
 864 752 l 1,55,-1
 864 340 l 1,56,-1
 928 340 l 1,57,-1
 928 752 l 1,58,-1
 1344 752 l 1,59,-1
 1344 816 l 1,60,-1
 928 816 l 1,61,-1
 928 1232 l 1,50,-1
EndSplineSet
Validated: 9
EndChar

StartChar: uniEB44
Encoding: 60228 60228 123
Width: 1792
Flags: W
LayerCount: 2
Fore
SplineSet
896 1530 m 128,-1,1
 742 1530 742 1530 606 1472 c 256,2,3
 470 1414 470 1414 368 1312 c 256,4,5
 266 1210 266 1210 208 1074 c 128,-1,6
 150 938 150 938 150 784 c 256,7,8
 150 630 150 630 208 494 c 256,9,10
 266 358 266 358 368 256 c 256,11,12
 470 154 470 154 606 96 c 128,-1,13
 742 38 742 38 896 38 c 256,14,15
 1050 38 1050 38 1186 96 c 256,16,17
 1322 154 1322 154 1424 256 c 256,18,19
 1526 358 1526 358 1584 494 c 128,-1,20
 1642 630 1642 630 1642 784 c 256,21,22
 1642 938 1642 938 1584 1074 c 256,23,24
 1526 1210 1526 1210 1424 1312 c 256,25,26
 1322 1414 1322 1414 1186 1472 c 128,-1,0
 1050 1530 1050 1530 896 1530 c 128,-1,1
896 98 m 128,-1,28
 752 98 752 98 628 152 c 128,-1,29
 504 206 504 206 410 298 c 1,30,31
 319 392 319 392 264.5 516 c 128,-1,32
 210 640 210 640 210 784 c 256,33,34
 210 928 210 928 264 1052 c 128,-1,35
 318 1176 318 1176 410 1270 c 1,36,37
 504 1361 504 1361 628 1415.5 c 128,-1,38
 752 1470 752 1470 896 1470 c 256,39,40
 1040 1470 1040 1470 1164 1416 c 128,-1,41
 1288 1362 1288 1362 1382 1270 c 1,42,43
 1473 1176 1473 1176 1527.5 1052 c 128,-1,44
 1582 928 1582 928 1582 784 c 256,45,46
 1582 640 1582 640 1528 516 c 128,-1,47
 1474 392 1474 392 1382 298 c 1,48,49
 1288 207 1288 207 1164 152.5 c 128,-1,27
 1040 98 1040 98 896 98 c 128,-1,28
928 1232 m 1,50,-1
 864 1232 l 1,51,-1
 864 816 l 1,52,-1
 452 816 l 1,53,-1
 452 752 l 1,54,-1
 864 752 l 1,55,-1
 864 340 l 1,56,-1
 928 340 l 1,57,-1
 928 752 l 1,58,-1
 1344 752 l 1,59,-1
 1344 816 l 1,60,-1
 928 816 l 1,61,-1
 928 1232 l 1,50,-1
EndSplineSet
Validated: 9
EndChar

StartChar: uniEB45
Encoding: 60229 60229 124
Width: 1792
Flags: W
LayerCount: 2
Fore
SplineSet
511 816 m 1,0,-1
 1284 816 l 1,1,-1
 1284 752 l 1,2,-1
 511 752 l 1,3,-1
 511 816 l 1,0,-1
EndSplineSet
Validated: 1
EndChar

StartChar: uniEB46
Encoding: 60230 60230 125
Width: 1792
Flags: W
LayerCount: 2
Fore
SplineSet
896 1530 m 128,-1,1
 742 1530 742 1530 606 1472 c 256,2,3
 470 1414 470 1414 368 1312 c 256,4,5
 266 1210 266 1210 208 1074 c 128,-1,6
 150 938 150 938 150 784 c 256,7,8
 150 630 150 630 208 494 c 256,9,10
 266 358 266 358 368 256 c 256,11,12
 470 154 470 154 606 96 c 128,-1,13
 742 38 742 38 896 38 c 256,14,15
 1050 38 1050 38 1186 96 c 256,16,17
 1322 154 1322 154 1424 256 c 256,18,19
 1526 358 1526 358 1584 494 c 128,-1,20
 1642 630 1642 630 1642 784 c 256,21,22
 1642 938 1642 938 1584 1074 c 256,23,24
 1526 1210 1526 1210 1424 1312 c 256,25,26
 1322 1414 1322 1414 1186 1472 c 128,-1,0
 1050 1530 1050 1530 896 1530 c 128,-1,1
896 98 m 128,-1,28
 752 98 752 98 628 152 c 128,-1,29
 504 206 504 206 410 298 c 1,30,31
 319 392 319 392 264.5 516 c 128,-1,32
 210 640 210 640 210 784 c 256,33,34
 210 928 210 928 264 1052 c 128,-1,35
 318 1176 318 1176 410 1270 c 1,36,37
 504 1361 504 1361 628 1415.5 c 128,-1,38
 752 1470 752 1470 896 1470 c 256,39,40
 1040 1470 1040 1470 1164 1416 c 128,-1,41
 1288 1362 1288 1362 1382 1270 c 1,42,43
 1473 1176 1473 1176 1527.5 1052 c 128,-1,44
 1582 928 1582 928 1582 784 c 256,45,46
 1582 640 1582 640 1528 516 c 128,-1,47
 1474 392 1474 392 1382 298 c 1,48,49
 1288 207 1288 207 1164 152.5 c 128,-1,27
 1040 98 1040 98 896 98 c 128,-1,28
511 816 m 1,50,-1
 1284 816 l 1,51,-1
 1284 752 l 1,52,-1
 511 752 l 1,53,-1
 511 816 l 1,50,-1
EndSplineSet
Validated: 9
EndChar

StartChar: uniEB47
Encoding: 60231 60231 126
Width: 1792
Flags: W
LayerCount: 2
Fore
SplineSet
896 1530 m 128,-1,1
 742 1530 742 1530 606 1472 c 256,2,3
 470 1414 470 1414 368 1312 c 256,4,5
 266 1210 266 1210 208 1074 c 128,-1,6
 150 938 150 938 150 784 c 256,7,8
 150 630 150 630 208 494 c 256,9,10
 266 358 266 358 368 256 c 256,11,12
 470 154 470 154 606 96 c 128,-1,13
 742 38 742 38 896 38 c 256,14,15
 1050 38 1050 38 1186 96 c 256,16,17
 1322 154 1322 154 1424 256 c 256,18,19
 1526 358 1526 358 1584 494 c 128,-1,20
 1642 630 1642 630 1642 784 c 256,21,22
 1642 938 1642 938 1584 1074 c 256,23,24
 1526 1210 1526 1210 1424 1312 c 256,25,26
 1322 1414 1322 1414 1186 1472 c 128,-1,0
 1050 1530 1050 1530 896 1530 c 128,-1,1
896 98 m 128,-1,28
 752 98 752 98 628 152 c 128,-1,29
 504 206 504 206 410 298 c 1,30,31
 319 392 319 392 264.5 516 c 128,-1,32
 210 640 210 640 210 784 c 256,33,34
 210 928 210 928 264 1052 c 128,-1,35
 318 1176 318 1176 410 1270 c 1,36,37
 504 1361 504 1361 628 1415.5 c 128,-1,38
 752 1470 752 1470 896 1470 c 256,39,40
 1040 1470 1040 1470 1164 1416 c 128,-1,41
 1288 1362 1288 1362 1382 1270 c 1,42,43
 1473 1176 1473 1176 1527.5 1052 c 128,-1,44
 1582 928 1582 928 1582 784 c 256,45,46
 1582 640 1582 640 1528 516 c 128,-1,47
 1474 392 1474 392 1382 298 c 1,48,49
 1288 207 1288 207 1164 152.5 c 128,-1,27
 1040 98 1040 98 896 98 c 128,-1,28
511 816 m 1,50,-1
 1284 816 l 1,51,-1
 1284 752 l 1,52,-1
 511 752 l 1,53,-1
 511 816 l 1,50,-1
EndSplineSet
Validated: 9
EndChar

StartChar: uniEB48
Encoding: 60232 60232 127
Width: 1792
Flags: W
LayerCount: 2
Fore
SplineSet
1270 1050 m 1,0,-1
 791 584 l 1,1,-1
 623 752 l 2,2,3
 609 766 609 766 589.5 766 c 128,-1,4
 570 766 570 766 560 752 c 1,5,6
 546 742 546 742 546 723 c 128,-1,7
 546 704 546 704 560 690 c 2,8,-1
 760 490 l 1,9,10
 764 483 764 483 772 481.5 c 128,-1,11
 780 480 780 480 791 480 c 0,12,13
 798 480 798 480 807 481.5 c 128,-1,14
 816 483 816 483 819 490 c 1,15,-1
 1330 987 l 1,16,17
 1344 997 1344 997 1344 1016.5 c 128,-1,18
 1344 1036 1344 1036 1334 1050 c 1,19,20
 1320 1064 1320 1064 1300 1064 c 256,21,22
 1280 1064 1280 1064 1270 1050 c 1,0,-1
EndSplineSet
Validated: 9
EndChar

StartChar: uniEB49
Encoding: 60233 60233 128
Width: 1792
Flags: W
LayerCount: 2
Fore
SplineSet
896 1530 m 128,-1,1
 742 1530 742 1530 606 1472 c 256,2,3
 470 1414 470 1414 368 1312 c 256,4,5
 266 1210 266 1210 208 1074 c 128,-1,6
 150 938 150 938 150 784 c 256,7,8
 150 630 150 630 208 494 c 256,9,10
 266 358 266 358 368 256 c 256,11,12
 470 154 470 154 606 96 c 128,-1,13
 742 38 742 38 896 38 c 256,14,15
 1050 38 1050 38 1186 96 c 256,16,17
 1322 154 1322 154 1424 256 c 256,18,19
 1526 358 1526 358 1584 494 c 128,-1,20
 1642 630 1642 630 1642 784 c 256,21,22
 1642 938 1642 938 1584 1074 c 256,23,24
 1526 1210 1526 1210 1424 1312 c 256,25,26
 1322 1414 1322 1414 1186 1472 c 128,-1,0
 1050 1530 1050 1530 896 1530 c 128,-1,1
896 98 m 128,-1,28
 752 98 752 98 628 152 c 128,-1,29
 504 206 504 206 410 298 c 1,30,31
 319 392 319 392 264.5 516 c 128,-1,32
 210 640 210 640 210 784 c 256,33,34
 210 928 210 928 264 1052 c 128,-1,35
 318 1176 318 1176 410 1270 c 1,36,37
 504 1361 504 1361 628 1415.5 c 128,-1,38
 752 1470 752 1470 896 1470 c 256,39,40
 1040 1470 1040 1470 1164 1416 c 128,-1,41
 1288 1362 1288 1362 1382 1270 c 1,42,43
 1473 1176 1473 1176 1527.5 1052 c 128,-1,44
 1582 928 1582 928 1582 784 c 256,45,46
 1582 640 1582 640 1528 516 c 128,-1,47
 1474 392 1474 392 1382 298 c 1,48,49
 1288 207 1288 207 1164 152.5 c 128,-1,27
 1040 98 1040 98 896 98 c 128,-1,28
1270 1050 m 1,50,-1
 791 584 l 1,51,-1
 623 752 l 2,52,53
 609 766 609 766 589.5 766 c 128,-1,54
 570 766 570 766 560 752 c 1,55,56
 546 742 546 742 546 723 c 128,-1,57
 546 704 546 704 560 690 c 2,58,-1
 760 490 l 1,59,60
 764 483 764 483 772 481.5 c 128,-1,61
 780 480 780 480 791 480 c 0,62,63
 798 480 798 480 807 481.5 c 128,-1,64
 816 483 816 483 819 490 c 1,65,-1
 1330 987 l 1,66,67
 1344 997 1344 997 1344 1016.5 c 128,-1,68
 1344 1036 1344 1036 1334 1050 c 1,69,70
 1320 1064 1320 1064 1300 1064 c 256,71,72
 1280 1064 1280 1064 1270 1050 c 1,50,-1
EndSplineSet
Validated: 9
EndChar

StartChar: uniEB4A
Encoding: 60234 60234 129
Width: 1792
Flags: W
LayerCount: 2
Fore
SplineSet
854 606 m 1,0,-1
 896 564 l 1,1,-1
 1232 903 l 1,2,-1
 1190 945 l 1,3,-1
 896 648 l 1,4,-1
 602 942 l 1,5,-1
 560 900 l 1,6,-1
 728 732 l 1,7,-1
 854 606 l 1,0,-1
EndSplineSet
Validated: 9
EndChar

StartChar: uniEB4B
Encoding: 60235 60235 130
Width: 1792
Flags: W
LayerCount: 2
Fore
SplineSet
938 962 m 1,0,-1
 896 1004 l 1,1,-1
 560 668 l 1,2,-1
 602 623 l 1,3,-1
 896 920 l 1,4,-1
 1190 626 l 1,5,-1
 1232 668 l 1,6,-1
 1064 836 l 1,7,-1
 938 962 l 1,0,-1
EndSplineSet
Validated: 9
EndChar

StartChar: uniEB4C
Encoding: 60236 60236 131
Width: 1792
Flags: W
LayerCount: 2
Fore
SplineSet
896 1484 m 1,0,-1
 91 84 l 1,1,-1
 1701 84 l 1,2,-1
 896 1484 l 1,0,-1
896 1365 m 1,3,-1
 1600 144 l 1,4,-1
 192 144 l 1,5,-1
 896 1365 l 1,3,-1
864 917 m 1,6,-1
 928 917 l 1,7,-1
 928 500 l 1,8,-1
 864 500 l 1,9,-1
 864 917 l 1,6,-1
896 410 m 128,-1,11
 878 410 878 410 864 398 c 256,12,13
 850 386 850 386 850 368 c 0,14,15
 850 347 850 347 864 334.5 c 128,-1,16
 878 322 878 322 896 322 c 256,17,18
 914 322 914 322 928 334 c 128,-1,19
 942 346 942 346 942 368 c 0,20,21
 942 386 942 386 928 398 c 128,-1,10
 914 410 914 410 896 410 c 128,-1,11
EndSplineSet
Validated: 9
EndChar

StartChar: uniEB4D
Encoding: 60237 60237 132
Width: 1792
Flags: W
LayerCount: 2
Fore
SplineSet
900 1057 m 128,-1,1
 918 1057 918 1057 935 1064 c 0,2,3
 952 1072 952 1072 962 1082 c 1,4,5
 976 1092 976 1092 983 1110 c 0,6,7
 990 1126 990 1126 990 1144 c 256,8,9
 990 1162 990 1162 983 1180 c 256,10,11
 976 1198 976 1198 962 1208 c 1,12,13
 952 1222 952 1222 934 1229 c 0,14,15
 918 1236 918 1236 900 1236 c 256,16,17
 882 1236 882 1236 864 1229 c 256,18,19
 846 1222 846 1222 836 1208 c 1,20,21
 822 1198 822 1198 815 1180 c 128,-1,22
 808 1162 808 1162 808 1144 c 256,23,24
 808 1126 808 1126 815 1109 c 128,-1,25
 822 1092 822 1092 836 1082 c 1,26,27
 846 1072 846 1072 864 1064.5 c 128,-1,0
 882 1057 882 1057 900 1057 c 128,-1,1
959 934 m 1,28,-1
 959 994 l 1,29,-1
 780 994 l 1,30,-1
 780 934 l 1,31,-1
 840 934 l 1,32,-1
 840 427 l 1,33,-1
 780 427 l 1,34,-1
 780 368 l 1,35,-1
 1022 368 l 1,36,-1
 1022 427 l 1,37,-1
 959 427 l 1,38,-1
 959 934 l 1,28,-1
896 1530 m 128,-1,40
 742 1530 742 1530 606 1472 c 256,41,42
 470 1414 470 1414 368 1312 c 256,43,44
 266 1210 266 1210 208 1074 c 128,-1,45
 150 938 150 938 150 784 c 256,46,47
 150 630 150 630 208 494 c 256,48,49
 266 358 266 358 368 256 c 256,50,51
 470 154 470 154 606 96 c 128,-1,52
 742 38 742 38 896 38 c 256,53,54
 1050 38 1050 38 1186 96 c 256,55,56
 1322 154 1322 154 1424 256 c 256,57,58
 1526 358 1526 358 1584 494 c 128,-1,59
 1642 630 1642 630 1642 784 c 256,60,61
 1642 938 1642 938 1584 1074 c 256,62,63
 1526 1210 1526 1210 1424 1312 c 256,64,65
 1322 1414 1322 1414 1186 1472 c 128,-1,39
 1050 1530 1050 1530 896 1530 c 128,-1,40
896 98 m 128,-1,67
 752 98 752 98 628 152 c 128,-1,68
 504 206 504 206 410 298 c 1,69,70
 319 392 319 392 264.5 516 c 128,-1,71
 210 640 210 640 210 784 c 256,72,73
 210 928 210 928 264 1052 c 128,-1,74
 318 1176 318 1176 410 1270 c 1,75,76
 504 1361 504 1361 628 1415.5 c 128,-1,77
 752 1470 752 1470 896 1470 c 256,78,79
 1040 1470 1040 1470 1164 1416 c 128,-1,80
 1288 1362 1288 1362 1382 1270 c 1,81,82
 1473 1176 1473 1176 1527.5 1052 c 128,-1,83
 1582 928 1582 928 1582 784 c 256,84,85
 1582 640 1582 640 1528 516 c 128,-1,86
 1474 392 1474 392 1382 298 c 1,87,88
 1288 207 1288 207 1164 152.5 c 128,-1,66
 1040 98 1040 98 896 98 c 128,-1,67
EndSplineSet
Validated: 9
EndChar

StartChar: uniEB4E
Encoding: 60238 60238 133
Width: 1792
Flags: W
LayerCount: 2
Fore
SplineSet
896 1530 m 128,-1,1
 742 1530 742 1530 606 1472 c 256,2,3
 470 1414 470 1414 368 1312 c 256,4,5
 266 1210 266 1210 208 1074 c 128,-1,6
 150 938 150 938 150 784 c 256,7,8
 150 630 150 630 208 494 c 256,9,10
 266 358 266 358 368 256 c 256,11,12
 470 154 470 154 606 96 c 128,-1,13
 742 38 742 38 896 38 c 256,14,15
 1050 38 1050 38 1186 96 c 256,16,17
 1322 154 1322 154 1424 256 c 256,18,19
 1526 358 1526 358 1584 494 c 128,-1,20
 1642 630 1642 630 1642 784 c 256,21,22
 1642 938 1642 938 1584 1074 c 256,23,24
 1526 1210 1526 1210 1424 1312 c 256,25,26
 1322 1414 1322 1414 1186 1472 c 128,-1,0
 1050 1530 1050 1530 896 1530 c 128,-1,1
896 98 m 128,-1,28
 752 98 752 98 628 152 c 128,-1,29
 504 206 504 206 410 298 c 1,30,31
 319 392 319 392 264.5 516 c 128,-1,32
 210 640 210 640 210 784 c 256,33,34
 210 928 210 928 264 1052 c 128,-1,35
 318 1176 318 1176 410 1270 c 1,36,37
 504 1361 504 1361 628 1415.5 c 128,-1,38
 752 1470 752 1470 896 1470 c 256,39,40
 1040 1470 1040 1470 1164 1416 c 128,-1,41
 1288 1362 1288 1362 1382 1270 c 1,42,43
 1473 1176 1473 1176 1527.5 1052 c 128,-1,44
 1582 928 1582 928 1582 784 c 256,45,46
 1582 640 1582 640 1528 516 c 128,-1,47
 1474 392 1474 392 1382 298 c 1,48,49
 1288 207 1288 207 1164 152.5 c 128,-1,27
 1040 98 1040 98 896 98 c 128,-1,28
892 1176 m 0,50,51
 836 1176 836 1176 792 1158 c 1,52,53
 750 1142 750 1142 718 1110 c 1,54,55
 690 1078 690 1078 674 1034 c 128,-1,56
 658 990 658 990 654 934 c 1,57,-1
 721 934 l 1,58,59
 721 972 721 972 732 1008 c 0,60,61
 742 1044 742 1044 763 1068 c 256,62,63
 784 1092 784 1092 815.5 1106 c 128,-1,64
 847 1120 847 1120 889 1120 c 0,65,66
 921 1120 921 1120 948 1110 c 0,67,68
 976 1100 976 1100 994 1082 c 0,69,70
 1015 1061 1015 1061 1027.5 1036.5 c 128,-1,71
 1040 1012 1040 1012 1040 980 c 0,72,73
 1040 959 1040 959 1034.5 939.5 c 128,-1,74
 1029 920 1029 920 1022 906 c 0,75,76
 1012 888 1012 888 999.5 873 c 128,-1,77
 987 858 987 858 973 844 c 1,78,79
 941 816 941 816 922 795 c 128,-1,80
 903 774 903 774 889 749 c 1,81,82
 879 728 879 728 873.5 700 c 128,-1,83
 868 672 868 672 864 634 c 1,84,-1
 934 634 l 1,85,86
 934 669 934 669 936 688 c 0,87,88
 938 706 938 706 945 724 c 1,89,90
 952 738 952 738 968 756 c 128,-1,91
 984 774 984 774 1015 805 c 1,92,93
 1036 823 1036 823 1052 842 c 128,-1,94
 1068 861 1068 861 1082 882 c 1,95,96
 1092 903 1092 903 1099 927.5 c 128,-1,97
 1106 952 1106 952 1106 984 c 0,98,99
 1106 1030 1106 1030 1088 1064 c 1,100,101
 1071 1100 1071 1100 1043 1124 c 256,102,103
 1015 1148 1015 1148 976.5 1162 c 128,-1,104
 938 1176 938 1176 892 1176 c 0,50,51
896 514 m 128,-1,106
 872 514 872 514 854 497 c 128,-1,107
 836 480 836 480 836 455 c 0,108,109
 836 431 836 431 854 413.5 c 128,-1,110
 872 396 872 396 896 396 c 256,111,112
 920 396 920 396 938 413 c 128,-1,113
 956 430 956 430 956 455 c 0,114,115
 956 479 956 479 938 496.5 c 128,-1,105
 920 514 920 514 896 514 c 128,-1,106
EndSplineSet
Validated: 9
EndChar

StartChar: uniEB4F
Encoding: 60239 60239 134
Width: 1792
Flags: W
LayerCount: 2
Fore
SplineSet
1124 259 m 1,0,-1
 1166 217 l 1,1,-1
 900 -49 l 1,2,-1
 630 217 l 1,3,-1
 672 259 l 1,4,-1
 868 63 l 1,5,-1
 868 847 l 1,6,-1
 928 847 l 1,7,-1
 928 63 l 1,8,-1
 1124 259 l 1,0,-1
1466 1144 m 1,9,-1
 1466 1152 l 1,10,-1
 1466 1158 l 2,11,12
 1466 1252 1466 1252 1429.5 1338 c 128,-1,13
 1393 1424 1393 1424 1330 1484 c 1,14,15
 1267 1547 1267 1547 1183 1584 c 1,16,17
 1098 1620 1098 1620 1004 1620 c 0,18,19
 934 1620 934 1620 871 1601 c 128,-1,20
 808 1582 808 1582 752 1547 c 1,21,22
 700 1512 700 1512 658 1465 c 128,-1,23
 616 1418 616 1418 588 1358 c 1,24,25
 564 1368 564 1368 536 1375 c 128,-1,26
 508 1382 508 1382 480 1382 c 0,27,28
 434 1382 434 1382 396 1368 c 256,29,30
 358 1354 358 1354 326 1326 c 256,31,32
 294 1298 294 1298 273 1261.5 c 128,-1,33
 252 1225 252 1225 245 1183 c 1,34,35
 193 1165 193 1165 147.5 1132 c 128,-1,36
 102 1099 102 1099 70 1057 c 1,37,38
 38 1011 38 1011 21 957 c 128,-1,39
 4 903 4 903 4 847 c 0,40,41
 4 770 4 770 32 705 c 128,-1,42
 60 640 60 640 108 592 c 1,43,44
 154 543 154 543 220 514 c 0,45,46
 286 486 286 486 360 486 c 2,47,-1
 749 486 l 1,48,-1
 749 546 l 1,49,-1
 360 546 l 2,50,51
 297 546 297 546 243 570 c 1,52,53
 188 596 188 596 150 634 c 0,54,55
 108 676 108 676 85.5 730 c 128,-1,56
 63 784 63 784 63 847 c 0,57,58
 63 893 63 893 77 938.5 c 128,-1,59
 91 984 91 984 119 1018 c 1,60,61
 143 1056 143 1056 180 1084 c 1,62,63
 216 1113 216 1113 262 1127 c 1,64,-1
 298 1141 l 1,65,-1
 304 1176 l 1,66,67
 308 1208 308 1208 324 1236 c 128,-1,68
 340 1264 340 1264 364 1281 c 1,69,70
 388 1302 388 1302 418 1312.5 c 128,-1,71
 448 1323 448 1323 480 1323 c 0,72,73
 501 1323 501 1323 521.5 1319.5 c 128,-1,74
 542 1316 542 1316 560 1306 c 2,75,-1
 616 1278 l 1,76,-1
 640 1334 l 1,77,78
 664 1386 664 1386 703 1428 c 128,-1,79
 742 1470 742 1470 791 1498 c 1,80,81
 837 1530 837 1530 891 1546 c 0,82,83
 944 1561 944 1561 1004 1561 c 0,84,85
 1088 1561 1088 1561 1162 1529.5 c 128,-1,86
 1236 1498 1236 1498 1288 1442 c 1,87,88
 1344 1390 1344 1390 1375.5 1316 c 128,-1,89
 1407 1242 1407 1242 1407 1158 c 2,90,-1
 1407 1156 l 1,91,-1
 1407 1155 l 1,92,-1
 1407 1150 l 1,93,-1
 1407 1144 l 1,94,-1
 1404 1085 l 1,95,-1
 1466 1085 l 2,96,97
 1522 1085 1522 1085 1571 1064 c 0,98,99
 1620 1042 1620 1042 1656 1004 c 1,100,101
 1691 969 1691 969 1711.5 920.5 c 128,-1,102
 1732 872 1732 872 1732 816 c 256,103,104
 1732 760 1732 760 1711 711 c 128,-1,105
 1690 662 1690 662 1656 626 c 1,106,107
 1621 591 1621 591 1571.5 568.5 c 128,-1,108
 1522 546 1522 546 1466 546 c 2,109,-1
 1046 546 l 1,110,-1
 1046 486 l 1,111,-1
 1466 486 l 2,112,113
 1532 486 1532 486 1592 512 c 256,114,115
 1652 538 1652 538 1698 584 c 256,116,117
 1744 630 1744 630 1768 690 c 256,118,119
 1792 750 1792 750 1792 816 c 256,120,121
 1792 882 1792 882 1768 943 c 256,122,123
 1744 1004 1744 1004 1698 1046 c 1,124,125
 1652 1092 1652 1092 1592 1118 c 256,126,127
 1532 1144 1532 1144 1466 1144 c 1,9,-1
EndSplineSet
Validated: 9
EndChar

StartChar: uniEB50
Encoding: 60240 60240 135
Width: 1792
Flags: W
LayerCount: 2
Fore
SplineSet
672 774 m 1,0,-1
 630 819 l 1,1,-1
 900 1085 l 1,2,-1
 1166 819 l 1,3,-1
 1124 777 l 1,4,-1
 928 970 l 1,5,-1
 928 189 l 1,6,-1
 868 189 l 1,7,-1
 868 970 l 1,8,-1
 672 777 l 1,9,-1
 672 774 l 1,0,-1
1466 1144 m 1,10,-1
 1466 1152 l 1,11,-1
 1466 1158 l 2,12,13
 1466 1252 1466 1252 1431 1338 c 128,-1,14
 1396 1424 1396 1424 1334 1484 c 1,15,16
 1271 1547 1271 1547 1185 1584 c 1,17,18
 1098 1620 1098 1620 1004 1620 c 0,19,20
 934 1620 934 1620 871 1601 c 128,-1,21
 808 1582 808 1582 756 1547 c 1,22,23
 700 1512 700 1512 658 1465 c 128,-1,24
 616 1418 616 1418 588 1358 c 1,25,26
 564 1368 564 1368 536 1375 c 128,-1,27
 508 1382 508 1382 480 1382 c 0,28,29
 438 1382 438 1382 398 1368 c 256,30,31
 358 1354 358 1354 326 1326 c 256,32,33
 294 1298 294 1298 273 1261.5 c 128,-1,34
 252 1225 252 1225 245 1183 c 1,35,36
 193 1165 193 1165 149 1132 c 128,-1,37
 105 1099 105 1099 70 1057 c 1,38,39
 38 1011 38 1011 21 957 c 128,-1,40
 4 903 4 903 4 847 c 0,41,42
 4 770 4 770 32 705 c 128,-1,43
 60 640 60 640 108 592 c 0,44,45
 157 543 157 543 222 514 c 0,46,47
 286 486 286 486 360 486 c 2,48,-1
 749 486 l 1,49,-1
 749 546 l 1,50,-1
 360 546 l 2,51,52
 297 546 297 546 243 570 c 1,53,54
 188 596 188 596 150 634 c 0,55,56
 108 676 108 676 85.5 730 c 128,-1,57
 63 784 63 784 63 847 c 0,58,59
 63 893 63 893 77 938.5 c 128,-1,60
 91 984 91 984 119 1018 c 1,61,62
 143 1056 143 1056 181.5 1084.5 c 128,-1,63
 220 1113 220 1113 266 1127 c 1,64,-1
 298 1141 l 1,65,-1
 304 1176 l 1,66,67
 308 1208 308 1208 325.5 1236 c 128,-1,68
 343 1264 343 1264 364 1281 c 1,69,70
 388 1302 388 1302 418 1312.5 c 128,-1,71
 448 1323 448 1323 480 1323 c 0,72,73
 501 1323 501 1323 521.5 1319.5 c 128,-1,74
 542 1316 542 1316 560 1306 c 2,75,-1
 616 1278 l 1,76,-1
 640 1334 l 1,77,78
 664 1386 664 1386 703 1428 c 128,-1,79
 742 1470 742 1470 791 1498 c 1,80,81
 837 1530 837 1530 891 1546 c 0,82,83
 944 1561 944 1561 1004 1561 c 0,84,85
 1088 1561 1088 1561 1162 1529.5 c 128,-1,86
 1236 1498 1236 1498 1288 1442 c 1,87,88
 1344 1390 1344 1390 1375.5 1316 c 128,-1,89
 1407 1242 1407 1242 1407 1158 c 2,90,-1
 1407 1156 l 1,91,-1
 1407 1155 l 1,92,-1
 1407 1150 l 1,93,-1
 1407 1144 l 1,94,-1
 1407 1085 l 1,95,-1
 1466 1085 l 2,96,97
 1522 1085 1522 1085 1571 1064 c 0,98,99
 1620 1042 1620 1042 1656 1004 c 1,100,101
 1694 969 1694 969 1715 920.5 c 128,-1,102
 1736 872 1736 872 1736 816 c 256,103,104
 1736 760 1736 760 1715 711 c 128,-1,105
 1694 662 1694 662 1656 626 c 1,106,107
 1621 588 1621 588 1571.5 567 c 128,-1,108
 1522 546 1522 546 1466 546 c 2,109,-1
 1046 546 l 1,110,-1
 1046 486 l 1,111,-1
 1466 486 l 2,112,113
 1536 486 1536 486 1596 512 c 256,114,115
 1656 538 1656 538 1698 584 c 1,116,117
 1744 626 1744 626 1770 688 c 256,118,119
 1796 750 1796 750 1796 816 c 256,120,121
 1796 882 1796 882 1770 943 c 256,122,123
 1744 1004 1744 1004 1698 1046 c 1,124,125
 1656 1092 1656 1092 1594 1118 c 256,126,127
 1532 1144 1532 1144 1466 1144 c 1,10,-1
EndSplineSet
Validated: 9
EndChar

StartChar: uniEB51
Encoding: 60241 60241 136
Width: 1792
Flags: W
LayerCount: 2
Fore
SplineSet
1494 1200 m 1,0,-1
 1494 1442 l 1,1,-1
 91 1442 l 1,2,-1
 91 368 l 1,3,-1
 298 368 l 1,4,-1
 298 126 l 1,5,-1
 1701 126 l 1,6,-1
 1701 1200 l 1,7,-1
 1494 1200 l 1,0,-1
150 427 m 1,8,-1
 150 1382 l 1,9,-1
 1435 1382 l 1,10,-1
 1435 1200 l 1,11,-1
 298 1200 l 1,12,-1
 298 427 l 1,13,-1
 150 427 l 1,8,-1
1642 186 m 1,14,-1
 357 186 l 1,15,-1
 357 1141 l 1,16,-1
 1642 1141 l 1,17,-1
 1642 186 l 1,14,-1
EndSplineSet
Validated: 9
EndChar

StartChar: uniEB52
Encoding: 60242 60242 137
Width: 1344
Flags: W
LayerCount: 2
Fore
SplineSet
1159 471 m 0,0,1
 1236 471 1236 471 1290.5 417 c 128,-1,2
 1345 363 1345 363 1345 282.5 c 128,-1,3
 1345 202 1345 202 1292.5 149.5 c 128,-1,4
 1240 97 1240 97 1159.5 97 c 128,-1,5
 1079 97 1079 97 1025 151 c 128,-1,6
 971 205 971 205 971 283 c 0,7,8
 971 363 971 363 1025 417 c 128,-1,9
 1079 471 1079 471 1159 471 c 0,0,1
1159 153 m 128,-1,11
 1215 153 1215 153 1252 190 c 128,-1,12
 1289 227 1289 227 1289 283 c 128,-1,13
 1289 339 1289 339 1252 377 c 128,-1,14
 1215 415 1215 415 1159 415 c 128,-1,15
 1103 415 1103 415 1065 377 c 128,-1,16
 1027 339 1027 339 1027 283 c 128,-1,17
 1027 227 1027 227 1065 190 c 128,-1,10
 1103 153 1103 153 1159 153 c 128,-1,11
673 471 m 128,-1,19
 750 471 750 471 804.5 417 c 128,-1,20
 859 363 859 363 859 282.5 c 128,-1,21
 859 202 859 202 804.5 149.5 c 128,-1,22
 750 97 750 97 673 97 c 128,-1,23
 596 97 596 97 541.5 149.5 c 128,-1,24
 487 202 487 202 487 282.5 c 128,-1,25
 487 363 487 363 541.5 417 c 128,-1,18
 596 471 596 471 673 471 c 128,-1,19
673 153 m 128,-1,27
 729 153 729 153 766 190 c 128,-1,28
 803 227 803 227 803 283 c 128,-1,29
 803 339 803 339 766 377 c 128,-1,30
 729 415 729 415 673 415 c 128,-1,31
 617 415 617 415 580 377 c 128,-1,32
 543 339 543 339 543 283 c 128,-1,33
 543 227 543 227 580 190 c 128,-1,26
 617 153 617 153 673 153 c 128,-1,27
187 471 m 0,34,35
 267 471 267 471 321 417 c 128,-1,36
 375 363 375 363 375 283 c 0,37,38
 375 206 375 206 321 151.5 c 128,-1,39
 267 97 267 97 186.5 97 c 128,-1,40
 106 97 106 97 53.5 149.5 c 128,-1,41
 1 202 1 202 1 282.5 c 128,-1,42
 1 363 1 363 55.5 417 c 128,-1,43
 110 471 110 471 187 471 c 0,34,35
187 153 m 128,-1,45
 243 153 243 153 281 190 c 128,-1,46
 319 227 319 227 319 283 c 128,-1,47
 319 339 319 339 281 377 c 128,-1,48
 243 415 243 415 187 415 c 128,-1,49
 131 415 131 415 94 377 c 128,-1,50
 57 339 57 339 57 283 c 128,-1,51
 57 227 57 227 94 190 c 128,-1,44
 131 153 131 153 187 153 c 128,-1,45
1159.5 955 m 128,-1,53
 1240 955 1240 955 1292.5 900.5 c 128,-1,54
 1345 846 1345 846 1345 769 c 128,-1,55
 1345 692 1345 692 1292.5 637.5 c 128,-1,56
 1240 583 1240 583 1159.5 583 c 128,-1,57
 1079 583 1079 583 1025 637.5 c 128,-1,58
 971 692 971 692 971 769 c 128,-1,59
 971 846 971 846 1025 900.5 c 128,-1,52
 1079 955 1079 955 1159.5 955 c 128,-1,53
1159 639 m 128,-1,61
 1215 639 1215 639 1252 676 c 128,-1,62
 1289 713 1289 713 1289 769 c 128,-1,63
 1289 825 1289 825 1252 862 c 128,-1,64
 1215 899 1215 899 1159 899 c 128,-1,65
 1103 899 1103 899 1065 862 c 128,-1,66
 1027 825 1027 825 1027 769 c 128,-1,67
 1027 713 1027 713 1065 676 c 128,-1,60
 1103 639 1103 639 1159 639 c 128,-1,61
673 955 m 128,-1,69
 750 955 750 955 804.5 900.5 c 128,-1,70
 859 846 859 846 859 769 c 128,-1,71
 859 692 859 692 804.5 637.5 c 128,-1,72
 750 583 750 583 673 583 c 128,-1,73
 596 583 596 583 541.5 637.5 c 128,-1,74
 487 692 487 692 487 769 c 128,-1,75
 487 846 487 846 541.5 900.5 c 128,-1,68
 596 955 596 955 673 955 c 128,-1,69
673 639 m 128,-1,77
 729 639 729 639 766 676 c 128,-1,78
 803 713 803 713 803 769 c 128,-1,79
 803 825 803 825 766 862 c 128,-1,80
 729 899 729 899 673 899 c 128,-1,81
 617 899 617 899 580 862 c 128,-1,82
 543 825 543 825 543 769 c 128,-1,83
 543 713 543 713 580 676 c 128,-1,76
 617 639 617 639 673 639 c 128,-1,77
186.5 955 m 128,-1,85
 267 955 267 955 321 900.5 c 128,-1,86
 375 846 375 846 375 769 c 128,-1,87
 375 692 375 692 321 637.5 c 128,-1,88
 267 583 267 583 186.5 583 c 128,-1,89
 106 583 106 583 53.5 637.5 c 128,-1,90
 1 692 1 692 1 769 c 128,-1,91
 1 846 1 846 53.5 900.5 c 128,-1,84
 106 955 106 955 186.5 955 c 128,-1,85
187 639 m 128,-1,93
 243 639 243 639 281 676 c 128,-1,94
 319 713 319 713 319 769 c 128,-1,95
 319 825 319 825 281 862 c 128,-1,96
 243 899 243 899 187 899 c 128,-1,97
 131 899 131 899 94 862 c 128,-1,98
 57 825 57 825 57 769 c 128,-1,99
 57 713 57 713 94 676 c 128,-1,92
 131 639 131 639 187 639 c 128,-1,93
1159 1067 m 0,100,101
 1079 1067 1079 1067 1025 1121 c 128,-1,102
 971 1175 971 1175 971 1255 c 0,103,104
 971 1332 971 1332 1025 1386.5 c 128,-1,105
 1079 1441 1079 1441 1159.5 1441 c 128,-1,106
 1240 1441 1240 1441 1292.5 1388.5 c 128,-1,107
 1345 1336 1345 1336 1345 1255.5 c 128,-1,108
 1345 1175 1345 1175 1290.5 1121 c 128,-1,109
 1236 1067 1236 1067 1159 1067 c 0,100,101
1159 1385 m 128,-1,111
 1103 1385 1103 1385 1065 1348 c 128,-1,112
 1027 1311 1027 1311 1027 1255 c 128,-1,113
 1027 1199 1027 1199 1065 1161 c 128,-1,114
 1103 1123 1103 1123 1159 1123 c 128,-1,115
 1215 1123 1215 1123 1252 1161 c 128,-1,116
 1289 1199 1289 1199 1289 1255 c 128,-1,117
 1289 1311 1289 1311 1252 1348 c 128,-1,110
 1215 1385 1215 1385 1159 1385 c 128,-1,111
673 1441 m 128,-1,119
 750 1441 750 1441 804.5 1388.5 c 128,-1,120
 859 1336 859 1336 859 1255.5 c 128,-1,121
 859 1175 859 1175 804.5 1121 c 128,-1,122
 750 1067 750 1067 673 1067 c 128,-1,123
 596 1067 596 1067 541.5 1121 c 128,-1,124
 487 1175 487 1175 487 1255.5 c 128,-1,125
 487 1336 487 1336 541.5 1388.5 c 128,-1,118
 596 1441 596 1441 673 1441 c 128,-1,119
673 1123 m 128,-1,127
 729 1123 729 1123 766 1161 c 128,-1,128
 803 1199 803 1199 803 1255 c 128,-1,129
 803 1311 803 1311 766 1348 c 128,-1,130
 729 1385 729 1385 673 1385 c 128,-1,131
 617 1385 617 1385 580 1348 c 128,-1,132
 543 1311 543 1311 543 1255 c 128,-1,133
 543 1199 543 1199 580 1161 c 128,-1,126
 617 1123 617 1123 673 1123 c 128,-1,127
186.5 1441 m 128,-1,135
 267 1441 267 1441 321 1387 c 128,-1,136
 375 1333 375 1333 375 1255 c 0,137,138
 375 1175 375 1175 321 1121 c 128,-1,139
 267 1067 267 1067 187 1067 c 0,140,141
 110 1067 110 1067 55.5 1121 c 128,-1,142
 1 1175 1 1175 1 1255.5 c 128,-1,143
 1 1336 1 1336 53.5 1388.5 c 128,-1,134
 106 1441 106 1441 186.5 1441 c 128,-1,135
187 1123 m 128,-1,145
 243 1123 243 1123 281 1161 c 128,-1,146
 319 1199 319 1199 319 1255 c 128,-1,147
 319 1311 319 1311 281 1348 c 128,-1,148
 243 1385 243 1385 187 1385 c 128,-1,149
 131 1385 131 1385 94 1348 c 128,-1,150
 57 1311 57 1311 57 1255 c 128,-1,151
 57 1199 57 1199 94 1161 c 128,-1,144
 131 1123 131 1123 187 1123 c 128,-1,145
EndSplineSet
Validated: 1
EndChar

StartChar: uniEB53
Encoding: 60243 60243 138
Width: 1344
Flags: W
LayerCount: 2
Fore
SplineSet
1288 1374 m 1,0,-1
 56 1374 l 1,1,-1
 56 142 l 1,2,-1
 1288 142 l 1,3,-1
 1288 1374 l 1,0,-1
1344 1430 m 1,4,-1
 1344 86 l 1,5,-1
 0 86 l 1,6,-1
 0 1430 l 1,7,-1
 1344 1430 l 1,4,-1
448 1066 m 1,8,-1
 448 1122 l 1,9,-1
 1120 1122 l 1,10,-1
 1120 1066 l 1,11,-1
 448 1066 l 1,8,-1
448 730 m 1,12,-1
 448 786 l 1,13,-1
 1120 786 l 1,14,-1
 1120 730 l 1,15,-1
 448 730 l 1,12,-1
448 394 m 1,16,-1
 448 450 l 1,17,-1
 1120 450 l 1,18,-1
 1120 394 l 1,19,-1
 448 394 l 1,16,-1
224 1094 m 128,-1,21
 224 1150 224 1150 280 1150 c 128,-1,22
 336 1150 336 1150 336 1094 c 128,-1,23
 336 1038 336 1038 280 1038 c 128,-1,20
 224 1038 224 1038 224 1094 c 128,-1,21
224 758 m 128,-1,25
 224 814 224 814 280 814 c 128,-1,26
 336 814 336 814 336 758 c 128,-1,27
 336 702 336 702 280 702 c 128,-1,24
 224 702 224 702 224 758 c 128,-1,25
224 422 m 128,-1,29
 224 478 224 478 280 478 c 128,-1,30
 336 478 336 478 336 422 c 128,-1,31
 336 366 336 366 280 366 c 128,-1,28
 224 366 224 366 224 422 c 128,-1,29
EndSplineSet
Validated: 1
EndChar

StartChar: uniEB54
Encoding: 60244 60244 139
Width: 1792
Flags: W
LayerCount: 2
Fore
SplineSet
1638 934 m 1,0,-1
 987 1582 l 2,1,2
 969 1600 969 1600 944.5 1610 c 128,-1,3
 920 1620 920 1620 896 1620 c 256,4,5
 872 1620 872 1620 847 1610 c 128,-1,6
 822 1600 822 1600 805 1582 c 2,7,-1
 662 1442 l 1,8,-1
 448 1442 l 1,9,-1
 448 1225 l 1,10,-1
 150 928 l 1,11,-1
 150 54 l 1,12,-1
 1642 54 l 1,13,-1
 1642 928 l 1,14,-1
 1638 934 l 1,0,-1
1575 910 m 1,15,-1
 1344 679 l 1,16,-1
 1344 1141 l 1,17,-1
 1575 910 l 1,15,-1
847 1540 m 2,18,19
 868 1561 868 1561 896 1561 c 128,-1,20
 924 1561 924 1561 945 1540 c 2,21,-1
 1043 1442 l 1,22,-1
 749 1442 l 1,23,-1
 847 1540 l 2,18,19
1106 1382 m 1,24,-1
 1284 1200 l 1,25,-1
 1284 620 l 1,26,-1
 1144 480 l 1,27,-1
 987 640 l 2,28,29
 969 658 969 658 944.5 668.5 c 128,-1,30
 920 679 920 679 896 679 c 256,31,32
 872 679 872 679 847 668.5 c 128,-1,33
 822 658 822 658 805 640 c 2,34,-1
 644 480 l 1,35,-1
 508 616 l 1,36,-1
 508 1382 l 1,37,-1
 1106 1382 l 1,24,-1
245 938 m 1,38,-1
 448 1141 l 1,39,-1
 448 676 l 1,40,-1
 214 906 l 1,41,-1
 245 938 l 1,38,-1
210 780 m 1,42,-1
 210 830 l 1,43,-1
 602 438 l 1,44,-1
 598 430 l 1,45,-1
 210 152 l 1,46,-1
 210 780 l 1,42,-1
256 113 m 1,47,-1
 290 144 l 1,48,-1
 847 598 l 2,49,50
 869 616 869 616 896 616 c 128,-1,51
 923 616 923 616 945 598 c 2,52,-1
 1536 113 l 1,53,-1
 256 113 l 1,47,-1
1582 819 m 1,54,-1
 1582 152 l 1,55,-1
 1186 438 l 1,56,-1
 1582 833 l 1,57,-1
 1582 819 l 1,54,-1
686 1200 m 1,58,-1
 1106 1200 l 1,59,-1
 1106 1141 l 1,60,-1
 686 1141 l 1,61,-1
 686 1200 l 1,58,-1
686 844 m 1,62,-1
 1106 844 l 1,63,-1
 1106 784 l 1,64,-1
 686 784 l 1,65,-1
 686 844 l 1,62,-1
686 1022 m 1,66,-1
 987 1022 l 1,67,-1
 987 962 l 1,68,-1
 686 962 l 1,69,-1
 686 1022 l 1,66,-1
EndSplineSet
Validated: 9
EndChar

StartChar: uniEB55
Encoding: 60245 60245 140
Width: 1585
Flags: W
LayerCount: 2
Fore
SplineSet
0 536 m 2,0,-1
 0 474 l 1,1,-1
 0 213 l 2,2,3
 0 203 0 203 9 185.5 c 128,-1,4
 18 168 18 168 46 168 c 2,5,-1
 192 168 l 1,6,-1
 396 168 l 1,7,-1
 432 168 l 1,8,-1
 444 168 l 1,9,-1
 455 168 l 1,10,-1
 458 168 l 1,11,-1
 469 168 l 1,12,-1
 469 131 l 1,13,-1
 469 108 l 2,14,15
 469 90 469 90 481.5 71 c 128,-1,16
 494 52 494 52 528 52 c 2,17,-1
 710 52 l 1,18,-1
 959 52 l 1,19,-1
 1006 52 l 1,20,-1
 1022 52 l 1,21,-1
 1032 52 l 1,22,-1
 1050 52 l 1,23,-1
 1096 52 l 1,24,-1
 1348 52 l 1,25,-1
 1530 52 l 2,26,27
 1562 52 1562 52 1574 71 c 128,-1,28
 1586 90 1586 90 1586 108 c 2,29,-1
 1586 176 l 1,30,-1
 1586 255 l 2,31,32
 1586 291 1586 291 1583 392.5 c 128,-1,33
 1580 494 1580 494 1575 504 c 0,34,35
 1564 529 1564 529 1530 543 c 1,36,37
 1509 553 1509 553 1470.5 567.5 c 128,-1,38
 1432 582 1432 582 1390 599 c 1,39,40
 1344 613 1344 613 1300 628.5 c 128,-1,41
 1256 644 1256 644 1218 655 c 1,42,43
 1214 655 1214 655 1212.5 660.5 c 128,-1,44
 1211 666 1211 666 1211 690 c 0,45,46
 1211 718 1211 718 1214.5 737 c 128,-1,47
 1218 756 1218 756 1222 770 c 1,48,49
 1232 791 1232 791 1241 819.5 c 128,-1,50
 1250 848 1250 848 1253 879 c 1,51,52
 1267 889 1267 889 1279.5 915.5 c 128,-1,53
 1292 942 1292 942 1302 991 c 0,54,55
 1309 1029 1309 1029 1307.5 1048.5 c 128,-1,56
 1306 1068 1306 1068 1298 1082 c 1,57,-1
 1298 1088 l 1,58,-1
 1298 1089 l 1,59,60
 1294 1099 1294 1099 1298 1139.5 c 128,-1,61
 1302 1180 1302 1180 1309 1222 c 0,62,63
 1313 1246 1313 1246 1304 1297 c 0,64,65
 1294 1348 1294 1348 1256 1394 c 1,66,67
 1246 1412 1246 1412 1228 1427 c 256,68,69
 1210 1442 1210 1442 1186 1453 c 1,70,71
 1162 1467 1162 1467 1130 1478 c 0,72,73
 1098 1488 1098 1488 1060 1488 c 2,74,-1
 1001 1488 l 2,75,76
 959 1488 959 1488 927.5 1477.5 c 128,-1,77
 896 1467 896 1467 872 1453 c 1,78,79
 848 1443 848 1443 832 1427 c 0,80,81
 816 1412 816 1412 802 1394 c 0,82,83
 767 1348 767 1348 756.5 1297 c 128,-1,84
 746 1246 746 1246 752 1222 c 1,85,86
 759 1180 759 1180 761 1140 c 128,-1,87
 763 1100 763 1100 763 1089 c 1,88,-1
 762 1088 l 2,89,90
 760 1086 760 1086 760 1082 c 1,91,92
 756 1068 756 1068 752 1049 c 1,93,94
 750 1030 750 1030 760 991 c 1,95,96
 767 942 767 942 780.5 916 c 128,-1,97
 794 890 794 890 805 879 c 1,98,99
 809 847 809 847 817.5 819.5 c 128,-1,100
 826 792 826 792 836 770 c 1,101,102
 843 752 843 752 850.5 731.5 c 128,-1,103
 858 711 858 711 858 690 c 0,104,105
 858 666 858 666 856 662 c 128,-1,106
 854 658 854 658 850 655 c 1,107,108
 832 651 832 651 817 646 c 128,-1,109
 802 641 802 641 784 634 c 1,110,111
 763 641 763 641 738.5 649.5 c 128,-1,112
 714 658 714 658 693 666 c 0,113,114
 669 676 669 676 646 683 c 0,115,116
 624 690 624 690 606 694 c 1,117,118
 599 698 599 698 598.5 701 c 128,-1,119
 598 704 598 704 598 725 c 256,120,121
 598 746 598 746 600 762 c 128,-1,122
 602 778 602 778 609 788 c 1,123,124
 616 806 616 806 623 828 c 0,125,126
 630 852 630 852 634 876 c 1,127,128
 641 886 641 886 651.5 907 c 128,-1,129
 662 928 662 928 672 966 c 1,130,131
 676 998 676 998 674 1014 c 128,-1,132
 672 1030 672 1030 668 1044 c 1,133,-1
 668 1046 l 1,134,-1
 668 1047 l 1,135,136
 664 1054 664 1054 668 1087 c 128,-1,137
 672 1120 672 1120 676 1152 c 1,138,139
 680 1173 680 1173 672 1215 c 1,140,141
 666 1258 666 1258 634 1296 c 1,142,143
 627 1306 627 1306 612.5 1318 c 128,-1,144
 598 1330 598 1330 578 1341 c 0,145,146
 560 1351 560 1351 534 1360 c 128,-1,147
 508 1369 508 1369 476 1369 c 2,148,-1
 427 1369 l 2,149,150
 395 1369 395 1369 369 1360 c 0,151,152
 344 1352 344 1352 326 1341 c 1,153,154
 305 1331 305 1331 290.5 1318.5 c 128,-1,155
 276 1306 276 1306 270 1296 c 1,156,157
 238 1258 238 1258 231 1215.5 c 128,-1,158
 224 1173 224 1173 228 1152 c 1,159,160
 232 1120 232 1120 235 1087 c 128,-1,161
 238 1054 238 1054 234 1047 c 1,162,-1
 234 1046 l 1,163,-1
 234 1044 l 1,164,165
 227 1030 227 1030 225.5 1014 c 128,-1,166
 224 998 224 998 231 966 c 1,167,168
 241 928 241 928 251.5 907 c 128,-1,169
 262 886 262 886 270 876 c 1,170,171
 274 852 274 852 280.5 829 c 128,-1,172
 287 806 287 806 294 788 c 1,173,174
 301 774 301 774 306.5 758 c 128,-1,175
 312 742 312 742 312 725 c 2,176,-1
 312 700 l 2,177,178
 312 697 312 697 304 697 c 1,179,180
 276 687 276 687 241 676.5 c 128,-1,181
 206 666 206 666 172 652 c 1,182,183
 137 642 137 642 105.5 629 c 128,-1,184
 74 616 74 616 56 610 c 0,185,186
 28 600 28 600 14 578.5 c 128,-1,187
 0 557 0 557 0 536 c 2,0,-1
528 255 m 2,188,189
 528 463 528 463 535 475 c 128,-1,190
 542 487 542 487 560 494 c 0,191,192
 584 504 584 504 621 518 c 128,-1,193
 658 532 658 532 704 546 c 1,194,195
 746 560 746 560 790 574 c 0,196,197
 832 588 832 588 864 599 c 1,198,199
 902 609 902 609 909.5 639 c 128,-1,200
 917 669 917 669 917 690 c 0,201,202
 917 722 917 722 908.5 748 c 128,-1,203
 900 774 900 774 889 795 c 1,204,205
 882 813 882 813 875 837.5 c 128,-1,206
 868 862 868 862 864 886 c 2,207,-1
 861 904 l 1,208,-1
 850 918 l 1,209,210
 843 922 843 922 834.5 941 c 128,-1,211
 826 960 826 960 816 1002 c 0,212,213
 809 1034 809 1034 810.5 1044 c 128,-1,214
 812 1054 812 1054 816 1061 c 1,215,-1
 816 1064 l 1,216,-1
 818 1068 l 1,217,-1
 819 1072 l 1,218,-1
 819 1075 l 1,219,220
 823 1096 823 1096 819.5 1147 c 128,-1,221
 816 1198 816 1198 808 1232 c 0,222,223
 804 1246 804 1246 811.5 1285 c 128,-1,224
 819 1324 819 1324 847 1358 c 0,225,226
 861 1376 861 1376 876.5 1388 c 128,-1,227
 892 1400 892 1400 914 1408 c 1,228,229
 932 1418 932 1418 954 1423 c 128,-1,230
 976 1428 976 1428 1004 1432 c 1,231,-1
 1057 1432 l 1,232,233
 1089 1428 1089 1428 1113.5 1421 c 128,-1,234
 1138 1414 1138 1414 1158 1404 c 0,235,236
 1176 1394 1176 1394 1188 1382 c 1,237,238
 1200 1368 1200 1368 1211 1358 c 1,239,240
 1239 1323 1239 1323 1246 1284 c 1,241,242
 1254 1246 1254 1246 1250 1232 c 1,243,244
 1243 1197 1243 1197 1239.5 1146.5 c 128,-1,245
 1236 1096 1236 1096 1239 1078 c 1,246,-1
 1239 1075 l 1,247,248
 1243 1071 1243 1071 1242.5 1067.5 c 128,-1,249
 1242 1064 1242 1064 1246 1061 c 1,250,251
 1246 1054 1246 1054 1248 1044 c 256,252,253
 1250 1034 1250 1034 1242 1002 c 1,254,255
 1235 960 1235 960 1224 940 c 0,256,257
 1214 922 1214 922 1211 918 c 2,258,-1
 1197 904 l 1,259,-1
 1197 886 l 1,260,261
 1193 862 1193 862 1184.5 837 c 128,-1,262
 1176 812 1176 812 1169 795 c 1,263,264
 1162 774 1162 774 1157 749.5 c 128,-1,265
 1152 725 1152 725 1152 690 c 0,266,267
 1152 666 1152 666 1159 638 c 128,-1,268
 1166 610 1166 610 1200 599 c 1,269,270
 1235 589 1235 589 1280.5 573 c 128,-1,271
 1326 557 1326 557 1368 543 c 256,272,273
 1410 529 1410 529 1447 515 c 0,274,275
 1484 500 1484 500 1505 490 c 0,276,277
 1519 483 1519 483 1522.5 476.5 c 128,-1,278
 1526 470 1526 470 1526 255 c 2,279,-1
 1526 108 l 1,280,-1
 528 108 l 1,281,-1
 528 255 l 2,188,189
60 536 m 2,282,283
 60 540 60 540 63 545 c 128,-1,284
 66 550 66 550 77 554 c 1,285,286
 98 564 98 564 128 574.5 c 128,-1,287
 158 585 158 585 192 599 c 1,288,289
 227 609 227 609 260.5 619.5 c 128,-1,290
 294 630 294 630 322 641 c 1,291,292
 360 651 360 651 365.5 679.5 c 128,-1,293
 371 708 371 708 371 725 c 0,294,295
 371 749 371 749 364 772 c 0,296,297
 356 795 356 795 346 816 c 0,298,299
 342 826 342 826 336 846 c 1,300,301
 329 864 329 864 329 882 c 1,302,-1
 326 900 l 1,303,-1
 315 914 l 2,304,305
 311 918 311 918 304.5 932 c 128,-1,306
 298 946 298 946 290 977 c 1,307,308
 286 1001 286 1001 286.5 1008.5 c 128,-1,309
 287 1016 287 1016 287 1019 c 2,310,-1
 287 1022 l 1,311,-1
 290 1022 l 1,312,-1
 290 1028 l 1,313,-1
 290 1030 l 1,314,-1
 290 1033 l 1,315,-1
 294 1033 l 1,316,317
 298 1054 298 1054 294 1098 c 128,-1,318
 290 1142 290 1142 284 1162 c 1,319,320
 284 1172 284 1172 289 1200.5 c 128,-1,321
 294 1229 294 1229 315 1257 c 1,322,323
 322 1271 322 1271 334 1279.5 c 128,-1,324
 346 1288 346 1288 360 1296 c 1,325,326
 378 1303 378 1303 394 1306.5 c 128,-1,327
 410 1310 410 1310 430 1313 c 1,328,-1
 472 1313 l 1,329,330
 521 1309 521 1309 547.5 1291.5 c 128,-1,331
 574 1274 574 1274 588 1257 c 0,332,333
 609 1229 609 1229 614 1201 c 0,334,335
 620 1172 620 1172 620 1162 c 1,336,337
 613 1138 613 1138 609.5 1096 c 128,-1,338
 606 1054 606 1054 609 1033 c 1,339,340
 613 1029 613 1029 612.5 1025.5 c 128,-1,341
 612 1022 612 1022 616 1019 c 1,342,-1
 616 1008 l 2,343,344
 616 1002 616 1002 612 977 c 1,345,346
 605 945 605 945 598.5 931.5 c 128,-1,347
 592 918 592 918 588 914 c 2,348,-1
 578 900 l 1,349,-1
 574 882 l 1,350,351
 574 864 574 864 567 845 c 128,-1,352
 560 826 560 826 553 812 c 1,353,354
 546 794 546 794 542.5 773.5 c 128,-1,355
 539 753 539 753 539 725 c 0,356,357
 539 704 539 704 544.5 678 c 128,-1,358
 550 652 550 652 588 638 c 1,359,360
 609 634 609 634 637 623.5 c 128,-1,361
 665 613 665 613 693 606 c 1,362,363
 647 588 647 588 606 572 c 0,364,365
 564 556 564 556 539 546 c 0,366,367
 504 532 504 532 486 506 c 0,368,369
 479 495 479 495 474 393 c 128,-1,370
 469 291 469 291 469 255 c 2,371,-1
 469 241 l 1,372,-1
 469 227 l 1,373,-1
 60 227 l 1,374,-1
 60 536 l 2,282,283
EndSplineSet
Validated: 41
EndChar

StartChar: uniEB56
Encoding: 60246 60246 141
Width: 1792
Flags: W
LayerCount: 2
Fore
SplineSet
1656 238 m 2,0,-1
 1337 553 l 1,1,-1
 1379 595 l 1,2,-1
 1337 637 l 1,3,-1
 1211 511 l 1,4,-1
 1001 724 l 1,5,-1
 1253 976 l 1,6,7
 1277 969 1277 969 1303.5 964 c 128,-1,8
 1330 959 1330 959 1358 959 c 0,9,10
 1390 959 1390 959 1419.5 964.5 c 128,-1,11
 1449 970 1449 970 1477 984 c 1,12,13
 1505 994 1505 994 1531.5 1011.5 c 128,-1,14
 1558 1029 1558 1029 1578 1050 c 0,15,16
 1613 1085 1613 1085 1636 1127 c 0,17,18
 1659 1168 1659 1168 1666 1214 c 1,19,20
 1676 1256 1676 1256 1671 1304 c 0,21,22
 1666 1350 1666 1350 1645 1396 c 2,23,-1
 1628 1435 l 1,24,-1
 1491 1302 l 1,25,-1
 1382 1298 l 1,26,-1
 1386 1404 l 1,27,-1
 1522 1544 l 1,28,-1
 1484 1561 l 1,29,30
 1466 1565 1466 1565 1452 1570 c 0,31,32
 1438 1574 1438 1574 1421 1578 c 0,33,34
 1407 1582 1407 1582 1391.5 1584 c 128,-1,35
 1376 1586 1376 1586 1358 1586 c 0,36,37
 1326 1586 1326 1586 1296.5 1580.5 c 128,-1,38
 1267 1575 1267 1575 1239 1561 c 1,39,40
 1211 1551 1211 1551 1184.5 1533.5 c 128,-1,41
 1158 1516 1158 1516 1138 1494 c 1,42,43
 1103 1459 1103 1459 1081.5 1420.5 c 128,-1,44
 1060 1382 1060 1382 1054 1340 c 1,45,46
 1044 1298 1044 1298 1045 1254 c 0,47,48
 1046 1212 1046 1212 1064 1166 c 1,49,-1
 808 914 l 1,50,-1
 452 1270 l 1,51,-1
 494 1312 l 1,52,-1
 259 1547 l 1,53,-1
 133 1421 l 1,54,-1
 368 1186 l 1,55,-1
 410 1228 l 1,56,-1
 766 872 l 1,57,-1
 514 616 l 1,58,59
 486 626 486 626 460 631.5 c 128,-1,60
 434 637 434 637 410 637 c 0,61,62
 378 637 378 637 346 630 c 1,63,64
 315 622 315 622 287 612 c 1,65,66
 259 598 259 598 234 582 c 0,67,68
 210 566 210 566 186 542 c 1,69,70
 151 510 151 510 130 468 c 1,71,72
 108 428 108 428 102 382 c 1,73,74
 92 336 92 336 97 289 c 128,-1,75
 102 242 102 242 119 196 c 1,76,-1
 136 158 l 1,77,-1
 276 298 l 1,78,-1
 382 298 l 1,79,-1
 382 189 l 1,80,-1
 245 52 l 1,81,-1
 284 35 l 2,82,83
 298 28 298 28 314 23 c 0,84,85
 328 18 328 18 346 14 c 0,86,87
 360 10 360 10 376 8.5 c 128,-1,88
 392 7 392 7 410 7 c 0,89,90
 442 7 442 7 471 14 c 0,91,92
 500 22 500 22 528 32 c 1,93,94
 556 46 556 46 582 62 c 0,95,96
 609 78 609 78 630 102 c 1,97,98
 662 134 662 134 683 172 c 128,-1,99
 704 210 704 210 714 252 c 0,100,101
 724 298 724 298 721 341.5 c 128,-1,102
 718 385 718 385 704 427 c 1,103,-1
 956 682 l 1,104,-1
 1169 469 l 1,105,-1
 1043 343 l 1,106,-1
 1085 301 l 1,107,-1
 1127 343 l 1,108,-1
 1442 28 l 2,109,110
 1452 18 1452 18 1464.5 9 c 128,-1,111
 1477 0 1477 0 1491 -7 c 1,112,113
 1505 -11 1505 -11 1519 -14.5 c 128,-1,114
 1533 -18 1533 -18 1547 -18 c 0,115,116
 1565 -18 1565 -18 1578.5 -14 c 128,-1,117
 1592 -10 1592 -10 1606 -7 c 1,118,119
 1620 0 1620 0 1632 9 c 1,120,121
 1646 18 1646 18 1656 28 c 0,122,123
 1677 49 1677 49 1687.5 75.5 c 128,-1,124
 1698 102 1698 102 1698 133 c 0,125,126
 1698 161 1698 161 1687 189 c 128,-1,127
 1676 217 1676 217 1656 238 c 2,0,-1
217 1421 m 1,128,-1
 259 1463 l 1,129,-1
 410 1312 l 1,130,-1
 368 1270 l 1,131,-1
 217 1421 l 1,128,-1
640 424 m 1,132,133
 658 386 658 386 661.5 349 c 128,-1,134
 665 312 665 312 658 273 c 0,135,136
 651 238 651 238 633.5 205 c 128,-1,137
 616 172 616 172 588 144 c 0,138,139
 570 126 570 126 549 112 c 128,-1,140
 528 98 528 98 504 88 c 1,141,142
 483 78 483 78 458.5 74 c 128,-1,143
 434 70 434 70 410 70 c 2,144,-1
 380 70 l 2,145,146
 364 70 364 70 350 74 c 1,147,-1
 438 161 l 1,148,-1
 441 357 l 1,149,-1
 252 357 l 1,150,-1
 161 266 l 1,151,152
 154 298 154 298 154 329 c 128,-1,153
 154 360 154 360 164 392 c 1,154,155
 171 420 171 420 188.5 450 c 128,-1,156
 206 480 206 480 228 500 c 1,157,158
 246 518 246 518 266 532 c 1,159,160
 288 546 288 546 312 556 c 1,161,162
 333 566 333 566 357.5 570 c 128,-1,163
 382 574 382 574 410 574 c 0,164,165
 434 574 434 574 460 569 c 128,-1,166
 486 564 486 564 508 556 c 1,167,-1
 528 546 l 1,168,-1
 1134 1152 l 1,169,-1
 1127 1172 l 1,170,171
 1109 1207 1109 1207 1105.5 1245.5 c 128,-1,172
 1102 1284 1102 1284 1110 1320 c 1,173,174
 1117 1358 1117 1358 1134.5 1391 c 128,-1,175
 1152 1424 1152 1424 1180 1452 c 0,176,177
 1198 1470 1198 1470 1218.5 1484 c 128,-1,178
 1239 1498 1239 1498 1260 1505 c 1,179,180
 1284 1515 1284 1515 1309 1520.5 c 128,-1,181
 1334 1526 1334 1526 1358 1526 c 0,182,183
 1372 1526 1372 1526 1386 1524 c 128,-1,184
 1400 1522 1400 1522 1414 1519 c 1,185,-1
 1326 1428 l 1,186,-1
 1323 1239 l 1,187,-1
 1519 1242 l 1,188,-1
 1606 1330 l 1,189,190
 1613 1298 1613 1298 1611.5 1265 c 128,-1,191
 1610 1232 1610 1232 1603 1204 c 1,192,193
 1593 1172 1593 1172 1577 1144 c 0,194,195
 1560 1116 1560 1116 1536 1092 c 0,196,197
 1518 1074 1518 1074 1497.5 1060 c 128,-1,198
 1477 1046 1477 1046 1456 1036 c 1,199,200
 1432 1029 1432 1029 1407 1023.5 c 128,-1,201
 1382 1018 1382 1018 1358 1018 c 256,202,203
 1334 1018 1334 1018 1308 1024 c 0,204,205
 1280 1030 1280 1030 1256 1040 c 1,206,-1
 1239 1046 l 1,207,-1
 634 441 l 1,208,-1
 640 424 l 1,132,133
1610 70 m 1,209,210
 1600 56 1600 56 1582 49 c 128,-1,211
 1564 42 1564 42 1547 42 c 0,212,213
 1529 42 1529 42 1513.5 49 c 128,-1,214
 1498 56 1498 56 1484 70 c 2,215,-1
 1169 385 l 1,216,-1
 1295 511 l 1,217,-1
 1610 196 l 2,218,219
 1624 182 1624 182 1631 166 c 128,-1,220
 1638 150 1638 150 1638 133 c 0,221,222
 1638 115 1638 115 1631 97.5 c 128,-1,223
 1624 80 1624 80 1610 70 c 1,209,210
EndSplineSet
Validated: 41
EndChar

